<?xml version="1.0" encoding="UTF-8"?>
<svg id="Layer_2" data-name="Layer 2" xmlns="http://www.w3.org/2000/svg" viewBox="0 0 292.15 801.52">
  <defs>
    <style>
      .cls-1 {
        fill: #f78d46;
      }
    </style>
  </defs>
  <g id="Layer_1-2" data-name="Layer 1">
    <path class="cls-1" d="m279.12,801.52c-6.52,0-11.95-5.43-11.95-13.03V26.07H13.03C6.52,26.07,0,19.55,0,13.03,0,5.43,6.52,0,13.03,0h266.09c7.6,0,13.03,5.43,13.03,13.03v775.46c0,7.6-5.43,13.03-13.03,13.03ZM0,168.34c0-7.6,6.52-13.03,13.03-13.03h110.78c7.6,0,13.03,5.43,13.03,13.03v620.15c0,7.6-5.43,13.03-13.03,13.03-6.52,0-11.95-5.43-11.95-13.03V180.29H13.03c-6.52,0-13.03-5.43-13.03-11.95Z"/>
  </g>
</svg>