<?xml version="1.0" encoding="UTF-8"?>
<svg id="Layer_2" data-name="Layer 2" xmlns="http://www.w3.org/2000/svg" viewBox="0 0 553.68 819.56">
  <defs>
    <style>
      .cls-1 {
        fill: #f78d46;
      }
    </style>
  </defs>
  <g id="Layer_1-2" data-name="Layer 1">
    <path class="cls-1" d="m122.51,212.44c-3.26-7.6-1.09-15.21,5.43-18.46,49.96-24.98,79.28-38.01,140.1-34.75,26.07,1.09,49.96,10.86,67.34,27.15,51.05,47.79,26.07,111.87-7.6,162.91L36.71,794.58h505.02c6.52,0,11.95,5.43,11.95,13.03,0,6.52-5.43,11.95-11.95,11.95H13.9c-10.86,0-17.38-10.86-11.95-19.55l304.1-464.84c26.07-39.1,52.13-91.23,10.86-130.33-11.95-11.95-30.41-19.55-49.96-20.64-56.48-2.17-81.46,9.77-128.16,33.67-6.52,3.26-14.12,0-16.29-5.43Zm211.78,423.57h199.84c7.6,0,13.03,5.43,13.03,11.95s-5.43,11.95-13.03,11.95h-222.65c-10.86,0-17.38-9.78-10.86-18.46l155.31-238.94c33.67-51.05,54.3-86.89,51.04-150.96-2.17-61.91-29.32-116.21-70.59-156.39-43.44-40.19-99.92-66.25-162.91-69.51-62.99-3.26-105.35,5.43-162.91,29.32-6.52,3.26-13.03,0-16.29-6.52-2.17-6.52,1.09-13.03,6.52-17.38C162.69,6.09,207.22-2.6,274.56.66c69.51,3.26,132.5,32.58,179.2,77.11,45.62,44.53,74.94,104.26,78.2,172.69,2.17,69.51-17.38,109.69-54.3,166.17l-143.36,219.39Z"/>
  </g>
</svg>