<?xml version="1.0" encoding="UTF-8"?>
<svg id="Layer_2" data-name="Layer 2" xmlns="http://www.w3.org/2000/svg" viewBox="0 0 439.34 816.83">
  <defs>
    <style>
      .cls-1 {
        fill: #f78d46;
      }
    </style>
  </defs>
  <g id="Layer_1-2" data-name="Layer 1">
    <path class="cls-1" d="m18.44,761.23c274.78,112.95,456.15-104.26,377.96-276.95-27.15-58.65-69.51-69.51-49.96-84.71C493.05,280.1,396.39-26.17,94.46,33.56c-39.1,6.52-62.99,18.46-76.03,21.72-9.77,3.26-14.12,2.17-17.38-6.52-2.17-5.43,0-13.03,6.52-15.21,297.58-122.73,499.59,116.21,410.54,311.7-9.77,23.89-26.07,44.53-44.53,64.08,154.22,150.96,28.24,460.5-284.55,399.68-29.32-6.52-56.48-15.21-81.46-24.98-15.21-6.52-5.43-29.32,10.86-22.81Zm20.64-160.74c137.93,69.51,270.43,0,187.89-81.46-40.19-39.1-112.95,0-112.95-31.5,0-19.55,32.58-11.95,65.17-11.95,118.38,0,127.07,174.86,0,181.38-58.65,3.26-101.01-9.78-152.05-34.75-15.21-7.6-4.34-29.32,11.95-21.72Zm-10.86-406.19c217.21-106.44,291.07,48.87,217.21,121.64-33.67,32.58-71.68,26.07-119.47,26.07-16.29,0-16.29-24.98,0-24.98,41.27,0,74.94,6.52,101.01-18.46,83.63-82.54-49.96-148.79-188.98-80.37-14.12,6.52-27.15-16.29-9.77-23.89Z"/>
  </g>
</svg>