<svg xmlns="http://www.w3.org/2000/svg" version="1.1" xmlns:xlink="http://www.w3.org/1999/xlink" width="512" height="512" x="0" y="0" viewBox="0 0 512 512" style="enable-background:new 0 0 512 512" xml:space="preserve" class=""><g transform="matrix(1.0699999999999998,0,0,-1.0699999999999998,-17.91999999999996,529.92)"><path d="M459.677 152.278C439.254 128.544 409.973 116 375 116c-63.411 0-115 51.589-115 115 0 61.67 48.793 112.157 109.802 114.884-1.712 21.616-13.958 42.324-14.091 42.547A5 5 0 0 0 360 396c23.775 0 56.354-18.093 82.997-46.093C472.868 318.516 490 280.643 490 246c0-38.261-10.485-70.669-30.323-93.722zm-23.924 190.737c-21.237 22.318-46.98 38.279-67.037 42.104C373.368 375.314 380 358.305 380 341a5 5 0 0 0-5-5c-57.897 0-105-47.103-105-105s47.103-105 105-105c64.767 0 105 45.981 105 120 0 32.103-16.128 67.463-44.247 97.015zM137 116c-63.411 0-115 51.589-115 115 0 61.67 48.793 112.157 109.802 114.884-1.713 21.616-13.958 42.324-14.091 42.547A5 5 0 0 0 122 396c23.775 0 56.354-18.093 82.997-46.093C234.868 318.516 252 280.643 252 246c0-38.261-10.486-70.669-30.323-93.722C201.254 128.544 171.973 116 137 116zm60.753 227.015c-21.237 22.318-46.98 38.279-67.038 42.104C135.368 375.314 142 358.305 142 341a5 5 0 0 0-5-5c-57.897 0-105-47.103-105-105s47.103-105 105-105c64.766 0 105 45.981 105 120 0 32.103-16.127 67.463-44.247 97.015z" fill="#f47920" opacity="1" data-original="#000000"></path></g></svg>