<?xml version="1.0" encoding="UTF-8"?>
<svg id="Layer_2" data-name="Layer 2" xmlns="http://www.w3.org/2000/svg" viewBox="0 0 692.61 692.66">
  <defs>
    <style>
      .cls-1 {
        fill: none;
        stroke: #fff;
        stroke-linecap: round;
        stroke-linejoin: round;
        stroke-width: 6px;
      }
    </style>
  </defs>
  <g id="Graphic_Elements" data-name="Graphic Elements">
    <path class="cls-1" d="m676.62,194.57L498,15.98c-17.31-17.31-45.38-17.31-62.69,0L15.98,435.4c-17.31,17.31-17.31,45.38,0,62.69l178.63,178.59c17.31,17.31,45.38,17.31,62.69,0l419.33-419.41c17.31-17.31,17.31-45.38,0-62.69Z"/>
    <g>
      <circle class="cls-1" cx="457.9" cy="137.85" r="53.39"/>
      <circle class="cls-1" cx="554.76" cy="234.69" r="53.39" transform="translate(-44.71 293.6) rotate(-28.54)"/>
      <path class="cls-1" d="m517,196.94c-20.85,20.85-20.85,54.66,0,75.51,20.85,20.85,54.66,20.85,75.51,0l-75.51-75.5Z"/>
      <circle class="cls-1" cx="351.22" cy="244.56" r="53.39"/>
      <circle class="cls-1" cx="448.07" cy="341.39" r="53.39" transform="translate(-110.16 416.83) rotate(-45)"/>
      <circle class="cls-1" cx="244.54" cy="351.26" r="53.39" transform="translate(-176.86 426.16) rotate(-65.23)"/>
      <circle class="cls-1" cx="341.39" cy="448.1" r="53.39" transform="translate(-216.86 372.64) rotate(-45)"/>
      <circle class="cls-1" cx="137.85" cy="457.97" r="53.39" transform="translate(-335.74 391.3) rotate(-65.23)"/>
      <circle class="cls-1" cx="234.71" cy="554.8" r="53.39" transform="translate(-245.39 190.93) rotate(-29.91)"/>
      <path class="cls-1" d="m420.15,100.1c-20.85,20.85-20.85,54.66,0,75.51,20.85,20.85,54.66,20.85,75.51,0l-75.51-75.5Z"/>
      <path class="cls-1" d="m313.46,206.81c-20.85,20.85-20.85,54.66,0,75.51s54.66,20.85,75.51,0l-75.51-75.5Z"/>
      <path class="cls-1" d="m410.32,303.64c-20.85,20.85-20.85,54.66,0,75.51,20.85,20.85,54.66,20.85,75.51,0l-75.51-75.5Z"/>
      <path class="cls-1" d="m206.78,313.51c-20.85,20.85-20.85,54.66,0,75.51,20.85,20.85,54.66,20.85,75.51,0l-75.51-75.5Z"/>
      <path class="cls-1" d="m303.63,410.35c-20.85,20.85-20.85,54.66,0,75.51,20.85,20.85,54.66,20.85,75.51,0l-75.51-75.5Z"/>
      <path class="cls-1" d="m100.09,420.22c-20.85,20.85-20.85,54.66,0,75.51,20.85,20.85,54.66,20.85,75.51,0l-75.51-75.5Z"/>
      <path class="cls-1" d="m196.95,517.05c-20.85,20.85-20.85,54.66,0,75.51,20.85,20.85,54.66,20.85,75.51,0l-75.51-75.5Z"/>
    </g>
  </g>
</svg>