<?xml version="1.0" encoding="UTF-8"?>
<svg id="Layer_2" data-name="Layer 2" xmlns="http://www.w3.org/2000/svg" viewBox="0 0 387.78 306.39">
  <defs>
    <style>
      .cls-1, .cls-2, .cls-3, .cls-4 {
        fill: none;
      }

      .cls-1, .cls-5, .cls-6, .cls-7 {
        opacity: .5;
      }

      .cls-2 {
        opacity: .6;
      }

      .cls-3, .cls-8 {
        opacity: .7;
      }

      .cls-4, .cls-9 {
        opacity: .9;
      }

      .cls-10, .cls-6 {
        fill: #f47920;
      }

      .cls-11 {
        fill: #fab694;
      }

      .cls-12 {
        fill: #f5f5f5;
      }

      .cls-13 {
        fill: #ff5652;
      }

      .cls-14, .cls-15, .cls-7, .cls-9, .cls-8, .cls-16, .cls-17 {
        fill: #fff;
      }

      .cls-18 {
        fill: #222021;
      }

      .cls-19 {
        fill: #263238;
      }

      .cls-15, .cls-20 {
        opacity: .2;
      }

      .cls-21, .cls-16 {
        opacity: .3;
      }

      .cls-17 {
        opacity: .4;
      }
    </style>
  </defs>
  <g id="Shadow">
    <ellipse id="_Path_" data-name="&amp;lt;Path&amp;gt;" class="cls-12" cx="193.89" cy="295.07" rx="193.89" ry="11.32"/>
  </g>
  <g id="Devices">
    <g>
      <g>
        <g>
          <path class="cls-19" d="m193.05,252.7c-.46-.18-.95-.16-1.38,0h-34.29l-14.42,42.25h36.18l.75-2.29h2.17l12.11-37.57c.31-.97-.18-2.02-1.13-2.39Zm-15.73,19.92l-1.24,3.86c-.77,2.4-3.01,4.03-5.53,4.03h-1.74c-3.03,0-5.17-2.95-4.25-5.83l1.25-3.86c.77-2.4,3.01-4.03,5.53-4.03h1.74c3.03,0,5.17,2.95,4.25,5.83Z"/>
          <path class="cls-16" d="m193.05,252.7c-.46-.18-.95-.16-1.38,0h-34.29l-14.42,42.25h36.18l.75-2.29h2.17l12.11-37.57c.31-.97-.18-2.02-1.13-2.39Zm-15.73,19.92l-1.24,3.86c-.77,2.4-3.01,4.03-5.53,4.03h-1.74c-3.03,0-5.17-2.95-4.25-5.83l1.25-3.86c.77-2.4,3.01-4.03,5.53-4.03h1.74c3.03,0,5.17,2.95,4.25,5.83Z"/>
          <path class="cls-19" d="m221.37,292.66h-35.67c1.07,0,1.93.86,1.93,1.93v.73c0,1.07-.86,1.93-1.93,1.93h35.67c1.07,0,1.93-.86,1.93-1.93v-.73c0-1.07-.86-1.93-1.93-1.93Z"/>
          <path class="cls-16" d="m221.37,292.66h-35.67c1.07,0,1.93.86,1.93,1.93v.73c0,1.07-.86,1.93-1.93,1.93h35.67c1.07,0,1.93-.86,1.93-1.93v-.73c0-1.07-.86-1.93-1.93-1.93Z"/>
          <g>
            <path class="cls-19" d="m185.7,297.25h-44.84l13.97-43.34c.34-1.06,1.5-1.61,2.54-1.21h0c.95.37,1.45,1.42,1.13,2.39l-12.11,37.57h39.31c1.07,0,1.93.86,1.93,1.93v.73c0,1.07-.86,1.93-1.93,1.93Z"/>
            <g class="cls-2">
              <path class="cls-14" d="m185.7,297.25h-44.84l13.97-43.34c.34-1.06,1.5-1.61,2.54-1.21h0c.95.37,1.45,1.42,1.13,2.39l-12.11,37.57h39.31c1.07,0,1.93.86,1.93,1.93v.73c0,1.07-.86,1.93-1.93,1.93Z"/>
            </g>
          </g>
          <path class="cls-19" d="m173.07,266.79h-1.74c-.13,0-.25.02-.38.03,2.76.3,4.63,3.08,3.75,5.8l-1.24,3.86c-.73,2.28-2.79,3.84-5.16,4,.16.02.33.03.5.03h1.74c2.52,0,4.76-1.63,5.53-4.03l1.24-3.86c.93-2.88-1.22-5.83-4.25-5.83Z"/>
        </g>
        <path class="cls-18" d="m95.3,129.59h-17.72c-3.72,0-6.47,3.02-6.15,6.74l10.06,114.94c.33,3.72,3.61,6.74,7.33,6.74h17.72l-11.24-128.42Z"/>
        <path class="cls-15" d="m95.3,129.59h-17.72c-3.72,0-6.47,3.02-6.15,6.74l10.06,114.94c.33,3.72,3.61,6.74,7.33,6.74h17.72l-11.24-128.42Z"/>
        <path class="cls-10" d="m252.16,258.01H93.39c-3.72,0-7-3.02-7.33-6.74l-10.06-114.94c-.33-3.72,2.43-6.74,6.15-6.74h158.77c3.72,0,7,3.02,7.33,6.74l10.06,114.94c.33,3.72-2.43,6.74-6.15,6.74Z"/>
        <path class="cls-7" d="m252.16,258.01H93.39c-3.72,0-7-3.02-7.33-6.74l-10.06-114.94c-.33-3.72,2.43-6.74,6.15-6.74h158.77c3.72,0,7,3.02,7.33,6.74l10.06,114.94c.33,3.72-2.43,6.74-6.15,6.74Z"/>
        <path class="cls-10" d="m85.05,239.67l1.02,11.61c.33,3.72,3.61,6.74,7.33,6.74h158.77c3.72,0,6.47-3.02,6.15-6.74l-1.02-11.61H85.05Z"/>
        <path class="cls-15" d="m85.05,239.67l1.02,11.61c.33,3.72,3.61,6.74,7.33,6.74h158.77c3.72,0,6.47-3.02,6.15-6.74l-1.02-11.61H85.05Z"/>
        <polygon class="cls-14" points="81.66 135.33 90.28 233.93 251.06 233.93 242.43 135.33 81.66 135.33"/>
      </g>
      <g>
        <polygon class="cls-19" points="119.53 150.74 89.46 150.74 88.51 139.92 118.58 139.92 119.53 150.74"/>
        <polygon class="cls-19" points="170.06 145.33 151.79 145.33 151.32 139.92 169.59 139.92 170.06 145.33"/>
        <polygon class="cls-19" points="135.39 229.47 105.45 229.47 104.18 214.99 134.12 214.99 135.39 229.47"/>
        <polygon class="cls-19" points="171.57 229.47 141.63 229.47 140.36 214.99 170.3 214.99 171.57 229.47"/>
        <polygon class="cls-19" points="207.75 229.47 177.81 229.47 176.54 214.99 206.48 214.99 207.75 229.47"/>
        <polygon class="cls-19" points="243.93 229.47 213.99 229.47 212.72 214.99 242.66 214.99 243.93 229.47"/>
        <polygon class="cls-19" points="192.23 145.33 173.96 145.33 173.49 139.92 191.76 139.92 192.23 145.33"/>
        <polygon class="cls-19" points="214.4 145.33 196.13 145.33 195.65 139.92 213.92 139.92 214.4 145.33"/>
        <polygon class="cls-19" points="236.56 145.33 218.3 145.33 217.82 139.92 236.09 139.92 236.56 145.33"/>
        <polygon class="cls-19" points="248.93 210.11 88.16 210.11 83.62 158.29 244.4 158.29 248.93 210.11"/>
      </g>
      <g class="cls-4">
        <polygon class="cls-14" points="119.53 150.74 89.46 150.74 88.51 139.92 118.58 139.92 119.53 150.74"/>
        <polygon class="cls-14" points="170.06 145.33 151.79 145.33 151.32 139.92 169.59 139.92 170.06 145.33"/>
        <polygon class="cls-14" points="135.39 229.47 105.45 229.47 104.18 214.99 134.12 214.99 135.39 229.47"/>
        <polygon class="cls-14" points="171.57 229.47 141.63 229.47 140.36 214.99 170.3 214.99 171.57 229.47"/>
        <polygon class="cls-14" points="207.75 229.47 177.81 229.47 176.54 214.99 206.48 214.99 207.75 229.47"/>
        <polygon class="cls-14" points="243.93 229.47 213.99 229.47 212.72 214.99 242.66 214.99 243.93 229.47"/>
        <polygon class="cls-14" points="192.23 145.33 173.96 145.33 173.49 139.92 191.76 139.92 192.23 145.33"/>
        <polygon class="cls-14" points="214.4 145.33 196.13 145.33 195.65 139.92 213.92 139.92 214.4 145.33"/>
        <polygon class="cls-14" points="236.56 145.33 218.3 145.33 217.82 139.92 236.09 139.92 236.56 145.33"/>
        <polygon class="cls-14" points="248.93 210.11 88.16 210.11 83.62 158.29 244.4 158.29 248.93 210.11"/>
      </g>
    </g>
    <g>
      <path class="cls-18" d="m135.07,0h10.17l10.26,117.25h-10.17c-4.71,0-8.87-3.82-9.28-8.54l-8.76-100.17c-.41-4.71,3.08-8.54,7.79-8.54Z"/>
      <g>
        <path class="cls-10" d="m128.77,11.76c-.04-.45-.44-.82-.89-.82s-.79.37-.75.82l.69,7.86c.04.45.44.82.89.82s.79-.37.75-.82l-.69-7.86Z"/>
        <path class="cls-6" d="m128.77,11.76c-.04-.45-.44-.82-.89-.82s-.79.37-.75.82l.69,7.86c.04.45.44.82.89.82s.79-.37.75-.82l-.69-7.86Z"/>
      </g>
      <path class="cls-10" d="m147.41,117.25h41.91c4.71,0,8.2-3.82,7.79-8.54l-8.76-100.17c-.41-4.71-4.57-8.54-9.28-8.54h-41.91c-4.71,0-8.2,3.82-7.79,8.54l8.76,100.17c.41,4.71,4.57,8.54,9.28,8.54Z"/>
      <path class="cls-7" d="m147.41,117.25h41.91c4.71,0,8.2-3.82,7.79-8.54l-8.76-100.17c-.41-4.71-4.57-8.54-9.28-8.54h-41.91c-4.71,0-8.2,3.82-7.79,8.54l8.76,100.17c.41,4.71,4.57,8.54,9.28,8.54Z"/>
      <path class="cls-14" d="m137.33,1.96h10.89c.71,0,1.36.53,1.51,1.24l.07.34c.37,1.73,1.96,3.02,3.7,3.02h10.36c1.74,0,3.1-1.3,3.17-3.02v-.34c.04-.71.6-1.24,1.31-1.24h10.89c3.63,0,6.84,2.95,7.15,6.58l8.76,100.17c.32,3.63-2.37,6.58-6,6.58h-41.91c-3.63,0-6.84-2.95-7.15-6.58l-8.76-100.17c-.32-3.63,2.37-6.58,6-6.58Z"/>
      <g>
        <path class="cls-19" d="m160.91,3.07c.04.46.45.83.91.83s.8-.37.76-.83-.45-.83-.91-.83-.8.37-.76.83Z"/>
        <path class="cls-19" d="m154.94,2.24h2.85c.46,0,.86.37.91.83.04.46-.3.83-.76.83h-2.85c-.46,0-.87-.37-.91-.83s.3-.83.76-.83Z"/>
      </g>
      <g>
        <polygon class="cls-19" points="192.18 75.01 137.11 75.01 132.3 19.94 187.36 19.94 192.18 75.01"/>
        <path class="cls-19" d="m143.74,13.41c.22,2.47-1.61,4.48-4.09,4.48s-4.66-2.01-4.87-4.48,1.61-4.48,4.09-4.48,4.66,2.01,4.87,4.48Z"/>
        <path class="cls-19" d="m180.72,15.47h-8.6c-1.14,0-2.14-.92-2.24-2.06h0c-.1-1.14.74-2.06,1.88-2.06h8.6c1.14,0,2.14.92,2.24,2.06h0c.1,1.14-.74,2.06-1.88,2.06Z"/>
        <path class="cls-19" d="m161.92,82.72h-18.4c-1.09,0-2.06-.89-2.15-1.98h0c-.1-1.09.71-1.98,1.8-1.98h18.4c1.09,0,2.06.89,2.15,1.98h0c.1,1.09-.71,1.98-1.8,1.98Z"/>
        <path class="cls-19" d="m185.9,90.43h-41.71c-1.09,0-2.06-.89-2.15-1.98h0c-.1-1.09.71-1.98,1.8-1.98h41.71c1.09,0,2.06.89,2.15,1.98h0c.1,1.09-.71,1.98-1.8,1.98Z"/>
        <path class="cls-19" d="m175.99,96.45h-31.27c-1.09,0-2.06-.89-2.15-1.98h0c-.1-1.09.71-1.98,1.8-1.98h31.27c1.09,0,2.06.89,2.15,1.98h0c.1,1.09-.71,1.98-1.8,1.98Z"/>
        <path class="cls-19" d="m182.05,102.47h-36.81c-1.09,0-2.06-.89-2.15-1.98h0c-.1-1.09.71-1.98,1.8-1.98h36.81c1.09,0,2.06.89,2.15,1.98h0c.1,1.09-.71,1.98-1.8,1.98Z"/>
        <path class="cls-19" d="m157.04,108.49h-11.27c-1.09,0-2.06-.89-2.15-1.98h0c-.1-1.09.71-1.98,1.8-1.98h11.27c1.09,0,2.06.89,2.15,1.98h0c.1,1.09-.71,1.98-1.8,1.98Z"/>
        <polygon class="cls-9" points="192.18 75.01 137.11 75.01 132.3 19.94 187.36 19.94 192.18 75.01"/>
        <path class="cls-9" d="m143.74,13.41c.22,2.47-1.61,4.48-4.09,4.48s-4.66-2.01-4.87-4.48,1.61-4.48,4.09-4.48,4.66,2.01,4.87,4.48Z"/>
        <path class="cls-9" d="m180.72,15.47h-8.6c-1.14,0-2.14-.92-2.24-2.06h0c-.1-1.14.74-2.06,1.88-2.06h8.6c1.14,0,2.14.92,2.24,2.06h0c.1,1.14-.74,2.06-1.88,2.06Z"/>
        <path class="cls-9" d="m161.92,82.72h-18.4c-1.09,0-2.06-.89-2.15-1.98h0c-.1-1.09.71-1.98,1.8-1.98h18.4c1.09,0,2.06.89,2.15,1.98h0c.1,1.09-.71,1.98-1.8,1.98Z"/>
        <path class="cls-9" d="m185.9,90.43h-41.71c-1.09,0-2.06-.89-2.15-1.98h0c-.1-1.09.71-1.98,1.8-1.98h41.71c1.09,0,2.06.89,2.15,1.98h0c.1,1.09-.71,1.98-1.8,1.98Z"/>
        <path class="cls-9" d="m175.99,96.45h-31.27c-1.09,0-2.06-.89-2.15-1.98h0c-.1-1.09.71-1.98,1.8-1.98h31.27c1.09,0,2.06.89,2.15,1.98h0c.1,1.09-.71,1.98-1.8,1.98Z"/>
        <path class="cls-9" d="m182.05,102.47h-36.81c-1.09,0-2.06-.89-2.15-1.98h0c-.1-1.09.71-1.98,1.8-1.98h36.81c1.09,0,2.06.89,2.15,1.98h0c.1,1.09-.71,1.98-1.8,1.98Z"/>
        <path class="cls-9" d="m157.04,108.49h-11.27c-1.09,0-2.06-.89-2.15-1.98h0c-.1-1.09.71-1.98,1.8-1.98h11.27c1.09,0,2.06.89,2.15,1.98h0c.1,1.09-.71,1.98-1.8,1.98Z"/>
      </g>
    </g>
    <g>
      <path class="cls-18" d="m25.48,206.47h-6.28c-2.55,0-4.44,2.07-4.21,4.62l6.99,79.94c.22,2.55,2.47,4.62,5.02,4.62h6.28l-7.8-89.18Z"/>
      <path class="cls-15" d="m25.48,206.47h-6.28c-2.55,0-4.44,2.07-4.21,4.62l6.99,79.94c.22,2.55,2.47,4.62,5.02,4.62h6.28l-7.8-89.18Z"/>
      <path class="cls-10" d="m127.52,295.65H29.74c-2.55,0-4.8-2.07-5.02-4.62l-6.99-79.94c-.22-2.55,1.66-4.62,4.21-4.62h97.78c2.55,0,4.8,2.07,5.02,4.62l6.99,79.94c.22,2.55-1.66,4.62-4.21,4.62Z"/>
      <path class="cls-7" d="m127.52,295.65H29.74c-2.55,0-4.8-2.07-5.02-4.62l-6.99-79.94c-.22-2.55,1.66-4.62,4.21-4.62h97.78c2.55,0,4.8,2.07,5.02,4.62l6.99,79.94c.22,2.55-1.66,4.62-4.21,4.62Z"/>
      <g>
        <path class="cls-18" d="m84.92,289.02h107.01v2.16c0,3.31-2.69,6-6,6h-101.02v-8.15h0Z"/>
        <path class="cls-15" d="m84.92,289.02h107.01v2.16c0,3.31-2.69,6-6,6h-101.02v-8.15h0Z"/>
        <path class="cls-17" d="m147.23,293.1h-8.55c-2.25,0-4.08-1.83-4.08-4.08h16.7c0,2.25-1.83,4.08-4.08,4.08Z"/>
      </g>
      <polygon class="cls-14" points="125.58 282.14 119.43 211.82 23.16 211.82 29.31 282.14 125.58 282.14"/>
      <path class="cls-19" d="m75.56,209.19c.06.66-.43,1.19-1.09,1.19s-1.24-.53-1.3-1.19c-.06-.66.43-1.19,1.09-1.19s1.24.53,1.3,1.19Z"/>
      <path class="cls-18" d="m25.04,289.02h67.08v2.16c0,3.31-2.69,6-6,6H31.04c-3.31,0-6-2.69-6-6v-2.16h0Z"/>
      <g>
        <path class="cls-17" d="m35.51,293.86h-4.65c-.56,0-1.02-.46-1.02-1.02h0c0-.56.46-1.02,1.02-1.02h4.65c.56,0,1.02.46,1.02,1.02h0c0,.56-.46,1.02-1.02,1.02Z"/>
        <path class="cls-17" d="m45.52,293.86h-4.65c-.56,0-1.02-.46-1.02-1.02h0c0-.56.46-1.02,1.02-1.02h4.65c.56,0,1.02.46,1.02,1.02h0c0,.56-.46,1.02-1.02,1.02Z"/>
      </g>
      <g>
        <g>
          <polygon class="cls-19" points="44.73 222.95 28.49 222.95 27.94 216.64 44.18 216.64 44.73 222.95"/>
          <polygon class="cls-19" points="79.74 218.93 69.57 218.93 69.37 216.64 79.54 216.64 79.74 218.93"/>
          <polygon class="cls-19" points="91.97 218.93 81.8 218.93 81.6 216.64 91.77 216.64 91.97 218.93"/>
          <polygon class="cls-19" points="104.2 218.93 94.03 218.93 93.83 216.64 104 216.64 104.2 218.93"/>
          <polygon class="cls-19" points="116.43 218.93 106.26 218.93 106.06 216.64 116.23 216.64 116.43 218.93"/>
          <polygon class="cls-19" points="118.28 240.15 30 240.15 28.79 226.39 117.08 226.39 118.28 240.15"/>
          <polygon class="cls-19" points="87.19 269.19 32.54 269.19 30.21 242.63 84.87 242.63 87.19 269.19"/>
          <path class="cls-19" d="m72.08,274.54h-37.84c-.69,0-1.29-.56-1.35-1.24h0c-.06-.69.45-1.24,1.13-1.24h37.84c.69,0,1.29.56,1.35,1.24h0c.06.69-.45,1.24-1.13,1.24Z"/>
          <path class="cls-19" d="m68.42,278.56h-33.82c-.69,0-1.29-.56-1.35-1.24h0c-.06-.69.45-1.24,1.13-1.24h33.82c.69,0,1.29.56,1.35,1.24h0c.06.69-.45,1.24-1.13,1.24Z"/>
          <path class="cls-19" d="m116.29,259.64h-22.2c-.69,0-1.29-.56-1.35-1.24h0c-.06-.69.45-1.24,1.13-1.24h22.2c.69,0,1.29.56,1.35,1.24h0c.06.69-.45,1.24-1.13,1.24Z"/>
          <path class="cls-19" d="m112.63,263.65h-18.18c-.69,0-1.29-.56-1.35-1.24h0c-.06-.69.45-1.24,1.13-1.24h18.18c.69,0,1.29.56,1.35,1.24h0c.06.69-.45,1.24-1.13,1.24Z"/>
          <polygon class="cls-19" points="118.02 254.67 92.04 254.67 90.98 242.63 116.97 242.63 118.02 254.67"/>
          <polygon class="cls-19" points="120.14 278.84 94.15 278.84 93.1 266.8 119.09 266.8 120.14 278.84"/>
        </g>
        <g class="cls-4">
          <polygon class="cls-14" points="44.73 222.95 28.49 222.95 27.94 216.64 44.18 216.64 44.73 222.95"/>
          <polygon class="cls-14" points="79.74 218.93 69.57 218.93 69.37 216.64 79.54 216.64 79.74 218.93"/>
          <polygon class="cls-14" points="91.97 218.93 81.8 218.93 81.6 216.64 91.77 216.64 91.97 218.93"/>
          <polygon class="cls-14" points="104.2 218.93 94.03 218.93 93.83 216.64 104 216.64 104.2 218.93"/>
          <polygon class="cls-14" points="116.43 218.93 106.26 218.93 106.06 216.64 116.23 216.64 116.43 218.93"/>
          <polygon class="cls-14" points="118.28 240.15 30 240.15 28.79 226.39 117.08 226.39 118.28 240.15"/>
          <polygon class="cls-14" points="87.19 269.19 32.54 269.19 30.21 242.63 84.87 242.63 87.19 269.19"/>
          <path class="cls-14" d="m72.08,274.54h-37.84c-.69,0-1.29-.56-1.35-1.24h0c-.06-.69.45-1.24,1.13-1.24h37.84c.69,0,1.29.56,1.35,1.24h0c.06.69-.45,1.24-1.13,1.24Z"/>
          <path class="cls-14" d="m68.42,278.56h-33.82c-.69,0-1.29-.56-1.35-1.24h0c-.06-.69.45-1.24,1.13-1.24h33.82c.69,0,1.29.56,1.35,1.24h0c.06.69-.45,1.24-1.13,1.24Z"/>
          <path class="cls-14" d="m116.29,259.64h-22.2c-.69,0-1.29-.56-1.35-1.24h0c-.06-.69.45-1.24,1.13-1.24h22.2c.69,0,1.29.56,1.35,1.24h0c.06.69-.45,1.24-1.13,1.24Z"/>
          <path class="cls-14" d="m112.63,263.65h-18.18c-.69,0-1.29-.56-1.35-1.24h0c-.06-.69.45-1.24,1.13-1.24h18.18c.69,0,1.29.56,1.35,1.24h0c.06.69-.45,1.24-1.13,1.24Z"/>
          <polygon class="cls-14" points="118.02 254.67 92.04 254.67 90.98 242.63 116.97 242.63 118.02 254.67"/>
          <polygon class="cls-14" points="120.14 278.84 94.15 278.84 93.1 266.8 119.09 266.8 120.14 278.84"/>
        </g>
      </g>
    </g>
    <g>
      <g>
        <path class="cls-18" d="m30.61,21.43h-8.63c-4.9,0-8.53,3.97-8.1,8.87l9.63,110.06c.43,4.9,4.75,8.87,9.65,8.87h8.63L30.61,21.43Z"/>
        <path class="cls-15" d="m30.61,21.43h-8.63c-4.9,0-8.53,3.97-8.1,8.87l9.63,110.06c.43,4.9,4.75,8.87,9.65,8.87h8.63L30.61,21.43Z"/>
        <path class="cls-10" d="m36.6,149.24h75.62c4.9,0,8.53-3.97,8.1-8.87l-9.63-110.06c-.43-4.9-4.75-8.87-9.65-8.87H25.42c-4.9,0-8.53,3.97-8.1,8.87l9.63,110.06c.43,4.9,4.75,8.87,9.65,8.87Z"/>
        <path class="cls-7" d="m36.6,149.24h75.62c4.9,0,8.53-3.97,8.1-8.87l-9.63-110.06c-.43-4.9-4.75-8.87-9.65-8.87H25.42c-4.9,0-8.53,3.97-8.1,8.87l9.63,110.06c.43,4.9,4.75,8.87,9.65,8.87Z"/>
        <polygon class="cls-14" points="117.22 140.36 107.59 30.3 20.42 30.3 30.05 140.36 117.22 140.36"/>
        <path class="cls-18" d="m74.24,147.33c-1.54,0-2.9-1.25-3.04-2.79-.13-1.54,1.01-2.79,2.55-2.79s2.9,1.25,3.04,2.79c.13,1.54-1.01,2.79-2.55,2.79Zm-.43-4.9c-1.16,0-2.02.94-1.92,2.11.1,1.16,1.13,2.1,2.29,2.1s2.02-.94,1.92-2.1-1.13-2.11-2.29-2.11Z"/>
      </g>
      <g>
        <polygon class="cls-19" points="103.81 41 97.39 41 96.83 34.58 103.25 34.58 103.81 41"/>
        <polygon class="cls-19" points="44.65 41 26.3 41 25.74 34.58 44.09 34.58 44.65 41"/>
        <polygon class="cls-19" points="108.03 89.16 30.52 89.16 26.99 48.8 104.49 48.8 108.03 89.16"/>
        <polygon class="cls-19" points="79.33 133.39 34.39 133.39 31 94.66 75.94 94.66 79.33 133.39"/>
        <polygon class="cls-19" points="91.62 103.49 81.3 103.49 80.53 94.66 90.85 94.66 91.62 103.49"/>
        <path class="cls-19" d="m106.02,97.64h-11.29c-.82,0-1.55-.67-1.62-1.49h0c-.07-.82.54-1.49,1.36-1.49h11.29c.82,0,1.55.67,1.62,1.49h0c.07.82-.54,1.49-1.36,1.49Z"/>
        <path class="cls-19" d="m107.79,103.49h-12.56c-.82,0-1.55-.67-1.62-1.49h0c-.07-.82.54-1.49,1.36-1.49h12.56c.82,0,1.55.67,1.62,1.49h0c.07.82-.54,1.49-1.36,1.49Z"/>
        <path class="cls-19" d="m107.04,109.34h-23.73c-.82,0-1.55-.67-1.62-1.49h0c-.07-.82.54-1.49,1.36-1.49h23.73c.82,0,1.55.67,1.62,1.49h0c.07.82-.54,1.49-1.36,1.49Z"/>
        <path class="cls-19" d="m108.81,115.18h-25c-.82,0-1.55-.67-1.62-1.49h0c-.07-.82.54-1.49,1.36-1.49h25c.82,0,1.55.67,1.62,1.49h0c.07.82-.54,1.49-1.36,1.49Z"/>
        <path class="cls-19" d="m106.11,121.03h-21.78c-.82,0-1.55-.67-1.62-1.49h0c-.07-.82.54-1.49,1.36-1.49h21.79c.82,0,1.55.67,1.62,1.49h0c.07.82-.54,1.49-1.36,1.49Z"/>
        <path class="cls-19" d="m109.84,126.88h-25c-.82,0-1.55-.67-1.62-1.49h0c-.07-.82.54-1.49,1.36-1.49h25c.82,0,1.55.67,1.62,1.49h0c.07.82-.54,1.49-1.36,1.49Z"/>
        <path class="cls-19" d="m102.58,132.73h-17.23c-.82,0-1.55-.67-1.62-1.49h0c-.07-.82.54-1.49,1.36-1.49h17.23c.82,0,1.55.67,1.62,1.49h0c.07.82-.54,1.49-1.36,1.49Z"/>
        <polygon class="cls-9" points="103.81 41 97.39 41 96.83 34.58 103.25 34.58 103.81 41"/>
        <polygon class="cls-9" points="44.65 41 26.3 41 25.74 34.58 44.09 34.58 44.65 41"/>
        <polygon class="cls-9" points="108.03 89.16 30.52 89.16 26.99 48.8 104.49 48.8 108.03 89.16"/>
        <polygon class="cls-9" points="79.33 133.39 34.39 133.39 31 94.66 75.94 94.66 79.33 133.39"/>
        <polygon class="cls-9" points="91.62 103.49 81.3 103.49 80.53 94.66 90.85 94.66 91.62 103.49"/>
        <path class="cls-9" d="m106.02,97.64h-11.29c-.82,0-1.55-.67-1.62-1.49h0c-.07-.82.54-1.49,1.36-1.49h11.29c.82,0,1.55.67,1.62,1.49h0c.07.82-.54,1.49-1.36,1.49Z"/>
        <path class="cls-9" d="m107.79,103.49h-12.56c-.82,0-1.55-.67-1.62-1.49h0c-.07-.82.54-1.49,1.36-1.49h12.56c.82,0,1.55.67,1.62,1.49h0c.07.82-.54,1.49-1.36,1.49Z"/>
        <path class="cls-9" d="m107.04,109.34h-23.73c-.82,0-1.55-.67-1.62-1.49h0c-.07-.82.54-1.49,1.36-1.49h23.73c.82,0,1.55.67,1.62,1.49h0c.07.82-.54,1.49-1.36,1.49Z"/>
        <path class="cls-9" d="m108.81,115.18h-25c-.82,0-1.55-.67-1.62-1.49h0c-.07-.82.54-1.49,1.36-1.49h25c.82,0,1.55.67,1.62,1.49h0c.07.82-.54,1.49-1.36,1.49Z"/>
        <path class="cls-9" d="m106.11,121.03h-21.78c-.82,0-1.55-.67-1.62-1.49h0c-.07-.82.54-1.49,1.36-1.49h21.79c.82,0,1.55.67,1.62,1.49h0c.07.82-.54,1.49-1.36,1.49Z"/>
        <path class="cls-9" d="m109.84,126.88h-25c-.82,0-1.55-.67-1.62-1.49h0c-.07-.82.54-1.49,1.36-1.49h25c.82,0,1.55.67,1.62,1.49h0c.07.82-.54,1.49-1.36,1.49Z"/>
        <path class="cls-9" d="m102.58,132.73h-17.23c-.82,0-1.55-.67-1.62-1.49h0c-.07-.82.54-1.49,1.36-1.49h17.23c.82,0,1.55.67,1.62,1.49h0c.07.82-.54,1.49-1.36,1.49Z"/>
      </g>
    </g>
  </g>
  <g id="Check">
    <g>
      <path class="cls-19" d="m185.04,196.85h-18.8c-2.65,0-5-2.16-5.24-4.81l-1.64-18.8c-.12-1.33.3-2.59,1.17-3.54.87-.95,2.08-1.47,3.4-1.47h18.8c2.66,0,5,2.16,5.24,4.81l1.64,18.8c.12,1.33-.3,2.59-1.17,3.54-.87.95-2.08,1.47-3.4,1.47Zm-21.11-26.37c-.69,0-1.31.26-1.75.74-.44.48-.65,1.13-.59,1.82l1.64,18.8c.13,1.52,1.48,2.76,2.99,2.76h18.8c.69,0,1.31-.26,1.75-.74.44-.48.65-1.13.59-1.82l-1.64-18.8c-.13-1.52-1.48-2.76-2.99-2.76h-18.8Z"/>
      <g class="cls-1">
        <path class="cls-14" d="m185.04,196.85h-18.8c-2.65,0-5-2.16-5.24-4.81l-1.64-18.8c-.12-1.33.3-2.59,1.17-3.54.87-.95,2.08-1.47,3.4-1.47h18.8c2.66,0,5,2.16,5.24,4.81l1.64,18.8c.12,1.33-.3,2.59-1.17,3.54-.87.95-2.08,1.47-3.4,1.47Zm-21.11-26.37c-.69,0-1.31.26-1.75.74-.44.48-.65,1.13-.59,1.82l1.64,18.8c.13,1.52,1.48,2.76,2.99,2.76h18.8c.69,0,1.31-.26,1.75-.74.44-.48.65-1.13.59-1.82l-1.64-18.8c-.13-1.52-1.48-2.76-2.99-2.76h-18.8Z"/>
      </g>
      <path class="cls-10" d="m170.59,190.37l-14.35-13.2c-1.01-.93-1.07-2.49-.15-3.5h0c.93-1.01,2.49-1.07,3.5-.15l10.69,9.83,20.73-22.72c.92-1.01,2.49-1.08,3.5-.16h0c1.01.92,1.08,2.49.16,3.5l-24.08,26.39Z"/>
    </g>
    <g>
      <path class="cls-19" d="m83.55,89.46h-16.92c-2.39,0-4.5-1.94-4.71-4.33l-1.48-16.92c-.1-1.2.27-2.33,1.05-3.19.78-.85,1.87-1.32,3.06-1.32h16.92c2.39,0,4.5,1.94,4.71,4.33l1.48,16.92c.11,1.2-.27,2.33-1.05,3.18-.78.85-1.87,1.32-3.06,1.32Zm-19-23.73c-.62,0-1.18.24-1.57.66-.4.43-.58,1.01-.53,1.64l1.48,16.92c.12,1.37,1.33,2.48,2.7,2.48h16.92c.62,0,1.18-.24,1.57-.66.4-.43.58-1.01.53-1.64l-1.48-16.92c-.12-1.37-1.33-2.48-2.7-2.48h-16.92Z"/>
      <g class="cls-1">
        <path class="cls-14" d="m83.55,89.46h-16.92c-2.39,0-4.5-1.94-4.71-4.33l-1.48-16.92c-.1-1.2.27-2.33,1.05-3.19.78-.85,1.87-1.32,3.06-1.32h16.92c2.39,0,4.5,1.94,4.71,4.33l1.48,16.92c.11,1.2-.27,2.33-1.05,3.18-.78.85-1.87,1.32-3.06,1.32Zm-19-23.73c-.62,0-1.18.24-1.57.66-.4.43-.58,1.01-.53,1.64l1.48,16.92c.12,1.37,1.33,2.48,2.7,2.48h16.92c.62,0,1.18-.24,1.57-.66.4-.43.58-1.01.53-1.64l-1.48-16.92c-.12-1.37-1.33-2.48-2.7-2.48h-16.92Z"/>
      </g>
      <path class="cls-10" d="m70.54,83.63l-12.92-11.88c-.91-.83-.96-2.24-.13-3.15h0c.83-.91,2.24-.97,3.15-.13l9.62,8.85,18.65-20.44c.83-.91,2.24-.97,3.15-.14h0c.91.83.97,2.24.14,3.15l-21.67,23.75Z"/>
    </g>
    <g>
      <path class="cls-19" d="m89.39,258.77h-18.8c-2.65,0-5-2.16-5.24-4.81l-1.64-18.8c-.12-1.33.3-2.59,1.17-3.54.87-.95,2.08-1.47,3.4-1.47h18.8c2.66,0,5,2.16,5.24,4.81l1.64,18.8c.12,1.33-.3,2.59-1.17,3.54-.87.95-2.08,1.47-3.4,1.47Zm-21.11-26.37c-.69,0-1.31.26-1.75.74-.44.48-.65,1.13-.59,1.82l1.64,18.8c.13,1.52,1.48,2.76,2.99,2.76h18.8c.69,0,1.31-.26,1.75-.74.44-.48.65-1.13.59-1.82l-1.64-18.8c-.13-1.52-1.48-2.76-2.99-2.76h-18.8Z"/>
      <g class="cls-1">
        <path class="cls-14" d="m89.39,258.77h-18.8c-2.65,0-5-2.16-5.24-4.81l-1.64-18.8c-.12-1.33.3-2.59,1.17-3.54.87-.95,2.08-1.47,3.4-1.47h18.8c2.66,0,5,2.16,5.24,4.81l1.64,18.8c.12,1.33-.3,2.59-1.17,3.54-.87.95-2.08,1.47-3.4,1.47Zm-21.11-26.37c-.69,0-1.31.26-1.75.74-.44.48-.65,1.13-.59,1.82l1.64,18.8c.13,1.52,1.48,2.76,2.99,2.76h18.8c.69,0,1.31-.26,1.75-.74.44-.48.65-1.13.59-1.82l-1.64-18.8c-.13-1.52-1.48-2.76-2.99-2.76h-18.8Z"/>
      </g>
      <path class="cls-10" d="m74.94,252.29l-14.35-13.2c-1.01-.93-1.07-2.49-.15-3.5h0c.93-1.01,2.49-1.07,3.5-.15l10.69,9.83,20.73-22.72c.92-1.01,2.49-1.08,3.5-.16h0c1.01.92,1.08,2.49.16,3.5l-24.08,26.39Z"/>
    </g>
    <g>
      <path class="cls-19" d="m173.57,64.58h-16.92c-2.39,0-4.5-1.94-4.71-4.33l-1.48-16.92c-.1-1.2.27-2.33,1.05-3.19.78-.85,1.87-1.32,3.06-1.32h16.92c2.39,0,4.5,1.94,4.71,4.33l1.48,16.92c.11,1.2-.27,2.33-1.05,3.18-.78.85-1.87,1.32-3.06,1.32Zm-19-23.73c-.62,0-1.18.24-1.57.66-.4.43-.58,1.01-.53,1.64l1.48,16.92c.12,1.37,1.33,2.48,2.69,2.48h16.92c.62,0,1.18-.24,1.57-.66.4-.43.58-1.01.53-1.64l-1.48-16.92c-.12-1.37-1.33-2.48-2.69-2.48h-16.92Z"/>
      <g class="cls-1">
        <path class="cls-14" d="m173.57,64.58h-16.92c-2.39,0-4.5-1.94-4.71-4.33l-1.48-16.92c-.1-1.2.27-2.33,1.05-3.19.78-.85,1.87-1.32,3.06-1.32h16.92c2.39,0,4.5,1.94,4.71,4.33l1.48,16.92c.11,1.2-.27,2.33-1.05,3.18-.78.85-1.87,1.32-3.06,1.32Zm-19-23.73c-.62,0-1.18.24-1.57.66-.4.43-.58,1.01-.53,1.64l1.48,16.92c.12,1.37,1.33,2.48,2.69,2.48h16.92c.62,0,1.18-.24,1.57-.66.4-.43.58-1.01.53-1.64l-1.48-16.92c-.12-1.37-1.33-2.48-2.69-2.48h-16.92Z"/>
      </g>
      <path class="cls-10" d="m160.57,58.75l-12.92-11.88c-.91-.83-.96-2.24-.13-3.15h0c.83-.91,2.24-.96,3.15-.13l9.62,8.85,18.65-20.44c.83-.91,2.24-.97,3.15-.14h0c.91.83.97,2.24.14,3.15l-21.67,23.75Z"/>
    </g>
  </g>
  <g id="Character">
    <g id="Chair">
      <g>
        <path class="cls-19" d="m317.53,218.78h11.86c6.2,0,11.44-4.84,11.93-11.03l2.16-27.36-4.5-.35-2.16,27.36c-.3,3.85-3.57,6.87-7.43,6.87h-11.86v4.51Z"/>
        <path class="cls-16" d="m317.53,218.78h11.86c6.2,0,11.44-4.84,11.93-11.03l2.16-27.36-4.5-.35-2.16,27.36c-.3,3.85-3.57,6.87-7.43,6.87h-11.86v4.51Z"/>
        <path class="cls-20" d="m334.01,212.64l-.71,3.22c-.21.98-.66,1.85-1.24,2.6-.86.2-1.76.32-2.68.32h-11.86v-4.51h11.86c1.73,0,3.34-.61,4.62-1.63Z"/>
        <g>
          <path class="cls-10" d="m323.52,183.31c-2.85-.29-4.92-2.84-4.63-5.68l3.59-35.02c.29-2.85,2.84-4.92,5.68-4.63h34.3c1.9.19,3.28,1.89,3.09,3.79l-3.94,38.45c-.19,1.9-1.89,3.28-3.79,3.09h-34.3Z"/>
          <path class="cls-21" d="m323.52,183.31c-2.85-.29-4.92-2.84-4.63-5.68l3.59-35.02c.29-2.85,2.84-4.92,5.68-4.63h34.3c1.9.19,3.28,1.89,3.09,3.79l-3.94,38.45c-.19,1.9-1.89,3.28-3.79,3.09h-34.3Z"/>
          <path class="cls-10" d="m361.61,180.22l3.94-38.45c.19-1.9-1.19-3.6-3.09-3.79h0c-2.85-.29-5.39,1.78-5.68,4.63l-3.59,35.02c-.29,2.85,1.78,5.39,4.63,5.68h0c1.9.19,3.6-1.19,3.79-3.09Z"/>
        </g>
        <path class="cls-19" d="m322.82,285.08l-.31-.93c-.39-1.19-1.51-2-2.76-2h-32.07c-1.37,0-2.55.95-2.84,2.28l-.08.37c-.28,1.29-1.43,2.21-2.75,2.21h0c-1.8,0-3.14-1.67-2.75-3.43l.08-.37c.86-3.92,4.34-6.71,8.35-6.71h32.07c3.69,0,6.96,2.37,8.12,5.87l.31.93c.6,1.83-.76,3.71-2.68,3.71h0c-1.22,0-2.3-.78-2.68-1.94Z"/>
        <path class="cls-16" d="m322.82,285.08l-.31-.93c-.39-1.19-1.51-2-2.76-2h-32.07c-1.37,0-2.55.95-2.84,2.28l-.08.37c-.28,1.29-1.43,2.21-2.75,2.21h0c-1.8,0-3.14-1.67-2.75-3.43l.08-.37c.86-3.92,4.34-6.71,8.35-6.71h32.07c3.69,0,6.96,2.37,8.12,5.87l.31.93c.6,1.83-.76,3.71-2.68,3.71h0c-1.22,0-2.3-.78-2.68-1.94Z"/>
        <rect class="cls-20" x="299.01" y="276.51" width="9.92" height="5.64"/>
        <path class="cls-19" d="m303.97,286.38h0c1.56,0,2.82-1.26,2.82-2.82v-74.96h-5.64v74.96c0,1.56,1.26,2.82,2.82,2.82Z"/>
        <path class="cls-16" d="m303.97,286.38h0c1.56,0,2.82-1.26,2.82-2.82v-74.96h-5.64v74.96c0,1.56,1.26,2.82,2.82,2.82Z"/>
        <path class="cls-18" d="m300.02,291.5c0,2.18,1.77,3.95,3.95,3.95s3.95-1.77,3.95-3.95-1.77-3.95-3.95-3.95-3.95,1.77-3.95,3.95Z"/>
        <path class="cls-18" d="m324.37,291.5c0,2.18,1.77,3.95,3.95,3.95s3.95-1.77,3.95-3.95-1.77-3.95-3.95-3.95-3.95,1.77-3.95,3.95Z"/>
        <path class="cls-18" d="m275.23,291.5c0,2.18,1.77,3.95,3.95,3.95s3.95-1.77,3.95-3.95-1.77-3.95-3.95-3.95-3.95,1.77-3.95,3.95Z"/>
        <rect class="cls-20" x="301.15" y="212.96" width="5.64" height="13.34"/>
        <path class="cls-19" d="m285.66,219.38h37.2c3.12,0,5.82-2.17,6.49-5.22l1.11-5.04h-52.99l1.88,5.69c.9,2.72,3.44,4.56,6.31,4.56Z"/>
        <path class="cls-16" d="m285.66,219.38h37.2c3.12,0,5.82-2.17,6.49-5.22l1.11-5.04h-52.99l1.88,5.69c.9,2.72,3.44,4.56,6.31,4.56Z"/>
        <path class="cls-10" d="m271.63,204.03h57.9c1.83,0,3.31,1.49,3.31,3.31v.76c0,2.74-2.23,4.97-4.97,4.97h-54.6c-2.74,0-4.97-2.23-4.97-4.97v-.76c0-1.83,1.49-3.31,3.31-3.31Z" transform="translate(601.17 417.1) rotate(-180)"/>
        <path class="cls-21" d="m271.63,204.03h57.9c1.83,0,3.31,1.49,3.31,3.31v.76c0,2.74-2.23,4.97-4.97,4.97h-54.6c-2.74,0-4.97-2.23-4.97-4.97v-.76c0-1.83,1.49-3.31,3.31-3.31Z" transform="translate(601.17 417.1) rotate(-180)"/>
        <path class="cls-10" d="m305.48,204.03h35.34c1.83,0,3.31,1.49,3.31,3.31v.76c0,2.74-2.23,4.97-4.97,4.97h-32.03c-2.74,0-4.97-2.23-4.97-4.97v-.76c0-1.83,1.49-3.31,3.31-3.31Z" transform="translate(646.3 417.1) rotate(180)"/>
      </g>
    </g>
    <g>
      <polygon class="cls-11" points="248.87 269.11 245.54 285.15 238.45 284.2 239.91 267.55 248.87 269.11"/>
      <g>
        <path class="cls-18" d="m237.96,283.38l8.61.6c.3.01.54.27.53.57h0l-.05,6.93c-.05.75-.69,1.33-1.43,1.28-3-.26-4.42-.54-8.21-.83-3.38-.12-6.74-.48-10.07-1.08-3.19-.74-2.34-3.87-.94-3.84,3.62-.2,7.14-1.35,10.19-3.33.41-.25.89-.36,1.36-.31Z"/>
        <path class="cls-18" d="m233.74,284.03c-.24-.28-.3-.68-.15-1.02.06-.23.22-.41.45-.49.97-.3,3.04,1.35,3.27,1.54.04.05.06.12.05.19-.02.07-.08.12-.15.13-.68.12-1.37.16-2.06.13-.51.02-1.02-.16-1.41-.48Zm.4-1.13c-.11.04-.19.13-.22.24-.09.22-.05.47.09.66.34.39,1.34.5,2.73.32-.85-.64-2.08-1.38-2.59-1.22h0Z"/>
        <path class="cls-18" d="m237.07,284.37c-.72-.51-1.75-2.21-1.53-3.05.1-.3.38-.51.69-.5.28-.02.55.09.74.3.71.82.38,3.06.38,3.14-.02.06-.06.1-.11.13-.02.01-.05.01-.07,0-.04,0-.08,0-.11-.02Zm-.83-3.15c-.26.01-.35.13-.35.24.07.93.47,1.8,1.14,2.45.16-.84.04-1.72-.33-2.49-.09-.12-.23-.19-.37-.19h-.08Z"/>
      </g>
      <polygon class="cls-20" points="239.91 267.55 248.87 269.11 247.19 277.21 239.13 276.38 239.91 267.55"/>
      <path class="cls-19" d="m308.57,163.93s-.92,14.99-4.93,15.69c-4.01.7-54.91,11.08-58.57,23.08s-6.69,71.84-6.69,71.84l10.19.92s14-50.76,13.33-64.26c0,0,44.5,0,59.33-8.17,14.83-8.17,7.7-37.32,7.7-37.32l-20.37-1.79Z"/>
      <path class="cls-7" d="m308.57,163.93s-.92,14.99-4.93,15.69c-4.01.7-54.91,11.08-58.57,23.08s-6.69,71.84-6.69,71.84l10.19.92s14-50.76,13.33-64.26c0,0,44.5,0,59.33-8.17,14.83-8.17,7.7-37.32,7.7-37.32l-20.37-1.79Z"/>
      <path class="cls-20" d="m263.16,211.19c1.86-.02,5.68-.08,10.55-.28l6.39-4.94,37.5-7.56,1.42-12.07s-36.92,2.57-46.82,8.07c-7.42,4.12-8.81,12.73-9.04,16.79Z"/>
      <polygon class="cls-11" points="272.73 272.26 269.43 288.56 262.31 287.84 263.73 271.02 272.73 272.26"/>
      <g>
        <path class="cls-18" d="m261.69,285.75l8.57.94c.3.02.52.28.51.58h0l-.31,6.93c-.05.75-.7,1.32-1.44,1.27,0,0-.02,0-.02,0-2.99-.38-4.37-.71-8.17-1.15-3.37-.22-6.72-.69-10.02-1.4-3.11-.86-2.19-3.95-.8-3.86,3.3.18,8-1.49,10.35-2.96.4-.26.87-.38,1.34-.34Z"/>
        <path class="cls-18" d="m257.5,286.27c-.25-.3-.3-.72-.13-1.07.06-.22.24-.4.46-.47.99-.22,2.99,1.47,3.21,1.67.04.06.05.13.02.19-.02.07-.08.12-.16.12-.69.1-1.38.12-2.07.06-.49,0-.96-.19-1.34-.51Zm.36-1.14c-.11.03-.19.11-.22.22-.1.22-.07.47.08.66.32.39,1.32.54,2.72.42-.83-.67-2.03-1.46-2.56-1.31h-.02Z"/>
        <path class="cls-18" d="m260.79,286.65c-.74-.51-1.7-2.25-1.44-3.08.1-.31.39-.51.71-.48.28,0,.54.12.73.33.69.84.26,3.08.26,3.15-.02.06-.06.11-.11.13-.02.01-.04.01-.06,0-.04,0-.07-.03-.08-.07Zm-.73-3.1c-.26,0-.38.12-.37.23.04.93.42,1.81,1.06,2.48.18-.84.1-1.72-.24-2.51-.09-.11-.22-.19-.37-.2h-.09Z"/>
      </g>
      <polygon class="cls-20" points="272.6 272.9 271.3 279.32 263.16 277.82 263.73 271.04 272.6 272.9"/>
      <path class="cls-11" d="m324.01,116.42c-8.13-1.07-1.8-3.78-1.8-3.78,5.51-1.03,5.85-5,5.36-8.77l10.11-7.39c-1.52,4.75-3.51,13.48-.53,16.83,0,0,2.05,4.32-10.62,3.36l-2.52-.25Z"/>
      <path class="cls-20" d="m333.56,99.49l-5.98,4.37c.12.89.19,1.79.14,2.66,2.08-.2,5.16-2.32,5.64-4.44.24-1.06.31-2.09.2-2.59Z"/>
      <path class="cls-11" d="m342.22,87.01c-1.81,7.7-2.41,10.98-7,14.5-6.91,5.3-15.93,1.93-16.45-6.03-.47-7.16,2.57-18.54,10.68-20.74,7.99-2.17,14.58,4.57,12.78,12.26Z"/>
      <path class="cls-19" d="m329.87,87.75c-.12.65-.56,1.14-.98,1.09-.42-.05-.66-.62-.53-1.27.12-.65.56-1.14.98-1.09.42.05.66.62.53,1.27Z"/>
      <path class="cls-19" d="m321.96,86.93c-.12.65-.56,1.14-.98,1.09-.42-.05-.66-.62-.53-1.27.12-.65.56-1.14.98-1.09.42.05.66.62.53,1.27Z"/>
      <path class="cls-19" d="m321.6,85.72l-1.45-.64s.56,1.32,1.45.64Z"/>
      <path class="cls-13" d="m323.95,88.26s-1.62,2.68-3.08,3.89c.69.9,2.2.71,2.2.71l.87-4.6Z"/>
      <path class="cls-19" d="m326.31,95.71c-.34.02-.71.01-1.09-.03-.1-.01-.17-.11-.15-.21.02-.11.12-.18.22-.17,2.81.34,4.51-1.51,4.52-1.53.07-.08.2-.09.27-.03.08.07.08.19,0,.27-.07.07-1.43,1.56-3.78,1.7Z"/>
      <path class="cls-19" d="m332.24,84.32c-.1,0-.2-.05-.26-.13-1.04-1.28-2.45-1.08-2.47-1.08-.21.03-.4-.11-.41-.32-.02-.21.14-.41.35-.44.07-.01,1.84-.26,3.14,1.32.13.16.1.4-.07.54-.08.07-.18.1-.27.1Z"/>
      <path class="cls-19" d="m320.35,83.08c-.1,0-.19-.03-.26-.1-.15-.14-.14-.38.01-.54,1.54-1.58,3.28-1.33,3.35-1.32.21.03.34.23.29.44-.05.21-.25.35-.46.32-.07-.01-1.42-.19-2.64,1.07-.08.08-.18.12-.28.13Z"/>
      <path class="cls-19" d="m329.51,86.54l-1.45-.64s.56,1.32,1.45.64Z"/>
      <g>
        <path class="cls-11" d="m275.69,151.5l.44-.03c.85-.06,1.96-.09,2.92-.2.99-.11,1.97-.24,2.9-.42,1.87-.35,3.6-.87,4.99-1.57.7-.35,1.32-.72,1.85-1.15.27-.21.51-.43.74-.66.12-.11.23-.22.33-.34l.39-.43,2.02-2.18,1.97-2.22c2.59-2.98,5.04-6.06,7.38-9.2,1.17-1.57,2.3-3.16,3.41-4.75.55-.8,1.09-1.6,1.61-2.4.5-.79,1.07-1.64,1.48-2.32l.07-.12c1.45-2.38,4.83-3.34,7.62-2.14,2.84,1.22,4.01,4.22,2.6,6.7-.6,1.05-1.1,1.91-1.7,2.82-.58.89-1.16,1.77-1.76,2.64-1.19,1.75-2.45,3.45-3.77,5.11-2.63,3.33-5.46,6.54-8.49,9.61-1.51,1.54-3.1,3.02-4.7,4.48-.17.16-.46.41-.75.64-.28.24-.57.46-.88.67-.59.44-1.23.82-1.88,1.16-1.3.69-2.66,1.23-4.03,1.62-2.75.76-5.48.97-8.06.84-1.29-.07-2.56-.2-3.79-.45-1.26-.24-2.38-.49-3.72-.93-1-.33-1.75-1.14-1.83-2.13-.12-1.37,1.05-2.57,2.62-2.67Z"/>
        <path class="cls-18" d="m311.87,117.02s-2.3-.04-11.02,14.9c0,0,3.57,8.72,12.86,9.17,0,0,18.17-25.07-1.84-24.07Z"/>
        <path class="cls-5" d="m309.33,121.71l4.82-1.15,5.66,2.98,1.12,2.82c-1.46,6.77-7.23,14.73-7.23,14.73-4.34-.21-7.42-2.22-9.48-4.31,2.9-6.11,5.1-15.07,5.1-15.07Z"/>
        <path class="cls-11" d="m266.96,149.98l2.64-1.29c.99-.48,2.2-.52,3.23-.1l4.82,1.98c1.93.79,3.29,2.34,3.67,4.17l.23,1.13c-4.22,2.4-10.8,2.29-10.8,2.29l-1.88.15c-1.68.13-3.1-.85-3.27-2.26l-.39-3.24c-.13-1.12.56-2.24,1.76-2.83Z"/>
      </g>
      <path class="cls-19" d="m317.65,163.93s1.08,22.99-2.93,23.69c-4.01.7-40.91,4.08-44.57,16.08s-7.69,71.84-7.69,71.84l10.19,1.92s16-52.76,15.33-66.26c0,0,40.61,1.2,49.33-7.17,8.77-8.42,6.7-38.32,6.7-38.32l-26.37-1.79Z"/>
      <path class="cls-7" d="m317.65,163.93s1.08,22.99-2.93,23.69c-4.01.7-40.91,4.08-44.57,16.08s-7.69,71.84-7.69,71.84l10.19,1.92s16-52.76,15.33-66.26c0,0,40.61,1.2,49.33-7.17,8.77-8.42,6.7-38.32,6.7-38.32l-26.37-1.79Z"/>
      <path class="cls-18" d="m324.11,112.5c-.27.17-6.72,4.36,1.69,4.36s11.07-3.65,11.13-3.74c3.03.44,6.38,1.09,10.11,2.01l-2.74,56.34s-23.61,2.13-36.81-3.82c0,0-1.68-41.46,2.24-48.01,0,0,1.95-6.17,14.38-7.14Z"/>
      <path class="cls-5" d="m346.5,125.53l-1.15,21.91c-4.7-15.59-4.55-23.64-4.55-23.64l1.25-2.94,4.45,4.67Z"/>
      <g>
        <path class="cls-11" d="m373.91,129.18c-.96-.2-1.94.26-2.49,1.06l-.04.05c-1.17,1.72-2.35,3.51-3.58,5.2-1.21,1.71-2.44,3.4-3.71,4.98-.81,1.03-1.67,2.03-2.51,2.91-.56.59-1.55.42-1.9-.31-1.3-2.71-2.51-5.51-3.66-8.34-.82-2.08-1.64-4.18-2.41-6.29-.79-2.08-1.53-4.28-2.22-6.29l-.04-.11c-.93-2.67-3.92-4.09-6.63-2.98-2.39.98-3.57,3.71-2.84,6.19.69,2.35,1.48,4.49,2.28,6.71.85,2.24,1.76,4.46,2.75,6.65.97,2.2,2.05,4.37,3.18,6.51,1.13,2.15,2.39,4.25,3.73,6.33l.17.26c.12.18.25.35.41.5.48.47,1.02.94,1.76,1.33.71.39,1.58.66,2.4.73,1.7.17,2.97-.31,3.9-.75,1.81-.94,2.78-1.97,3.71-2.95,1.77-1.96,2.99-3.94,4.16-5.92,1.14-1.99,2.14-3.99,3.05-6.02.89-2.05,1.73-4.06,2.46-6.21.45-1.34-.28-2.92-1.93-3.27Z"/>
        <path class="cls-18" d="m360.8,135s-5.65,6.3-15.45,6.33c0,0-10.1-23.88-1.3-26.37,8.33-2.35,16.75,20.04,16.75,20.04Z"/>
        <path class="cls-11" d="m372.3,121.87l-1.94,1.79c-.73.67-1.09,1.66-.97,2.64l.58,4.6c.23,1.84,1.34,3.45,2.97,4.33l1.01.54c3.42-2.74,5.1-8.23,5.1-8.23l.65-1.51c.58-1.35.03-2.83-1.26-3.41l-2.98-1.33c-1.03-.46-2.29-.23-3.16.58Z"/>
      </g>
      <g>
        <path class="cls-10" d="m325.31,180.71l-56.57,5.31c-.85.08-1.47.83-1.39,1.68.08.85.83,1.47,1.68,1.39l56.57-5.31c.85-.08,1.47-.83,1.39-1.68-.08-.85-.83-1.47-1.68-1.39Z"/>
        <path class="cls-10" d="m269.77,188.07l26.15-2.45c.5-.05.81-.57.6-1.03l-13.37-29.13c-.37-.8-1.2-1.28-2.08-1.2l-26.15,2.45c-.5.05-.81.57-.6,1.03l13.37,29.13c.37.8,1.2,1.28,2.08,1.2Z"/>
        <path class="cls-10" d="m268.85,188.15l26.15-2.45c.5-.05.81-.57.6-1.03l-13.37-29.13c-.37-.8-1.2-1.28-2.08-1.2l-26.15,2.45c-.5.05-.81.57-.6,1.03l13.37,29.13c.37.8,1.2,1.28,2.08,1.2Z"/>
        <path class="cls-8" d="m268.85,188.15l26.15-2.45c.5-.05.81-.57.6-1.03l-13.37-29.13c-.37-.8-1.2-1.28-2.08-1.2l-26.15,2.45c-.5.05-.81.57-.6,1.03l13.37,29.13c.37.8,1.2,1.28,2.08,1.2Z"/>
        <path class="cls-8" d="m298.49,186.32c-.85.08-1.6-.54-1.68-1.39-.08-.85.54-1.6,1.39-1.68l27.11-2.54c.85-.08,1.6.54,1.68,1.39.08.85-.54,1.6-1.39,1.68l-27.11,2.54Z"/>
        <g>
          <rect class="cls-5" x="302.93" y="183.89" width="2.2" height=".72" transform="translate(623.95 339.29) rotate(174.64)"/>
          <rect class="cls-5" x="299.56" y="184.21" width="2.2" height=".72" transform="translate(617.26 340.24) rotate(174.64)"/>
        </g>
      </g>
      <path class="cls-18" d="m339.82,92.88s-5.55-4.27-2.7-11.78c0,0-3.07-1.49-6.52-1.49-4.97,0-10.72,1.07-9.18-2.76,0,0-5.31-6.75,3.72-7.71,0,0-.46-8.51,6.84-3,0,0,6.07-7.22,9.09,2.56,0,0,9.13-4.77,6.75,6.98,0,0,6.46.12,2.39,7.64,0,0,3.38,4.59-3.34,8.62,0,0,.54,6.55-4.35,5.37,0,0-5.61,7.86-6.37,4.2-.71-3.4,3.67-8.64,3.67-8.64Z"/>
      <path class="cls-11" d="m342.63,94.53c-.87,1.56-2.22,2.48-3.43,2.74-1.83.4-2.52-1.71-1.82-3.75.62-1.84,2.33-4.26,4.07-3.73,1.72.52,2.17,2.96,1.18,4.73Z"/>
      <g>
        <polygon class="cls-10" points="338.73 96.48 336.82 99.95 341.16 99.95 339.25 96.48 338.73 96.48"/>
        <polygon class="cls-20" points="338.73 96.48 336.82 99.95 341.16 99.95 339.25 96.48 338.73 96.48"/>
        <polygon class="cls-10" points="336.82 99.95 338.73 96.48 340.64 99.95 336.82 99.95"/>
      </g>
      <polygon class="cls-18" points="237.71 274.98 248.85 276.15 249.73 272.98 237.71 271.65 237.71 274.98"/>
      <polygon class="cls-18" points="261.9 276.15 272.95 278.03 274.02 274.93 262.11 272.83 261.9 276.15"/>
    </g>
  </g>
  <g id="Target">
    <g>
      <g>
        <path class="cls-18" d="m250.22,108.91c-19.17,0-36.13-15.59-37.8-34.76-1.68-19.17,12.55-34.76,31.72-34.76s36.13,15.59,37.8,34.76c1.68,19.17-12.55,34.76-31.72,34.76Z"/>
        <path class="cls-10" d="m251.89,108.07c-19.17,0-36.13-15.59-37.8-34.76-1.68-19.17,12.55-34.76,31.72-34.76s36.13,15.59,37.8,34.76c1.68,19.17-12.55,34.76-31.72,34.76Z"/>
        <g class="cls-3">
          <path class="cls-14" d="m251.89,108.07c-19.17,0-36.13-15.59-37.8-34.76-1.68-19.17,12.55-34.76,31.72-34.76s36.13,15.59,37.8,34.76c1.68,19.17-12.55,34.76-31.72,34.76Z"/>
        </g>
        <path class="cls-10" d="m251.89,108.07c-19.17,0-36.13-15.59-37.8-34.76-1.68-19.17,12.55-34.76,31.72-34.76s36.13,15.59,37.8,34.76c1.68,19.17-12.55,34.76-31.72,34.76Zm-5.5-62.84c-15.48,0-26.97,12.59-25.62,28.07,1.35,15.48,15.05,28.07,30.53,28.07s26.97-12.59,25.62-28.07c-1.35-15.48-15.05-28.07-30.53-28.07Z"/>
        <path class="cls-10" d="m250.77,95.33c-12.14,0-22.89-9.88-23.95-22.02-1.06-12.14,7.95-22.02,20.1-22.02s22.89,9.88,23.95,22.02c1.06,12.14-7.95,22.02-20.1,22.02Zm-3.27-37.36c-8.46,0-14.73,6.88-13.99,15.33.74,8.46,8.22,15.33,16.68,15.33s14.73-6.88,13.99-15.33c-.74-8.46-8.22-15.33-16.68-15.33Z"/>
        <path class="cls-10" d="m257.54,73.31c.42,4.8-3.13,8.7-7.94,8.7s-9.04-3.89-9.46-8.7c-.42-4.8,3.13-8.7,7.94-8.7s9.04,3.89,9.46,8.7Z"/>
      </g>
      <g>
        <polygon class="cls-18" points="273.24 49 271.54 42.39 278.43 35.5 280.13 42.11 273.24 49"/>
        <polygon class="cls-18" points="273.24 49 279.85 50.7 286.74 43.8 280.13 42.11 273.24 49"/>
        <rect class="cls-18" x="261.1" y="40.19" width="1.88" height="40.02" transform="translate(119.32 -167.66) rotate(45)"/>
      </g>
    </g>
  </g>
</svg>