<?xml version="1.0" encoding="UTF-8"?>
<svg id="Layer_2" data-name="Layer 2" xmlns="http://www.w3.org/2000/svg" viewBox="0 0 456.8 427.01">
  <defs>
    <style>
      .cls-1 {
        fill: #004a99;
      }

      .cls-2 {
        fill: #003b7b;
      }

      .cls-3 {
        fill: #007cff;
      }

      .cls-4 {
        fill: #f5f5f5;
      }

      .cls-5 {
        fill: #ff5652;
      }

      .cls-6 {
        fill: #fff;
      }

      .cls-7, .cls-8 {
        fill: #ffc77f;
      }

      .cls-9 {
        fill: #ff8b7b;
      }

      .cls-10 {
        fill: #ff9000;
      }

      .cls-11 {
        fill: #c3cdd0;
      }

      .cls-12 {
        fill: #407bff;
      }

      .cls-13 {
        fill: #375a64;
      }

      .cls-14 {
        fill: #1a2e35;
      }

      .cls-15 {
        fill: #29373c;
      }

      .cls-16 {
        fill: #263238;
      }

      .cls-8 {
        opacity: .3;
      }

      .cls-8, .cls-17, .cls-18 {
        isolation: isolate;
      }

      .cls-17 {
        fill: #ffa633;
        opacity: .6;
      }

      .cls-18 {
        opacity: .2;
      }
    </style>
  </defs>
  <g id="Layer_1-2" data-name="Layer 1">
    <g>
      <path class="cls-4" d="m228.4,427.01c126.14,0,228.4-5.97,228.4-13.34s-102.26-13.34-228.4-13.34S0,406.31,0,413.67s102.26,13.34,228.4,13.34Z"/>
      <path class="cls-11" d="m228.58,350.77H61.3l-9.15-269.06h167.28l9.15,269.06Z"/>
      <path class="cls-13" d="m236.93,342.41H69.65l-9.17-269.06h167.28l9.16,269.06Z"/>
      <path class="cls-10" d="m180.89,184.09c17.91-18.22,17.15-48.02-1.7-66.55-18.85-18.54-48.65-18.79-66.56-.57-17.91,18.22-17.15,48.02,1.7,66.55,18.85,18.54,48.65,18.79,66.56.57Z"/>
      <path class="cls-6" d="m185.59,150.52c.22,6.7-1.26,13.01-4.06,18.5-6.14,12.1-18.68,20.34-33.44,20.34s-27.87-8.24-34.83-20.34c-3.18-5.49-5.09-11.79-5.32-18.5-.73-21.46,16.06-38.85,37.51-38.85s39.43,17.39,40.16,38.85Z"/>
      <path class="cls-7" d="m181.53,169.02c-6.14,12.1-18.68,20.34-33.44,20.34s-27.87-8.24-34.83-20.34c9.55-6.53,21.16-10.34,33.79-10.34s24.49,3.8,34.49,10.34Z"/>
      <path class="cls-7" d="m158.86,149.57c6.59-6.7,6.31-17.66-.62-24.47-6.93-6.82-17.89-6.91-24.48-.21-6.59,6.7-6.31,17.66.62,24.47,6.93,6.82,17.89,6.91,24.48.21Z"/>
      <path class="cls-6" d="m203.32,244.98h-106.7l-.72-21.21h106.7l.72,21.21Z"/>
      <path class="cls-6" d="m204.62,282.88h-106.72l-.72-21.21h106.71l.72,21.21Z"/>
      <path class="cls-10" d="m163.43,264.59l-25.72,3.5c-1.06.14-1.75,1.11-1.55,2.13l3.38,17.24c.2,1.02,1.23,1.76,2.29,1.6l25.72-3.5c1.06-.14,1.75-1.1,1.55-2.13l-3.38-17.24c-.2-1.02-1.24-1.76-2.29-1.6Zm-7.39,17.45l-4.65.64-.47-5.56c-.99-.44-1.71-1.32-1.91-2.36-.33-1.68.81-3.25,2.53-3.48,1.72-.24,3.39.94,3.72,2.63.2,1.04-.14,2.06-.92,2.73l1.7,5.4Z"/>
      <path class="cls-10" d="m160.89,263.66c-.94.13-1.85-.51-2.03-1.43l-.33-1.68c-.91-4.64-5.35-8.15-10.15-7.73-5.14.45-8.58,4.98-7.62,9.89l.38,1.93c.18.92-.44,1.77-1.38,1.88-.94.13-1.85-.51-2.03-1.43l-.32-1.65c-1.27-6.47,2.8-12.69,9.39-13.84,6.93-1.2,13.76,3.46,15.08,10.2l.38,1.93c.19.94-.43,1.79-1.37,1.92Z"/>
      <path class="cls-10" d="m187.01,312.58h-69.47l-.47-13.81h69.47l.47,13.81Z"/>
      <path class="cls-14" d="m153.49,234.37c.07,2.14-1.6,3.88-3.75,3.88s-3.93-1.73-4.01-3.88c-.07-2.15,1.6-3.88,3.75-3.88s3.93,1.73,4.01,3.88Z"/>
      <path class="cls-14" d="m136.79,234.37c.07,2.14-1.6,3.88-3.75,3.88s-3.93-1.73-4.01-3.88c-.07-2.15,1.6-3.88,3.75-3.88s3.93,1.73,4,3.88Z"/>
      <path class="cls-14" d="m120.1,234.37c.07,2.14-1.6,3.88-3.75,3.88s-3.94-1.73-4.01-3.88c-.07-2.15,1.6-3.88,3.75-3.88s3.93,1.73,4,3.88Z"/>
      <path class="cls-14" d="m170.18,234.37c.07,2.14-1.6,3.88-3.75,3.88s-3.93-1.73-4.01-3.88c-.07-2.15,1.6-3.88,3.75-3.88s3.93,1.73,4.01,3.88Z"/>
      <path class="cls-14" d="m186.88,234.37c.07,2.14-1.6,3.88-3.75,3.88s-3.93-1.73-4.01-3.88c-.07-2.15,1.6-3.88,3.75-3.88s3.93,1.73,4.01,3.88Z"/>
      <path class="cls-9" d="m327.47,130.72c1.57,2.51,2.87,4.92,4.22,7.43,1.34,2.49,2.56,5.03,3.75,7.61,2.35,5.16,4.44,10.49,6.01,16.18.21.69.37,1.44.54,2.17l.26,1.1.13.54.15.9c.34,2.39.04,4.35-.36,6.07-.85,3.43-2.2,6.17-3.66,8.79-2.98,5.17-6.46,9.58-10.47,13.75l-4.96-3.76c2.45-4.64,4.86-9.51,6.64-14.18.86-2.32,1.59-4.69,1.8-6.63.11-.96.04-1.78-.1-2.09l-.47-1.44c-.19-.59-.37-1.18-.6-1.78-1.7-4.76-3.85-9.53-6.21-14.23-2.32-4.69-4.89-9.46-7.41-13.93l10.74-6.49Z"/>
      <path class="cls-9" d="m324.33,189.79l-5.41,2.88,6.22,7.28s3.89-2.63,4.05-6.63l-4.87-3.52Z"/>
      <path class="cls-9" d="m311.64,197.16l6.65,5.29,6.83-2.5-6.22-7.28-7.27,4.49Z"/>
      <path class="cls-16" d="m288.88,92.17c-.13.66-.59,1.12-1.01,1.03-.42-.08-.67-.68-.53-1.34.13-.66.59-1.12,1.01-1.03.42.09.66.69.53,1.34Z"/>
      <path class="cls-5" d="m288.35,93.3s-2.26,3.48-4.27,4.97c.94,1.32,3,1.23,3,1.23l1.26-6.2Z"/>
      <path class="cls-9" d="m286.23,116.42l.05-7.72,10.23,1.24s-.18,6.65-5.89,8.59l-4.38-2.11Z"/>
      <path class="cls-9" d="m289.17,103.13l7.2,2.07.13,4.72-10.23-1.24,2.9-5.56Z"/>
      <path class="cls-18" d="m296.37,105.2l-7.2-2.07-1.4,2.69c.18,4.56,2.96,8.31,6.64,9.99,2-2.63,2.09-5.88,2.09-5.88l-.13-4.72Z"/>
      <path class="cls-16" d="m292.01,89.02c.09,0,.19-.04.27-.11.17-.14.17-.4.02-.55-1.47-1.59-3.26-1.31-3.33-1.3-.21.04-.35.24-.32.45.04.21.25.35.45.32.06-.01,1.46-.21,2.64,1.06.07.08.17.13.27.13Z"/>
      <path class="cls-9" d="m307.07,104.09c-1.19,6.07-1.91,14.47,2.33,18.51,0,0-1.66,6.15-12.92,6.15-12.38,0-5.96-5.4-5.96-5.4,5.15-1.6,5.1-7.46,3.92-12.17l12.63-7.09Z"/>
      <path class="cls-3" d="m311.72,126.65c1.11-1.57,1.06-6.5-.12-7.36-1.9-1.4-10.04-1.73-20.99.79,1.18,4.78-1.34,7.28-1.34,7.28l22.45-.71Z"/>
      <path class="cls-12" d="m348.55,406.35c-.84.18-1.66.22-2.06-.12-.17-.14-.34-.41-.19-.91.08-.26.25-.46.51-.58,1.12-.53,3.69.52,3.8.55.07.02.12.1.12.18s-.04.15-.11.18c-.41.2-1.25.52-2.07.7Zm-1.35-1.32c-.08.02-.17.05-.24.07-.15.07-.25.19-.29.33-.11.35.02.46.07.51.45.38,2.1.04,3.26-.43-.79-.27-2.06-.62-2.8-.47Z"/>
      <path class="cls-12" d="m350.56,405.69s-.06,0-.09,0c-.94-.27-2.95-1.7-2.97-2.64,0-.17.06-.48.51-.64.29-.11.58-.08.87.07,1.11.57,1.8,2.86,1.84,2.96.02.07,0,.14-.05.2-.04.01-.07.03-.11.05Zm-2.34-2.93s-.06.01-.08.02c-.25.08-.24.2-.24.26.01.55,1.33,1.67,2.31,2.12-.25-.66-.8-1.97-1.51-2.33-.18-.08-.33-.11-.48-.07Z"/>
      <path class="cls-12" d="m287.36,407.74c-1.06,0-2.08-.14-2.44-.62-.12-.17-.21-.45.01-.86.13-.22.34-.38.62-.46,1.38-.38,4.28,1.27,4.39,1.34.07.04.11.12.09.2-.01.08-.07.14-.15.16-.52.12-1.53.24-2.53.24Zm-1.31-1.6c-.14,0-.27.01-.38.05-.18.05-.31.14-.39.27-.14.25-.08.36-.04.44.39.53,2.49.55,4.02.33-.77-.39-2.25-1.08-3.21-1.08Z"/>
      <path class="cls-12" d="m289.87,407.52s-.06,0-.08-.01c-1-.45-2.98-2.24-2.83-3.18.04-.22.19-.49.73-.55.4-.04.77.07,1.08.34,1.05.86,1.27,3.1,1.28,3.19.01.07-.02.14-.08.18-.02.02-.07.04-.11.04Zm-2.03-3.36s-.08,0-.12.01c-.35.04-.38.18-.38.22-.09.57,1.26,1.97,2.27,2.58-.11-.65-.4-1.99-1.1-2.56-.21-.18-.44-.26-.68-.26Z"/>
      <path class="cls-9" d="m298.98,407.32h-8.28l-.83-19.19h8.28l.82,19.19Z"/>
      <path class="cls-9" d="m359.8,403.49l-8.1,1.76-8.13-17.88,8.1-1.74,8.13,17.87Z"/>
      <path class="cls-16" d="m350.91,404.43l9.09-1.97c.33-.07.67.09.81.4l3.16,6.86c.33.71-.11,1.54-.87,1.7-3.19.64-4.77.78-8.78,1.65-2.46.53-8.02,1.88-11.41,2.63-3.32.72-4.57-2.53-3.24-3.13,5.95-2.72,8.42-5.11,10.04-7.34.29-.41.72-.7,1.2-.79Z"/>
      <path class="cls-16" d="m290.75,406.36h9.05c.34,0,.64.23.71.57l1.64,7.36c.16.77-.41,1.48-1.19,1.47-3.26-.06-7.98-.25-12.09-.25-4.79,0-8.94.26-14.56.26-3.4,0-4.35-3.44-2.92-3.75,6.48-1.41,11.78-1.57,17.38-5.02.6-.38,1.27-.65,1.99-.65Z"/>
      <path class="cls-12" d="m324.24,124.47c7.76,1.78,14.17,21.61,14.17,21.61l-15.6,11.89s-5.73-5.4-8.27-15.32c-2.67-10.39,1.76-20.01,9.7-18.18Z"/>
      <path class="cls-1" d="m324.24,124.47c7.76,1.78,14.17,21.61,14.17,21.61l-15.6,11.89s-5.73-5.4-8.27-15.32c-2.67-10.39,1.76-20.01,9.7-18.18Z"/>
      <path class="cls-9" d="m283.4,148.13c-1.94,2.1-3.88,3.95-5.87,5.87-.99.96-2.02,1.89-3.05,2.8l-1.57,1.37-.39.34c-.19.17-.42.35-.67.55-.52.39-1.08.82-2.27,1.34-.62.25-1.44.57-2.86.59-.67.01-1.59-.11-2.47-.44-.9-.33-1.77-.91-2.36-1.5-1.24-1.24-1.6-2.32-1.85-3.05-.22-.75-.29-1.28-.34-1.75-.07-.92-.02-1.53.02-2.11.06-.57.13-1.06.22-1.52.34-1.82.84-3.29,1.37-4.75.54-1.45,1.13-2.85,1.83-4.25.74-1.5,1.47-2.59,2.19-3.84,2.91-4.87,6.33-9.31,9.96-13.5,3.71-4.16,7.6-7.96,12.07-11.45l4.34,4.46c-3.05,4.08-6.04,8.45-8.81,12.75-2.77,4.34-5.33,8.75-7.54,13.26-.51,1.11-1.13,2.32-1.48,3.25-.41,1.01-.79,2.11-1.11,3.18-.31,1.06-.55,2.17-.67,2.98-.02.2-.04.37-.04.47,0,.1.02.14.01-.11-.01-.14-.02-.34-.15-.76-.14-.41-.36-1.19-1.36-2.19-.48-.47-1.2-.97-1.94-1.23-.72-.28-1.47-.36-1.98-.36-1.1.02-1.58.25-1.9.36-.58.25-.59.32-.59.29l.45-.41,1.41-1.3,2.82-2.64c1.86-1.76,3.74-3.63,5.51-5.37l9.07,8.66Z"/>
      <path class="cls-2" d="m317.59,139.06c4.22,4.17,5.6,11.78,5.92,18.39l-.68.53s-5.72-5.41-8.28-15.32c-.15-.62-.29-1.24-.4-1.85l3.44-1.76Z"/>
      <path class="cls-12" d="m275.17,132.78c-1.7,8.96-2.76,27.33,2.17,63.75h44.32c.31-6.81-3.97-40,2.59-72.06,0,0-7.6-1.52-14.83-1.87-5.67-.27-13.86-.46-18.84,0-2.07.19-4.12.49-5.94.81-4.81.85-8.56,4.58-9.47,9.37Z"/>
      <path class="cls-1" d="m275.17,132.78c-1.7,8.96-2.76,27.33,2.17,63.75h44.32c.31-6.81-3.97-40,2.59-72.06,0,0-7.6-1.52-14.83-1.87-5.67-.27-13.86-.46-18.84,0-2.07.19-4.12.49-5.94.81-4.81.85-8.56,4.58-9.47,9.37Z"/>
      <path class="cls-2" d="m281.95,146.01l-8.01-1.92c-.25,4.85-.27,10.86.09,18.3,3.68-4.19,8.39-10.73,7.92-16.38Z"/>
      <path class="cls-18" d="m289.87,388.14l.42,9.9h8.29l-.42-9.9h-8.29Z"/>
      <path class="cls-18" d="m351.67,385.62l-8.1,1.76,4.19,9.21,8.1-1.76-4.19-9.21Z"/>
      <path class="cls-9" d="m311,95.22c-2.13,7.94-2.97,12.7-7.87,16-7.37,4.97-16.55-.73-16.85-9.15-.26-7.58,3.26-19.3,11.79-20.9,8.4-1.57,15.06,6.11,12.92,14.06Z"/>
      <path class="cls-14" d="m292.41,95.53c-.39-1.06-2.23-9.27-.51-11.41s21.33-.6,24.23,2.25c4.81,4.74,1.47,8.97-3.79,14.41-3.96,4.1-4.11,8.72-6.11,9.4-3.5,1.19-8.93.07-10.02-3.66-1.08-3.74-3.79-10.99-3.79-10.99Z"/>
      <path class="cls-14" d="m313.76,77.04c-6.93-2.96-19.93.32-26.94-1.38-.25,3.64,1.94,9.46,8.96,11.03,0,0,9.97,1.94,17.67,1.63,7.7-.31,6.2-8.77.31-11.28Z"/>
      <path class="cls-16" d="m314.84,86.63s4.29.48,7.33-1.4c1.31,3.12-5.82,3.98-7.33,1.4Z"/>
      <path class="cls-9" d="m296.18,95.86c-.13,2.16-1.13,4.17-2.33,5.5-1.8,1.99-3.69.75-4.02-1.67-.28-2.18.31-5.84,2.51-6.94,2.19-1.1,3.99.65,3.84,3.11Z"/>
      <path class="cls-14" d="m293.05,196.53s9.4,63.33,14.56,87.05c5.65,25.98,35.96,111.94,35.96,111.94l14.83-3.22s-21.19-70.05-25.94-106.38c-3.64-27.9-10.83-89.41-10.83-89.41h-28.59Z"/>
      <path class="cls-16" d="m340.03,390.58c-.06.01,2.77,5.36,2.77,5.36l16.69-3.62-1.4-5.02-18.06,3.28Z"/>
      <path class="cls-15" d="m299,219.09c10.87,2.13,9.72,42.69,8.41,63.54-3.13-14.74-7.73-43.11-10.86-63.25.72-.37,1.53-.47,2.45-.29Z"/>
      <path class="cls-14" d="m277.32,196.53s-1.14,61.96-.24,87.23c.94,26.29,10.12,112.35,10.12,112.35h14.04s.52-84.54,1.14-110.35c.68-28.15,4.08-89.24,4.08-89.24h-29.14Z"/>
      <path class="cls-16" d="m284.51,390.52c-.06,0,.79,5.83.79,5.83h17.07l.46-5.2-18.32-.64Z"/>
      <path class="cls-12" d="m292.53,135.5c3.97,10.71-19.37,23.33-19.37,23.33l-10.11-13s6.74-13.42,15.02-19.46c10.21-7.48,11.43.98,14.45,9.13Z"/>
      <path class="cls-1" d="m292.53,135.5c3.97,10.71-19.37,23.33-19.37,23.33l-10.11-13s6.74-13.42,15.02-19.46c10.21-7.48,11.43.98,14.45,9.13Z"/>
      <path class="cls-10" d="m383.97,54.2c23.48,0,42.51-12.13,42.51-27.1S407.45,0,383.97,0s-42.51,12.13-42.51,27.1,19.03,27.1,42.51,27.1Z"/>
      <path class="cls-6" d="m368.63,40.74c-2.36,0-4.67-.71-6.67-2.07-2.69-1.83-4.47-4.61-5.03-7.81-1.06-6.14,3.01-12.24,9.08-13.63,4.99-1.13,10.07,1,12.75,5.33l27.29-5.63c2.21-.46,4.45.86,5.01,2.95.29,1.11.12,2.25-.48,3.22-.6.97-1.54,1.63-2.66,1.86l-.72.15c-.21.05-.39.18-.49.37-.11.19-.12.41-.05.61l.48,1.25c.33.85.02,1.8-.73,2.26-.58.37-.98.99-1.06,1.66-.1.84-.65,1.47-1.41,1.64l-.57.12c-.77.15-1.53-.21-1.94-.94-.49-.85-1.47-1.28-2.44-1.08-.97.2-1.7.99-1.81,1.97-.09.84-.66,1.47-1.43,1.64l-.55.12c-.75.15-1.53-.21-1.94-.94-.34-.59-.95-1.01-1.64-1.11-.87-.13-1.53-.88-1.57-1.79l-.06-1.34c-.01-.21-.11-.41-.28-.54-.16-.13-.38-.19-.6-.14l-8.69,1.79c-.74,4.92-4.45,8.87-9.36,9.88-.8.15-1.61.24-2.42.24Zm-2.36-22.37c-5.47,1.24-9.13,6.75-8.17,12.28.49,2.89,2.11,5.4,4.52,7.05,2.41,1.65,5.34,2.24,8.2,1.64,4.56-.94,7.96-4.68,8.49-9.3l.05-.42,9.52-1.97c.55-.12,1.12.02,1.57.37.45.34.71.86.73,1.43l.06,1.34c.01.34.26.62.57.67,1.05.15,1.95.77,2.48,1.68.13.22.38.44.7.38l.55-.12c.31-.06.46-.37.48-.62.18-1.48,1.28-2.67,2.74-2.98,1.46-.31,2.95.37,3.69,1.65.13.22.38.45.7.38l.57-.12c.31-.06.46-.37.48-.61.12-1.05.71-1.97,1.6-2.53.26-.17.37-.53.25-.84l-.48-1.25c-.2-.52-.17-1.11.11-1.6s.74-.84,1.28-.95l.72-.15c.8-.16,1.47-.64,1.9-1.32.42-.7.55-1.51.34-2.3-.39-1.48-2.01-2.42-3.63-2.09l-28.12,5.81-.21-.37c-2.34-4.11-7.03-6.17-11.67-5.12Zm2.37,18.01c-1.46,0-2.89-.42-4.14-1.25-1.68-1.11-2.84-2.8-3.24-4.78-.41-1.98-.02-3.99,1.08-5.68,1.11-1.68,2.8-2.83,4.78-3.24s3.99-.02,5.68,1.08c1.68,1.11,2.83,2.8,3.24,4.78.41,1.98.02,3.98-1.08,5.67-1.11,1.68-2.8,2.84-4.78,3.24-.52.13-1.04.18-1.54.18Zm.04-13.91c-.43,0-.87.05-1.31.13-1.66.34-3.1,1.32-4.03,2.73-.93,1.43-1.26,3.12-.92,4.78.34,1.66,1.32,3.1,2.73,4.03,1.43.93,3.12,1.26,4.78.92,1.67-.34,3.1-1.32,4.03-2.73.93-1.43,1.26-3.12.92-4.78-.34-1.67-1.32-3.1-2.73-4.04-1.05-.68-2.25-1.04-3.48-1.04Z"/>
      <path class="cls-17" d="m349.37,70.09c7.72,0,13.97-3.99,13.97-8.91s-6.26-8.91-13.97-8.91-13.97,3.99-13.97,8.91,6.26,8.91,13.97,8.91Z"/>
      <path class="cls-8" d="m327.14,73.73c3.17,0,5.74-1.64,5.74-3.65s-2.57-3.65-5.74-3.65-5.74,1.64-5.74,3.65,2.57,3.65,5.74,3.65Z"/>
    </g>
  </g>
</svg>