<?xml version="1.0" encoding="UTF-8"?>
<svg id="Layer_2" data-name="Layer 2" xmlns="http://www.w3.org/2000/svg" viewBox="0 0 512 358.4">
  <defs>
    <style>
      .cls-1 {
        fill: #f47920;
      }
    </style>
  </defs>
  <g id="Layer_1-2" data-name="Layer 1">
    <path class="cls-1" d="m128,25.6c0-14.14,11.46-25.6,25.6-25.6h332.8c14.14,0,25.6,11.46,25.6,25.6s-11.46,25.6-25.6,25.6H153.6c-14.14,0-25.6-11.46-25.6-25.6Zm358.4,128H25.6c-14.14,0-25.6,11.46-25.6,25.6s11.46,25.6,25.6,25.6h460.8c14.14,0,25.6-11.46,25.6-25.6s-11.46-25.6-25.6-25.6Zm0,153.6h-230.4c-14.14,0-25.6,11.46-25.6,25.6s11.46,25.6,25.6,25.6h230.4c14.14,0,25.6-11.46,25.6-25.6s-11.46-25.6-25.6-25.6Z"/>
  </g>
</svg>