<svg xmlns="http://www.w3.org/2000/svg" width="135.478" height="121.415" viewBox="0 0 135.478 121.415">
    <defs>
        <linearGradient id="linear-gradient" x1=".5" x2=".5" y1="1" gradientUnits="objectBoundingBox">
            <stop offset=".128" stop-color="#f5cfa3"/>
            <stop offset=".406" stop-color="#f3ca9e"/>
            <stop offset="1" stop-color="#f2c498"/>
        </linearGradient>
        <linearGradient id="linear-gradient-2" x1=".5" x2=".5" y2="1" gradientUnits="objectBoundingBox">
            <stop offset="0" stop-color="#edbc94"/>
            <stop offset=".628" stop-color="#edbd95"/>
            <stop offset=".854" stop-color="#f0c49a"/>
            <stop offset="1" stop-color="#f5cfa3"/>
        </linearGradient>
        <radialGradient id="radial-gradient" cx=".5" cy=".5" r=".524" gradientTransform="matrix(.914 0 0 1 .043 0)" gradientUnits="objectBoundingBox">
            <stop offset="0" stop-color="#f4caa6"/>
            <stop offset=".668" stop-color="#f3c9a4"/>
            <stop offset=".908" stop-color="#f2c69d"/>
            <stop offset="1" stop-color="#f2c498"/>
        </radialGradient>
        <style>
            .cls-2{fill:#edbc94}.cls-4{fill:#f2c498}.cls-5{fill:#ecb388}.cls-6{fill:#f7d5a9}.cls-7{fill:#e7a277}.cls-9{fill:#c68260}.cls-11{fill:#423030}.cls-12{fill:#493434}.cls-13{fill:url(#linear-gradient-2)}
        </style>
    </defs>
    <g id="Group_331" transform="translate(-201.709 -357.844)">
        <path id="Path_595" fill="#fee0c2" d="M246.436 366.739s2.25.362 4 .543-4.25 4.525-5 6.516 6.25 4.164 9 4.164-5 1.629-5 1.629 7.754 5.744 13.75 5.925c9.75.3 14.25-3.934 15.25-4.477s.5 4.6-.75 5.141 6.753-2.338 8.75-4.055c3-2.577 6-7.22 5.5-11.4-.153-1.279-3.25-8.417-16.5-9.775a74.209 74.209 0 0 0-16.25.724c-3.5.72-9.25 2.526-12.75 5.065z" opacity="0.2"/>
        <g id="Group_225">
            <path id="Path_596" d="M301.488 442.937a44.864 44.864 0 0 1-7.488-2.921c-3.087-1.635-3.063-9.035-3.063-9.035-1.109-2.628-42.773-.066-42.773-.066s-.934 8.113-4.379 9.707a49.171 49.171 0 0 1-6.075 2.2c-3.467 1.057 14.234 16.883 31.924 16.918s35.366-15.716 31.854-16.803z" class="cls-2"/>
        </g>
        <g id="Group_226">
            <path id="Path_597" fill="#a49898" d="M334.206 459.552c-1.685-5.606-5.887-7.807-11.54-10.256s-14.157-4.186-21.178-6.359c-2.83-.877-20.728 14.219-32.465 14.375s-29.007-15.19-31.318-14.485c-6.933 2.114-15.852 4.032-21.475 6.469-5.653 2.449-9.395 4.65-11.08 10.256-.569 1.894-3.23 19.58-3.441 19.579l67.483.127h.512l67.483-.127c-.21.001-2.412-17.685-2.981-19.579z"/>
        </g>
        <g id="Group_227">
            <path id="Path_598" d="M300.633 401.528c-.914-.668-2.882-.374-3.916.071 0 .269-.01.537-.017.806q-.023.775-.059 1.551-.081 1.76-.245 3.512-.081.875-.182 1.747c-.025.215-.051.431-.078.646-.286 1.92-.544 3.418-.626 4.066a69.691 69.691 0 0 1-1.6 6.8 4.462 4.462 0 0 0 3.251-3.359 42.5 42.5 0 0 1 2.826-9.658c1.778-5.002.646-6.182.646-6.182z" class="cls-4"/>
            <path id="Path_599" d="M298.829 409.029s1.67-4.8 1.176-5.35c-.8-.89-2.875 1.5-3.59 3.643q-.083.876-.183 1.748c1.455-3.47 3.255-2.845 2.597-.041z" class="cls-5"/>
            <path id="Path_600" d="M295.25 416.43s1.325-.584 1.511-1.394-.4-1.469.218-1.725 1.255-1.343 1.461-1.65 1.144-4.066.445-5.14-2.661 2.215-2.661 2.215z" class="cls-6"/>
            <path id="Path_601" d="M296.062 410.442c.182-.058 1.6-1.919 1.963-1.683.535.343.167 2.529-.625 3.647a7.975 7.975 0 0 1-1.89 1.521z" class="cls-7"/>
        </g>
        <g id="Group_228">
            <path id="Path_602" d="M238.208 401.528c.915-.668 2.883-.374 3.917.071 0 .269.01.537.018.806q.021.775.057 1.551.084 1.76.246 3.512.081.875.182 1.747c.025.215.051.431.078.646.286 1.92.544 3.418.626 4.066a69.4 69.4 0 0 0 1.6 6.8 4.461 4.461 0 0 1-3.251-3.359 42.5 42.5 0 0 0-2.826-9.658c-1.779-5.002-.647-6.182-.647-6.182z" class="cls-4"/>
            <path id="Path_603" d="M240.012 409.029s-1.669-4.8-1.176-5.35c.8-.89 2.876 1.5 3.591 3.643q.082.876.182 1.748c-1.454-3.47-3.254-2.845-2.597-.041z" class="cls-5"/>
            <path id="Path_604" d="M243.592 416.43s-1.325-.584-1.511-1.394.4-1.469-.219-1.725-1.254-1.343-1.46-1.65-1.144-4.066-.446-5.14 2.662 2.215 2.662 2.215z" class="cls-6"/>
            <path id="Path_605" d="M242.78 410.442c-.182-.058-1.6-1.919-1.964-1.683-.534.343-.166 2.529.626 3.647a7.975 7.975 0 0 0 1.89 1.521z" class="cls-7"/>
        </g>
        <path id="Path_606" d="M299.011 382.932c-.535-24.384-28.825-24.322-29.579-24.316s-29.044-.068-29.579 24.316c-.373 16.993-.088 16.418.493 19.222s1.916 9.091 2.19 12.268.263 12.957 4.371 19.748a88.116 88.116 0 0 0 8.5 11.928c.614.668 1.988 2.435 2.629 3.012 1.24 1.119 6.5 5.273 11.4 4.679 4.9.594 10.019-3.171 11.4-4.679.581-.636 2.015-2.344 2.628-3.012a87.976 87.976 0 0 0 8.5-11.928c4.107-6.791 4.1-16.572 4.37-19.748s1.61-9.464 2.191-12.268.859-2.229.486-19.222z" class="cls-4"/>
        <path id="Path_607" d="M266.239 430.541s.312-3.856-2.632-4.957-12.79-2.508-13.2-2.8c.232.167.5.944.661 1.188a13.254 13.254 0 0 0 5.18 4.7c1.827.81 3.866.8 5.864 1.037.46.047 4.144.28 4.127.832z" class="cls-2"/>
        <g id="Group_230">
            <path id="Path_608" fill="#db956e" d="M267.983 448.209a8.472 8.472 0 0 1 1.439.2 8.49 8.49 0 0 1 1.439-.2c2.678-.058 5.788-2.913 5.788-2.913a13.981 13.981 0 0 1-5.788 1.993 8.427 8.427 0 0 0-1.439.2 8.409 8.409 0 0 0-1.439-.2c-2.677-.058-6.116-2.124-6.116-2.124q.223.21.437.406a1.242 1.242 0 0 0-.209-.275s3.211 2.855 5.888 2.913z"/>
            <path id="Path_609" d="M268.064 449.526a12.47 12.47 0 0 1 1.8-.013c2.523.362 4.674-1.816 5.844-3.069a10.633 10.633 0 0 0 .943-1.148s-3.11 2.855-5.788 2.913a8.49 8.49 0 0 0-1.439.2 8.472 8.472 0 0 0-1.439-.2c-2.677-.058-5.888-2.913-5.888-2.913a1.242 1.242 0 0 1 .209.275q.426.39.811.727c2.932 2.562 4.205 3.302 4.947 3.228z" class="cls-7"/>
            <g id="Group_229">
                <path id="Path_610" d="M268.27 447.28a11.694 11.694 0 0 1-1.258-.134 11.955 11.955 0 0 1-1.5-.386 21.066 21.066 0 0 1-2.608-1.062c-.326-.155-.585-.29-.764-.384s-.276-.149-.276-.149.094.061.268.163.428.248.749.416a16.826 16.826 0 0 0 2.6 1.112 10.309 10.309 0 0 0 1.515.375 10.583 10.583 0 0 0 1.268.1c.359.026.648.07.847.1s.309.055.309.055-.108-.028-.3-.071a8.032 8.032 0 0 0-.85-.135z" class="cls-9"/>
                <path id="Path_611" d="M276.387 445.442c-.17.091-.417.222-.728.372-.154.077-.327.155-.51.241s-.383.172-.594.256-.433.173-.665.262c-.116.043-.236.082-.357.125-.06.02-.12.043-.182.062l-.187.058-.187.057-.093.029-.093.024-.365.1c-.12.03-.239.051-.356.077l-.172.036c-.057.012-.114.018-.171.027l-.328.049c-.107.013-.211.018-.312.027l-.292.022c-.1.007-.186.011-.272.023-.345.039-.619.1-.808.135s-.293.068-.293.068.105-.02.3-.053.468-.073.811-.1c.086-.008.176-.009.269-.013l.294-.013c.101-.004.208-.008.316-.018l.333-.042c.057-.008.115-.013.173-.024l.175-.034c.118-.024.239-.043.361-.073l.369-.093.094-.024.093-.029.189-.057.188-.059c.062-.019.123-.042.184-.063.121-.044.242-.085.358-.129.232-.092.456-.18.665-.274s.4-.186.59-.272.352-.176.5-.259c.306-.161.547-.3.713-.4s.254-.16.254-.16-.094.047-.264.139z" class="cls-9"/>
            </g>
        </g>
        <path id="Path_612" fill="url(#linear-gradient)" d="M275.29 438.23c-.159-.286-.323-.581-.47-.9-.139-.3-.266-.537-.379-.746a6.2 6.2 0 0 1-.59-1.4c-.028-.1-.238-1.122-.327-1.559a29.118 29.118 0 0 0-1.555-5.625 3.946 3.946 0 0 0-2.427-1.494v-.026l-.062.012-.06-.012v.025a4.026 4.026 0 0 0-2.492 1.495 29.124 29.124 0 0 0-1.556 5.632c-.088.437-.3 1.462-.326 1.559a6.148 6.148 0 0 1-.591 1.4c-.112.209-.24.447-.379.746-.147.314-.311.609-.47.9-.546.982-1.018 1.83-.584 2.994a5.432 5.432 0 0 0 2.2 2.322 16.546 16.546 0 0 1 1.412 1.106 13.09 13.09 0 0 0 2.75.942.2.2 0 0 0 .132 0 13.109 13.109 0 0 0 2.751-.942 16.236 16.236 0 0 1 1.412-1.106 5.435 5.435 0 0 0 2.2-2.322c.43-1.171-.042-2.019-.589-3.001z"/>
        <path id="Path_613" d="M272.646 430.541s-.312-3.856 2.633-4.957 12.8-2.508 13.205-2.8c-.232.167-.5.944-.661 1.188a13.1 13.1 0 0 1-5.183 4.629 19.975 19.975 0 0 1-5.866 1.1c-.46.055-4.145.288-4.128.84z" class="cls-2"/>
        <g id="Group_232">
            <path id="Path_614" d="M252.2 424.665s3.011 5.515 8.5 1.677c0 0-4.837-2.992-8.5-1.677z" class="cls-5"/>
            <g id="Group_231">
                <path id="Path_615" d="M260.7 426.342l-.333.246c-.055.038-.114.084-.181.129l-.224.141c-.081.049-.167.105-.26.159l-.3.159a6 6 0 0 1-1.6.554 5.231 5.231 0 0 1-2.084-.036 5.817 5.817 0 0 1-1.027-.346 6.279 6.279 0 0 1-.879-.488 7.407 7.407 0 0 1-1.288-1.092 7.982 7.982 0 0 1-.714-.878c-.153-.22-.224-.348-.224-.348s.087.118.26.319a9.785 9.785 0 0 0 .783.8 8.535 8.535 0 0 0 1.317.986 6.907 6.907 0 0 0 .859.439 6.481 6.481 0 0 0 .979.317 5.575 5.575 0 0 0 1.977.078 6.533 6.533 0 0 0 1.577-.442l.31-.131c.1-.045.184-.092.269-.134l.234-.117c.071-.038.134-.077.192-.109z" class="cls-11"/>
            </g>
            <path id="Path_616" d="M264.979 427.444s1.761.213 1.118-.752a2.492 2.492 0 0 0-1.268-.76s-10.7-4.842-12.017-5.257-4.46.14-5.117-1.268c0 0-.443 4.694 8.58 5.727 0 0 8.2 2.266 8.704 2.31z" class="cls-11"/>
            <path id="Path_617" d="M256.275 423.535s5.942 1.639 8.02 2.156c-2.178-.983-10.341-4.657-11.483-5.016-1.025-.323-3.151-.06-4.355-.587.952 1.352 3.079 2.904 7.818 3.447z" class="cls-12"/>
        </g>
        <g id="Group_234">
            <path id="Path_618" d="M286.7 424.665s-3.011 5.515-8.5 1.677c0 0 4.843-2.992 8.5-1.677z" class="cls-5"/>
            <g id="Group_233">
                <path id="Path_619" d="M278.2 426.342l.356.2c.057.033.119.071.191.109l.233.117.267.133.309.13a6.4 6.4 0 0 0 1.569.434 5.351 5.351 0 0 0 1.964-.1 6.223 6.223 0 0 0 .967-.335 6.937 6.937 0 0 0 .843-.458 8.384 8.384 0 0 0 1.284-1.015 9.547 9.547 0 0 0 .757-.817c.167-.2.251-.324.251-.324s-.068.13-.213.352a7.93 7.93 0 0 1-.688.892 7.338 7.338 0 0 1-1.251 1.121 6.345 6.345 0 0 1-.863.508 5.761 5.761 0 0 1-1.016.365 5.063 5.063 0 0 1-2.074.062 5.859 5.859 0 0 1-1.592-.548l-.3-.157c-.093-.055-.178-.11-.258-.159l-.224-.14c-.066-.045-.125-.09-.179-.129z" class="cls-11"/>
            </g>
            <path id="Path_620" d="M273.927 427.444s-1.76.213-1.117-.752a2.491 2.491 0 0 1 1.267-.76s10.7-4.842 12.017-5.257 4.46.14 5.117-1.268c0 0 .443 4.694-8.58 5.727 0 0-8.2 2.266-8.704 2.31z" class="cls-11"/>
            <path id="Path_621" d="M282.678 423.535s-5.941 1.639-8.02 2.156c2.178-.983 10.342-4.657 11.484-5.016 1.025-.323 3.15-.06 4.355-.587-.952 1.352-3.079 2.904-7.819 3.447z" class="cls-12"/>
        </g>
        <path id="Path_622" d="M267.19 450.438a9.33 9.33 0 0 0 4.517 0 6.283 6.283 0 0 0-4.517 0z" class="cls-5"/>
        <path id="Path_623" d="M275.1 437.764s-.868-.441-1.727 1.858c0 0-1.51-8.828-.463-10.734 0 0 2.692.281 1.388.518-2.282.414.602 7.419.802 8.358z" class="cls-13"/>
        <path id="Path_624" d="M263.82 437.764s.869-.441 1.727 1.858c0 0 1.51-8.828.464-10.734 0 0-2.692.281-1.388.518 2.277.414-.613 7.419-.803 8.358z" class="cls-13"/>
        <ellipse id="Ellipse_52" cx="28.252" cy="25.81" fill="url(#radial-gradient)" rx="28.252" ry="25.81" transform="translate(240.95 361.399)"/>
        <g id="Group_235">
            <path id="Path_625" d="M286.5 361.469a36.672 36.672 0 0 0-7.329-2.532c-3.182-.756-14.55-.989-16.039-1.089-.545-.037-3.1.175-1.844 1.217-1.221-1.01-5.365.059-6.711.384-.559.135-3.092 1.413-1.368 1.924-1.192.047-3.816.5-4.716 1.19 2.366 2.285-8.216 5.305-5.044 7.283-.287-.179-3.685 4.607-3.952 5.059a8.925 8.925 0 0 0-1.207 3.068c-.159 1.02.272 1.982.23 2.993s-.574 1.93-.455 2.951c.278 2.393-.608 4.713-.5 7.143a35.021 35.021 0 0 0 1.763 8.66 60.873 60.873 0 0 1 1.743 5.842 77.27 77.27 0 0 1 1.565 10.174 50.187 50.187 0 0 0 .342-10.486c-.1-1.142-.457-2.258-.517-3.395a8.577 8.577 0 0 1 1.2-4.542 16.025 16.025 0 0 1 1.306-1.779 15.786 15.786 0 0 1 1.4-1.872c.791-.778.628-2.341 1.323-3.236.228-.293.658-4.529 2.219-4.584 2.871-.1 5.239 9.029 6.869 7.689s4.136 2.414 5.742 2.768a20.691 20.691 0 0 0 15.378-2.768c.11.986.42 1.579 1.682 1.484 7.956-.6 8.878-9.542 11.544-9.44s3.545 7.907 4.124 8.442c1.626 1.5.669 5.089.789 7.3a35.34 35.34 0 0 1-.242 4.733c-.1 1.282-.054 2.541-.054 3.821 0 1.243.178 2.508.279 3.75.058.707.112 1.417.2 2.12a122.831 122.831 0 0 1 2.336-13.913c.172-.751.444-1.474.623-2.223a22.673 22.673 0 0 0 .491-4.2c.094-2.033-.2-4.11.225-6.118.242-1.132.772-2.188.947-3.335l.02-.143c.3-2.409-.933-4.7-1.345-7.02-.246-1.387.046-3.745-1.374-4.583a3.664 3.664 0 0 0 .777.4c.179-1.772-1.518-3.27-2.068-4.842a3.991 3.991 0 0 0-1.832-2.155c-.7-.29-2.309-.662-2.183-1.625.193.054-.3-.807-.65-1.063z" class="cls-11"/>
            <path id="Path_626" d="M295.25 394.017c-.579-.535-1.458-8.339-4.124-8.442s-3.588 8.838-11.544 9.44c-1.262.095-1.572-.5-1.682-1.484a20.691 20.691 0 0 1-15.378 2.768c-1.606-.354-4.112-4.108-5.742-2.768s-4-7.792-6.869-7.689c-1.561.055-1.991 4.291-2.219 4.584-.7.9-.532 2.458-1.323 3.236a15.786 15.786 0 0 0-1.4 1.872 16.025 16.025 0 0 0-1.306 1.779 8.577 8.577 0 0 0-1.2 4.542q.012.2.033.4a9.333 9.333 0 0 1 1.165-3.465 16.117 16.117 0 0 1 1.306-1.779 15.869 15.869 0 0 1 1.4-1.872c.791-.778.628-2.341 1.323-3.235.228-.294.658-4.529 2.219-4.585 2.871-.1 5.239 9.029 6.869 7.69s4.136 2.414 5.742 2.768a20.691 20.691 0 0 0 15.378-2.768c.11.985.42 1.578 1.682 1.483 7.956-.6 8.878-9.542 11.544-9.439s3.545 7.907 4.124 8.441a3.612 3.612 0 0 1 .94 2.5c.077-1.577-.008-3.117-.938-3.977z" class="cls-2"/>
            <path id="Path_627" fill="#fee0c2" d="M287.588 367.425s6.809 19.808-10.286 21.746a4.083 4.083 0 0 0 .878-4.023s-13.112 11.69-25.973-1.527c0 0 1.549 2.468 6.343-1.767 0 0-9.974-1.254-10.263-4.705a63.111 63.111 0 0 1 5.259-7.12c1.584-1.829-8.239 1.474-1.18-4.07 5.745-4.513 21.827-8.023 35.222 1.466z" opacity="0.3"/>
            <path id="Path_628" d="M292.95 374.785a25.112 25.112 0 0 1-1.106 8.422s1.865 5.263 4.388 7.889 1.843-1.244 2.045-1.935-.489-17.418-5.327-14.376z" class="cls-12"/>
            <path id="Path_629" d="M247.692 374.415s-3.023 5.6-1.681 9.217c0 0-.76 4.838-3.283 7.464s-1.843-1.244-2.045-1.935-.998-17.832 7.009-14.746z" class="cls-12"/>
        </g>
        <path id="Path_630" d="M280.829 449.11c-1.378 1.508-6.5 5.273-11.4 4.679-4.9.594-10.157-3.56-11.4-4.679-.641-.577-2.015-2.344-2.629-3.012a86.908 86.908 0 0 1-8.061-11.21 11.839 11.839 0 0 1-2.49 4.964c3.6 7.507 11.512 14.552 24.593 14.552 12.986 0 19.515-7.045 24.576-14.374l-.028-.014c-1.479-.783-2.242-2.888-2.638-4.869a86.386 86.386 0 0 1-7.9 10.951c-.608.668-2.042 2.376-2.623 3.012z" class="cls-5"/>
    </g>
</svg>
