<svg xmlns="http://www.w3.org/2000/svg" width="135.478" height="120.643" viewBox="0 0 135.478 120.643">
    <defs>
        <linearGradient id="linear-gradient" x1=".5" x2=".5" y1="1" gradientUnits="objectBoundingBox">
            <stop offset=".128" stop-color="#f5cfa3"/>
            <stop offset=".406" stop-color="#f3ca9e"/>
            <stop offset="1" stop-color="#f2c498"/>
        </linearGradient>
        <linearGradient id="linear-gradient-2" x1=".5" x2=".5" y2="1" gradientUnits="objectBoundingBox">
            <stop offset="0" stop-color="#edbc94"/>
            <stop offset=".628" stop-color="#edbd95"/>
            <stop offset=".854" stop-color="#f0c49a"/>
            <stop offset="1" stop-color="#f5cfa3"/>
        </linearGradient>
        <radialGradient id="radial-gradient" cx=".5" cy=".5" r=".524" gradientTransform="matrix(.914 0 0 1 .043 0)" gradientUnits="objectBoundingBox">
            <stop offset="0" stop-color="#f4caa6"/>
            <stop offset=".668" stop-color="#f3c9a4"/>
            <stop offset=".908" stop-color="#f2c69d"/>
            <stop offset="1" stop-color="#f2c498"/>
        </radialGradient>
        <style>
            .cls-1{fill:#edbc94}.cls-3{fill:#f2c498}.cls-4{fill:#ecb388}.cls-5{fill:#f7d5a9}.cls-6{fill:#e7a277}.cls-8{fill:#c68260}.cls-10{fill:#423030}.cls-11{fill:#493434}.cls-12{fill:url(#linear-gradient-2)}
        </style>
    </defs>
    <g id="Group_332" transform="translate(-351.236 -359.391)">
        <g id="Group_237">
            <path id="Path_631" d="M451.869 443.972a47.723 47.723 0 0 1-8.346-3.181c-3.087-1.634-3.063-9.034-3.063-9.034-1.109-2.629-42.773-.066-42.773-.066s-.934 8.112-4.378 9.706a49.208 49.208 0 0 1-6.077 2.2c-3.451 1.052 14.242 15.437 32.041 15.526 17.963.096 36.034-14.123 32.596-15.151z" class="cls-1"/>
        </g>
        <g id="Group_238">
            <path id="Path_632" fill="#a49898" d="M483.734 460.328c-1.686-5.607-5.888-7.807-11.541-10.257s-14.158-4.185-21.178-6.359c-2.83-.876-20.728 14.219-32.465 14.376S389.544 442.9 387.232 443.6c-6.933 2.114-15.852 4.033-21.475 6.469-5.653 2.45-9.395 4.65-11.08 10.257-.569 1.893-3.23 19.579-3.441 19.579l67.483.126h.512l67.483-.126c-.214.002-2.414-17.684-2.98-19.577z"/>
        </g>
        <g id="Group_239">
            <path id="Path_633" d="M450.16 402.3c-.914-.668-2.883-.375-3.916.07 0 .269-.01.538-.018.807q-.021.775-.058 1.55-.081 1.76-.245 3.512-.081.874-.182 1.747-.037.324-.078.646c-.286 1.92-.544 3.418-.626 4.066a69.33 69.33 0 0 1-1.6 6.8 4.46 4.46 0 0 0 3.252-3.358 42.5 42.5 0 0 1 2.826-9.659c1.777-4.997.645-6.181.645-6.181z" class="cls-3"/>
            <path id="Path_634" d="M448.356 409.8s1.67-4.8 1.176-5.351c-.8-.89-2.875 1.5-3.591 3.644q-.081.875-.182 1.747c1.455-3.466 3.255-2.84 2.597-.04z" class="cls-4"/>
            <path id="Path_635" d="M444.777 417.2s1.325-.583 1.511-1.394-.4-1.469.218-1.724 1.255-1.343 1.461-1.651 1.143-4.066.445-5.139-2.661 2.214-2.661 2.214z" class="cls-5"/>
            <path id="Path_636" d="M445.589 411.218c.182-.058 1.6-1.92 1.963-1.684.535.344.167 2.53-.625 3.647a7.95 7.95 0 0 1-1.89 1.521z" class="cls-6"/>
        </g>
        <g id="Group_240">
            <path id="Path_637" d="M387.736 402.3c.914-.668 2.882-.375 3.916.07q.006.4.018.807.021.775.057 1.55.083 1.76.246 3.512.081.874.182 1.747.037.324.078.646c.286 1.92.544 3.418.626 4.066a69.043 69.043 0 0 0 1.6 6.8 4.46 4.46 0 0 1-3.252-3.358 42.555 42.555 0 0 0-2.826-9.659c-1.781-4.997-.645-6.181-.645-6.181z" class="cls-3"/>
            <path id="Path_638" d="M389.539 409.8s-1.669-4.8-1.176-5.351c.8-.89 2.876 1.5 3.591 3.644q.082.875.182 1.747c-1.454-3.466-3.254-2.84-2.597-.04z" class="cls-4"/>
            <path id="Path_639" d="M393.119 417.2s-1.325-.583-1.511-1.394.4-1.469-.218-1.724-1.255-1.343-1.461-1.651-1.144-4.066-.445-5.139 2.661 2.214 2.661 2.214z" class="cls-5"/>
            <path id="Path_640" d="M392.307 411.218c-.182-.058-1.6-1.92-1.964-1.684-.535.344-.166 2.53.626 3.647a7.929 7.929 0 0 0 1.89 1.521z" class="cls-6"/>
        </g>
        <path id="Path_641" d="M448.538 383.707c-.535-24.384-28.825-24.322-29.58-24.316s-29.043-.068-29.578 24.316c-.373 16.994-.088 16.419.493 19.223s1.916 9.091 2.19 12.267.263 12.958 4.371 19.749a88.19 88.19 0 0 0 8.5 11.928c.614.668 1.989 2.434 2.629 3.012 1.24 1.118 6.5 5.273 11.4 4.679 4.9.594 10.02-3.171 11.4-4.679.581-.637 2.015-2.344 2.628-3.012a88.153 88.153 0 0 0 8.5-11.928c4.107-6.791 4.1-16.572 4.37-19.749s1.61-9.463 2.191-12.267.859-2.23.486-19.223z" class="cls-3"/>
        <path id="Path_642" d="M415.766 431.317s.312-3.856-2.632-4.958-12.79-2.507-13.2-2.8c.232.167.5.944.661 1.188a13.246 13.246 0 0 0 5.18 4.7c1.827.81 3.866.8 5.864 1.038.461.047 4.144.28 4.127.832z" class="cls-1"/>
        <g id="Group_242">
            <path id="Path_643" fill="#db956e" d="M417.51 448.984a5.277 5.277 0 0 0 2.878 0c2.678-.058 5.788-2.912 5.788-2.912a13.985 13.985 0 0 1-5.788 1.992 5.276 5.276 0 0 1-2.878 0c-2.677-.058-6.116-2.123-6.116-2.123.149.14.295.274.437.4a1.235 1.235 0 0 0-.209-.274s3.211 2.859 5.888 2.917z"/>
            <path id="Path_644" d="M417.59 450.3a12.571 12.571 0 0 1 1.8-.012c2.523.361 4.674-1.816 5.844-3.069a10.633 10.633 0 0 0 .943-1.148s-3.11 2.854-5.788 2.912a5.277 5.277 0 0 1-2.878 0c-2.677-.058-5.888-2.912-5.888-2.912a1.235 1.235 0 0 1 .209.274q.426.39.811.727c2.932 2.563 4.206 3.302 4.947 3.228z" class="cls-6"/>
            <g id="Group_241">
                <path id="Path_645" d="M417.8 448.055a9.529 9.529 0 0 1-2.755-.52 21.086 21.086 0 0 1-2.608-1.061c-.325-.156-.585-.291-.764-.385s-.276-.148-.276-.148.094.06.268.162.428.248.749.416a16.916 16.916 0 0 0 2.6 1.113 8.679 8.679 0 0 0 2.783.474c.359.025.648.07.847.1s.309.056.309.056-.108-.029-.3-.071a7.987 7.987 0 0 0-.853-.136z" class="cls-8"/>
                <path id="Path_646" d="M425.914 446.217c-.17.091-.417.222-.728.372-.154.078-.327.155-.51.241s-.383.172-.6.257-.433.173-.664.261c-.116.043-.236.082-.357.125-.06.021-.12.043-.182.063l-.187.057-.187.057-.093.029-.093.024-.365.1c-.12.031-.239.052-.356.077l-.173.037c-.056.011-.114.017-.17.026l-.328.049c-.107.014-.211.018-.312.027l-.292.022c-.1.007-.186.011-.272.023-.345.039-.619.1-.808.135s-.293.069-.293.069.1-.021.295-.053.468-.074.811-.1c.085-.009.176-.01.269-.013s.192-.009.294-.014.208-.007.316-.018l.333-.042c.057-.008.115-.013.173-.024l.175-.033c.117-.024.239-.044.36-.073l.37-.094.093-.024.094-.028.188-.058.189-.058c.062-.02.123-.043.184-.064.121-.044.242-.084.358-.129.232-.092.456-.179.665-.273s.4-.187.589-.273.352-.175.5-.258c.306-.162.547-.3.713-.4s.254-.159.254-.159l-.253.137z" class="cls-8"/>
            </g>
        </g>
        <path id="Path_647" fill="url(#linear-gradient)" d="M424.817 439.005c-.159-.285-.323-.581-.47-.9-.139-.3-.266-.536-.379-.746a6.184 6.184 0 0 1-.591-1.4c-.027-.1-.237-1.123-.326-1.559a29.2 29.2 0 0 0-1.555-5.633 3.946 3.946 0 0 0-2.427-1.494v-.026l-.062.013-.06-.013v.026a4.019 4.019 0 0 0-2.492 1.494 29.137 29.137 0 0 0-1.556 5.633c-.089.436-.3 1.461-.326 1.559a6.139 6.139 0 0 1-.591 1.4c-.112.21-.239.448-.379.746-.146.314-.311.61-.47.9-.546.983-1.018 1.831-.584 2.994a5.426 5.426 0 0 0 2.2 2.322 16.744 16.744 0 0 1 1.412 1.106 13.025 13.025 0 0 0 2.75.942.2.2 0 0 0 .132 0 13.044 13.044 0 0 0 2.751-.942 16.431 16.431 0 0 1 1.412-1.106A5.43 5.43 0 0 0 425.4 442c.435-1.164-.036-2.012-.583-2.995z"/>
        <path id="Path_648" d="M422.173 431.317s-.312-3.856 2.633-4.958 12.8-2.507 13.2-2.8c-.232.167-.5.944-.661 1.188a13.093 13.093 0 0 1-5.183 4.629 19.943 19.943 0 0 1-5.866 1.1c-.455.056-4.14.289-4.123.841z" class="cls-1"/>
        <g id="Group_244">
            <path id="Path_649" d="M401.729 425.44s3.011 5.515 8.5 1.678c0 0-4.839-2.992-8.5-1.678z" class="cls-4"/>
            <g id="Group_243">
                <path id="Path_650" d="M410.229 427.118l-.333.245c-.055.039-.113.085-.181.13l-.224.14c-.081.05-.167.105-.26.159l-.3.159a6 6 0 0 1-1.6.555 5.231 5.231 0 0 1-2.084-.036 5.845 5.845 0 0 1-1.027-.347 6.18 6.18 0 0 1-.879-.488 7.369 7.369 0 0 1-1.288-1.092 7.887 7.887 0 0 1-.714-.878c-.153-.219-.224-.348-.224-.348s.087.119.26.32a9.808 9.808 0 0 0 .783.8 8.409 8.409 0 0 0 1.317.986 6.841 6.841 0 0 0 .859.439 6.369 6.369 0 0 0 .979.317 5.576 5.576 0 0 0 1.977.079 6.627 6.627 0 0 0 1.577-.442l.31-.131c.1-.046.185-.093.269-.134l.234-.118c.071-.037.134-.076.192-.109z" class="cls-10"/>
            </g>
            <path id="Path_651" d="M414.506 428.219s1.761.213 1.118-.751a2.5 2.5 0 0 0-1.268-.761s-10.7-4.842-12.017-5.257-4.46.141-5.117-1.267c0 0-.443 4.694 8.58 5.726-.002 0 8.198 2.263 8.704 2.31z" class="cls-10"/>
            <path id="Path_652" d="M405.8 424.31s5.942 1.64 8.02 2.156c-2.178-.983-10.341-4.657-11.483-5.016-1.026-.323-3.151-.059-4.355-.587.954 1.352 3.08 2.904 7.818 3.447z" class="cls-11"/>
        </g>
        <g id="Group_246">
            <path id="Path_653" d="M436.231 425.44s-3.011 5.515-8.5 1.678c.001 0 4.839-2.992 8.5-1.678z" class="cls-4"/>
            <g id="Group_245">
                <path id="Path_654" d="M427.732 427.118l.356.2c.057.032.119.071.19.109l.234.116.267.133.308.13a6.41 6.41 0 0 0 1.57.435 5.375 5.375 0 0 0 1.964-.1 6.123 6.123 0 0 0 .967-.335 7.08 7.08 0 0 0 .843-.457 8.435 8.435 0 0 0 1.284-1.016 9.56 9.56 0 0 0 .757-.817c.167-.2.251-.324.251-.324s-.068.13-.214.352a7.806 7.806 0 0 1-.687.892 7.312 7.312 0 0 1-1.252 1.122 6.27 6.27 0 0 1-.862.507 5.762 5.762 0 0 1-1.016.366 5.062 5.062 0 0 1-2.074.061 5.847 5.847 0 0 1-1.592-.547l-.3-.158c-.093-.054-.178-.109-.259-.159l-.223-.139c-.067-.045-.125-.091-.179-.129z" class="cls-10"/>
            </g>
            <path id="Path_655" d="M423.454 428.219s-1.761.213-1.118-.751a2.5 2.5 0 0 1 1.268-.761s10.7-4.842 12.017-5.257 4.46.141 5.117-1.267c0 0 .443 4.694-8.58 5.726 0 0-8.2 2.263-8.704 2.31z" class="cls-10"/>
            <path id="Path_656" d="M432.2 424.31s-5.941 1.64-8.02 2.156c2.178-.983 10.342-4.657 11.483-5.016 1.026-.323 3.151-.059 4.356-.587-.948 1.352-3.074 2.904-7.819 3.447z" class="cls-11"/>
        </g>
        <path id="Path_657" d="M416.717 451.213a9.33 9.33 0 0 0 4.517 0 6.289 6.289 0 0 0-4.517 0z" class="cls-4"/>
        <path id="Path_658" d="M424.622 438.54s-.868-.441-1.727 1.857c0 0-1.51-8.827-.464-10.733 0 0 2.693.28 1.389.517-2.277.419.612 7.419.802 8.359z" class="cls-12"/>
        <path id="Path_659" d="M413.347 438.54s.869-.441 1.727 1.857c0 0 1.51-8.827.464-10.733 0 0-2.692.28-1.388.517 2.277.419-.613 7.419-.803 8.359z" class="cls-12"/>
        <ellipse id="Ellipse_53" cx="28.252" cy="25.81" fill="url(#radial-gradient)" rx="28.252" ry="25.81" transform="translate(391.028 362.535)"/>
        <path id="Path_660" d="M430.356 449.886c-1.378 1.508-6.5 5.273-11.4 4.679-4.9.594-10.156-3.561-11.4-4.679-.64-.578-2.015-2.344-2.629-3.012a86.958 86.958 0 0 1-8.061-11.211 11.839 11.839 0 0 1-2.49 4.964c3.6 7.508 11.512 14.553 24.593 14.553 12.986 0 19.514-7.045 24.575-14.374l-.027-.015c-1.479-.783-2.243-2.887-2.638-4.868a86.389 86.389 0 0 1-7.9 10.951c-.608.668-2.042 2.375-2.623 3.012z" class="cls-4"/>
        <g id="Group_247">
            <path id="Path_661" d="M450.375 386.446l-.029.141.058.149a.579.579 0 0 0-.029-.29z" class="cls-10"/>
            <path id="Path_662" d="M446.188 370.84c-4.469-5.906-5.207-4.332-7.384-6.028a16.027 16.027 0 0 0-3.484-1.97c-.41-.208-4.627-1.849-4.8-1.558-2.168 3.6-8.613 3.115-11.559 3.161-2.3.037-10.029-.626-11-3.222-2.661.469-6.236 2.783-8.832 3.55-1.74.513-2.106.161-5.831 3.621-2.421 2.248-3.942 5.6-4.957 8.72-.8 2.455-.2 5.014-.385 7.529-.594 7.855 1.007 14.148 2.527 21.694a77.583 77.583 0 0 1 1.688 10.175 50.2 50.2 0 0 0 .342-10.487c-.1-1.141-.457-2.257-.517-3.394-.155-2.944 2.355-5.559 2.977-8.375a13.477 13.477 0 0 1 1.743-3.9c.646-1.263 1.321-3.565 1.841-4.894a6.939 6.939 0 0 1 1.928-2.618c1.45-1.193 2.824-1.917 4.376-.539a11.618 11.618 0 0 1 3.122 4.4c1.124 2.78 2.143 5.517 4.579 7.434a11.852 11.852 0 0 0 10.243 1.9c3.539-.984 6.044-3.573 7.883-6.662 1.019-1.711 1.856-3.949 3.171-5.444 2.515-2.858 4.452-2.275 6.193-.286a16.152 16.152 0 0 1 3.514 6.009 20.308 20.308 0 0 1 .723 4.395 9.663 9.663 0 0 1 1.622 4.456c.1 1.2-.4 2.38-.34 3.58a35.166 35.166 0 0 1-.243 4.733c-.1 1.282-.053 2.541-.053 3.821 0 1.243.177 2.508.279 3.75.058.707.112 1.417.2 2.12a150.8 150.8 0 0 1 2.8-15.128 79.455 79.455 0 0 0 1.367-10.815 30.023 30.023 0 0 0-.654-11c-.644-2.484-1.042-5.078-2.248-7.374a9.717 9.717 0 0 0-.831-1.354z" class="cls-10"/>
            <path id="Path_663" d="M450.375 386.446l-.029.141.058.149a.579.579 0 0 0-.029-.29z" class="cls-10"/>
            <path id="Path_664" d="M439.1 365.03c-.1-.066-.2-.139-.3-.218l-.034-.026c-.426-.31-.858-.608-1.3-.883-.617-.348-1.187-.571-2.148-1.061-1.082-.389-2.306-.864-3.344-1.257-.774-.251-1.393-.408-1.458-.3-2.168 3.6-8.613 3.115-11.559 3.161-2.228.035-8.974-1.115-10.3-3.6a31.449 31.449 0 0 0-8.18 3.186s-.885.461-1.353.739c.375 5.175 3.162 12.047 5.171 17.123a2.966 2.966 0 0 1 .278.184l.012.009c.043.032.086.065.129.1s.061.051.092.078l.05.042a11.618 11.618 0 0 1 3.122 4.4c1.124 2.78 2.143 5.517 4.579 7.434a11.852 11.852 0 0 0 10.243 1.9c3.539-.984 6.044-3.573 7.883-6.662 1.019-1.711 1.856-3.949 3.171-5.444q.108-.123.216-.237l.081-.085c.043-.046.086-.091.129-.134l.1-.1.1-.1.115-.108.078-.069c.045-.039.089-.079.133-.116l.026-.021a5.714 5.714 0 0 1 .528-.393c1.618-4.683 4.006-11.486 4.239-17.161-.162-.129-.33-.255-.499-.381z" class="cls-11"/>
        </g>
    </g>
</svg>
