<svg xmlns="http://www.w3.org/2000/svg" xmlns:xlink="http://www.w3.org/1999/xlink" width="132.109" height="117.643" viewBox="0 0 132.109 117.643">
    <defs>
        <linearGradient id="linear-gradient" x1=".5" x2=".5" y1="1" gradientUnits="objectBoundingBox">
            <stop offset=".128" stop-color="#f5cfa3"/>
            <stop offset=".406" stop-color="#f3ca9e"/>
            <stop offset="1" stop-color="#f2c498"/>
        </linearGradient>
        <linearGradient id="linear-gradient-2" x1=".5" x2=".5" y2="1" gradientUnits="objectBoundingBox">
            <stop offset="0" stop-color="#edbc94"/>
            <stop offset=".628" stop-color="#edbd95"/>
            <stop offset=".854" stop-color="#f0c49a"/>
            <stop offset="1" stop-color="#f5cfa3"/>
        </linearGradient>
        <linearGradient id="linear-gradient-3" x1=".5" x2=".5" y1="0" y2="1" xlink:href="#linear-gradient-2"/>
        <radialGradient id="radial-gradient" cx=".5" cy=".5" r=".524" gradientTransform="matrix(.914 0 0 1 .043 0)" gradientUnits="objectBoundingBox">
            <stop offset="0" stop-color="#f4caa6"/>
            <stop offset=".668" stop-color="#f3c9a4"/>
            <stop offset=".908" stop-color="#f2c69d"/>
            <stop offset="1" stop-color="#f2c498"/>
        </radialGradient>
        <style>
            .cls-1{fill:#edbc94}.cls-3{fill:#f2c498}.cls-4{fill:#ecb388}.cls-5{fill:#f7d5a9}.cls-6{fill:#e7a277}.cls-8{fill:#c68260}.cls-10{fill:#423030}.cls-11{fill:#493434}
        </style>
    </defs>
    <g id="Group_333" transform="translate(-499.622 -361.308)">
        <g id="Group_260">
            <g id="Group_249">
                <path id="Path_665" d="M596.92 443.532a43.631 43.631 0 0 1-7.306-2.848c-3.01-1.6-2.986-8.811-2.986-8.811-1.082-2.562-41.709-.063-41.709-.063s-.911 7.911-4.27 9.464a47.924 47.924 0 0 1-5.925 2.15c-3.363 1.026 13.7 15.019 30.865 15.058 17.338.04 34.772-13.882 31.331-14.95z" class="cls-1"/>
            </g>
            <g id="Group_250">
                <path id="Path_666" fill="#a49898" d="M628.825 459.734c-1.644-5.467-5.741-7.613-11.254-10s-13.8-4.081-20.651-6.2c-2.76-.855-20.213 13.865-31.658 14.018s-28.285-14.812-30.538-14.125c-6.761 2.061-15.459 3.932-20.942 6.308-5.512 2.388-9.161 4.534-10.8 10-.555 1.847-3.15 19.093-3.356 19.093l65.8.123h.5l65.8-.123c-.199-.001-2.346-17.247-2.901-19.094z"/>
            </g>
            <g id="Group_251">
                <path id="Path_667" d="M596.086 403.153c-.891-.651-2.81-.365-3.818.069-.005.262-.01.524-.018.786q-.02.758-.056 1.513-.079 1.716-.239 3.424-.08.854-.178 1.7c-.024.21-.05.42-.076.63-.279 1.872-.53 3.333-.61 3.964a67.67 67.67 0 0 1-1.559 6.635 4.346 4.346 0 0 0 3.17-3.275 41.468 41.468 0 0 1 2.756-9.418c1.733-4.881.628-6.028.628-6.028z" class="cls-3"/>
                <path id="Path_668" d="M594.328 410.467s1.628-4.683 1.146-5.217c-.782-.868-2.8 1.459-3.5 3.553q-.08.854-.178 1.7c1.418-3.381 3.173-2.77 2.532-.036z" class="cls-4"/>
                <path id="Path_669" d="M590.837 417.684s1.292-.569 1.474-1.359-.388-1.433.212-1.682 1.224-1.309 1.425-1.609 1.115-3.965.434-5.012-2.6 2.16-2.6 2.16z" class="cls-5"/>
                <path id="Path_670" d="M591.629 411.845c.177-.056 1.557-1.871 1.915-1.641.521.335.162 2.467-.611 3.557a7.737 7.737 0 0 1-1.842 1.482z" class="cls-6"/>
            </g>
            <g id="Group_252">
                <path id="Path_671" d="M535.214 403.153c.892-.651 2.811-.365 3.819.069.005.262.01.524.018.786q.02.758.056 1.513.081 1.716.239 3.424.079.854.178 1.7c.024.21.05.42.076.63.279 1.872.53 3.333.61 3.964a67.687 67.687 0 0 0 1.559 6.635 4.348 4.348 0 0 1-3.169-3.274 41.443 41.443 0 0 0-2.755-9.418c-1.735-4.882-.631-6.029-.631-6.029z" class="cls-3"/>
                <path id="Path_672" d="M536.973 410.467s-1.628-4.683-1.146-5.217c.782-.868 2.8 1.459 3.5 3.553q.079.854.178 1.7c-1.418-3.381-3.173-2.77-2.532-.036z" class="cls-4"/>
                <path id="Path_673" d="M540.464 417.684s-1.292-.569-1.474-1.359.388-1.433-.213-1.682-1.223-1.309-1.424-1.609-1.115-3.965-.434-5.012 2.595 2.16 2.595 2.16z" class="cls-5"/>
                <path id="Path_674" d="M539.672 411.845c-.178-.056-1.557-1.871-1.915-1.641-.521.335-.162 2.467.611 3.557a7.738 7.738 0 0 0 1.842 1.482z" class="cls-6"/>
            </g>
            <path id="Path_675" d="M594.5 385.02c-.521-23.779-28.107-23.718-28.843-23.712s-28.322-.067-28.843 23.712c-.364 16.57-.086 16.01.48 18.744s1.87 8.865 2.136 11.962.257 12.635 4.262 19.258a85.8 85.8 0 0 0 8.289 11.631c.6.651 1.938 2.374 2.562 2.937 1.21 1.091 6.337 5.142 11.114 4.563 4.777.579 9.77-3.093 11.113-4.563.567-.621 1.965-2.286 2.563-2.937a85.8 85.8 0 0 0 8.289-11.631c4.005-6.623 3.994-16.16 4.261-19.258s1.57-9.228 2.137-11.962.848-2.174.48-18.744z" class="cls-3"/>
            <path id="Path_676" d="M562.548 431.445s.3-3.76-2.567-4.835-12.471-2.445-12.87-2.732c.226.163.483.921.644 1.159a12.918 12.918 0 0 0 5.052 4.578c1.781.79 3.769.783 5.717 1.011.448.053 4.04.281 4.024.819z" class="cls-1"/>
            <g id="Group_254">
                <path id="Path_677" fill="#db956e" d="M564.249 448.673a5.144 5.144 0 0 0 2.806 0c2.611-.056 5.644-2.84 5.644-2.84a13.644 13.644 0 0 1-5.644 1.943 5.144 5.144 0 0 1-2.806 0c-2.611-.057-5.965-2.071-5.965-2.071.146.137.288.268.427.4a1.181 1.181 0 0 0-.2-.268s3.127 2.78 5.738 2.836z"/>
                <path id="Path_678" d="M564.327 449.957a12.275 12.275 0 0 1 1.754-.012c2.46.352 4.558-1.771 5.7-2.993a10.293 10.293 0 0 0 .92-1.119s-3.033 2.784-5.644 2.84a5.144 5.144 0 0 1-2.806 0c-2.611-.056-5.742-2.84-5.742-2.84a1.181 1.181 0 0 1 .2.268q.414.379.79.708c2.863 2.499 4.101 3.218 4.828 3.148z" class="cls-6"/>
                <g id="Group_253">
                    <path id="Path_679" d="M564.528 447.767a11.226 11.226 0 0 1-1.226-.131 11.456 11.456 0 0 1-1.461-.376 20.708 20.708 0 0 1-2.542-1.035c-.318-.152-.571-.283-.746-.375s-.269-.145-.269-.145.092.059.262.159.417.241.73.4a16.424 16.424 0 0 0 2.535 1.085 8.432 8.432 0 0 0 2.713.462c.35.025.632.068.826.1s.3.055.3.055-.106-.028-.3-.07a7.779 7.779 0 0 0-.822-.129z" class="cls-8"/>
                    <path id="Path_680" d="M572.443 445.975c-.166.089-.406.217-.71.363-.15.075-.318.15-.5.235s-.373.167-.58.249-.422.169-.648.255c-.113.043-.23.08-.347.122-.06.02-.118.042-.179.061l-.182.056-.182.056-.091.028-.09.024-.356.093c-.117.03-.234.051-.347.075l-.169.036c-.055.011-.111.017-.166.026l-.32.048c-.1.013-.2.017-.3.026l-.285.021c-.092.007-.181.011-.265.023a7.709 7.709 0 0 0-.788.132c-.184.04-.285.067-.285.067s.1-.021.288-.052.455-.072.79-.1c.083-.008.171-.009.262-.013l.287-.013c.099-.005.2-.007.308-.017l.325-.041c.055-.008.112-.013.168-.023l.171-.033c.115-.023.233-.043.351-.071l.361-.092.091-.023.092-.028.183-.056.184-.057c.061-.019.12-.041.179-.062.119-.043.236-.082.35-.126.225-.089.444-.174.648-.267s.4-.181.575-.265.343-.171.491-.252c.3-.158.533-.3.7-.394s.248-.155.248-.155-.096.055-.262.144z" class="cls-8"/>
                </g>
            </g>
            <path id="Path_681" fill="url(#linear-gradient)" d="M571.373 438.942c-.154-.279-.315-.567-.457-.873-.136-.291-.261-.523-.37-.727a5.983 5.983 0 0 1-.576-1.365c-.027-.1-.232-1.094-.319-1.52a28.382 28.382 0 0 0-1.516-5.492 3.842 3.842 0 0 0-2.366-1.457v-.026l-.061.012-.059-.012v.025a3.922 3.922 0 0 0-2.43 1.458 28.382 28.382 0 0 0-1.516 5.492c-.087.426-.292 1.425-.319 1.52a5.937 5.937 0 0 1-.576 1.365c-.109.2-.233.436-.369.727-.143.306-.3.594-.459.873a3.215 3.215 0 0 0-.569 2.919 5.284 5.284 0 0 0 2.143 2.265 16.172 16.172 0 0 1 1.377 1.078 12.691 12.691 0 0 0 2.682.919.192.192 0 0 0 .128 0 12.666 12.666 0 0 0 2.682-.919 16.164 16.164 0 0 1 1.378-1.078 5.288 5.288 0 0 0 2.142-2.265 3.213 3.213 0 0 0-.57-2.919z"/>
            <path id="Path_682" d="M568.795 431.445s-.3-3.76 2.568-4.835 12.478-2.445 12.876-2.732c-.226.163-.483.921-.644 1.159a12.788 12.788 0 0 1-5.054 4.514 19.47 19.47 0 0 1-5.72 1.075c-.448.053-4.042.281-4.026.819z" class="cls-1"/>
            <g id="Group_256">
                <path id="Path_683" d="M548.86 425.714s2.936 5.378 8.288 1.636c0 0-4.718-2.918-8.288-1.636z" class="cls-4"/>
                <g id="Group_255">
                    <path id="Path_684" d="M557.148 427.35l-.325.24c-.053.037-.11.082-.176.126l-.218.136-.254.156-.295.155a5.884 5.884 0 0 1-1.558.541 5.125 5.125 0 0 1-2.033-.036 5.6 5.6 0 0 1-1-.337 6.021 6.021 0 0 1-.857-.476 7.233 7.233 0 0 1-1.256-1.065 7.694 7.694 0 0 1-.7-.856c-.148-.214-.218-.34-.218-.34s.085.116.254.312a9.467 9.467 0 0 0 .763.781 8.305 8.305 0 0 0 1.284.961 6.71 6.71 0 0 0 .838.428 6.061 6.061 0 0 0 .955.309 5.44 5.44 0 0 0 1.928.077 6.451 6.451 0 0 0 1.537-.431l.3-.128c.094-.044.181-.09.263-.131l.228-.114c.07-.037.131-.075.187-.107z" class="cls-10"/>
                </g>
                <path id="Path_685" d="M561.319 428.424s1.717.208 1.09-.732a2.424 2.424 0 0 0-1.236-.742s-10.432-4.722-11.719-5.126-4.348.137-4.989-1.236c0 0-.432 4.577 8.367 5.584 0 0 7.996 2.206 8.487 2.252z" class="cls-10"/>
                <path id="Path_686" d="M552.832 424.612s5.794 1.6 7.82 2.1c-2.123-.959-10.084-4.541-11.2-4.891-1-.315-3.072-.058-4.246-.573.93 1.322 3.004 2.835 7.626 3.364z" class="cls-11"/>
            </g>
            <g id="Group_258">
                <path id="Path_687" d="M582.5 425.714s-2.936 5.378-8.288 1.636c.004 0 4.721-2.918 8.288-1.636z" class="cls-4"/>
                <g id="Group_257">
                    <path id="Path_688" d="M574.216 427.35l.347.2c.056.032.117.07.186.106l.227.114.261.13.3.126a6.23 6.23 0 0 0 1.531.424 5.21 5.21 0 0 0 1.914-.1 6.018 6.018 0 0 0 .943-.326 6.734 6.734 0 0 0 .822-.447 8.159 8.159 0 0 0 1.252-.99 9.494 9.494 0 0 0 .739-.8c.163-.2.245-.317.245-.317s-.067.127-.209.344a7.83 7.83 0 0 1-.67.87 7.175 7.175 0 0 1-1.221 1.093 6.186 6.186 0 0 1-.841.495 5.546 5.546 0 0 1-.99.356 4.936 4.936 0 0 1-2.023.06 5.727 5.727 0 0 1-1.552-.533l-.3-.154c-.09-.053-.173-.107-.252-.155l-.217-.136c-.066-.044-.122-.088-.175-.126z" class="cls-10"/>
                </g>
                <path id="Path_689" d="M570.044 428.424s-1.717.208-1.089-.732a2.424 2.424 0 0 1 1.236-.742s10.431-4.722 11.718-5.126 4.349.137 4.989-1.236c0 0 .433 4.577-8.366 5.584 0 0-7.996 2.206-8.488 2.252z" class="cls-10"/>
                <path id="Path_690" d="M578.578 424.612s-5.794 1.6-7.82 2.1c2.123-.959 10.084-4.541 11.2-4.891 1-.315 3.073-.058 4.247-.573-.931 1.322-3.005 2.835-7.627 3.364z" class="cls-11"/>
            </g>
            <path id="Path_691" d="M563.475 450.847a9.1 9.1 0 0 0 4.4 0 6.127 6.127 0 0 0-4.4 0z" class="cls-4"/>
            <path id="Path_692" fill="url(#linear-gradient-2)" d="M571.184 438.488s-.847-.43-1.684 1.811c0 0-1.473-8.608-.453-10.466 0 0 2.626.273 1.354.505-2.22.403.599 7.234.783 8.15z"/>
            <path id="Path_693" fill="url(#linear-gradient-3)" d="M560.189 438.488s.847-.43 1.684 1.811c0 0 1.473-8.608.452-10.466 0 0-2.625.273-1.353.505 2.22.403-.597 7.234-.783 8.15z"/>
            <path id="Path_694" fill="url(#radial-gradient)" d="M593.524 389.541c0 13.9-12.335 25.168-27.55 25.168s-27.549-11.268-27.549-25.168 12.334-25.168 27.549-25.168 27.55 11.268 27.55 25.168z"/>
            <path id="Path_695" d="M576.774 449.552c-1.343 1.47-6.336 5.142-11.113 4.563-4.777.579-9.9-3.472-11.114-4.563-.624-.563-1.964-2.286-2.562-2.937a84.587 84.587 0 0 1-7.861-10.932 11.553 11.553 0 0 1-2.428 4.841c3.512 7.321 11.225 14.19 23.981 14.19 12.663 0 19.029-6.869 23.964-14.017l-.027-.013c-1.441-.764-2.187-2.816-2.572-4.748a84.253 84.253 0 0 1-7.705 10.679c-.598.651-1.996 2.316-2.563 2.937z" class="cls-4"/>
            <g id="Group_259">
                <path id="Path_696" fill="#d8b49a" d="M585.678 367.043a45.806 45.806 0 0 0-5.7-2.861c-1.142-.4-3.91 3.653-13.98 4.133h-.024c-10.071-.48-13.075-4.88-14.18-4.388-1.9.842-3.231 1.486-5.474 2.508l-.026.012c.371 3.5 2.246 9.688 3.7 13.527.221-3.261 3.755-5.261 7.1-3.3 2.173 1.273.495 3.731.4 8.082-.093 4.184 2.04 8.307 8.5 8.558 6.461-.251 8.594-4.374 8.5-8.558-.1-4.351-1.775-6.809.4-8.082 3.343-1.96 7.287-.223 8.2 2.119a33.891 33.891 0 0 0 2.584-11.75z"/>
                <path id="Path_697" d="M596.3 387.69l-.029.138c.019.048.037.1.057.144a.561.561 0 0 0-.028-.282z" class="cls-10"/>
                <path id="Path_698" d="M596.3 387.69l-.029.138c.019.048.037.1.057.144a.561.561 0 0 0-.028-.282z" class="cls-10"/>
                <path id="Path_699" d="M595.215 380.986c-.628-2.423-1.017-4.952-2.192-7.191a9.488 9.488 0 0 0-.81-1.323c-3.871-5.116-4.871-4.477-6.535-5.429-.261 4.5-2.857 11.414-2.564 11.886s2.262 5.062 3.11 6.032a15.746 15.746 0 0 1 3.428 5.858 19.827 19.827 0 0 1 .705 4.287 9.436 9.436 0 0 1 1.582 4.345c.1 1.17-.4 2.321-.332 3.491a34.408 34.408 0 0 1-.237 4.615c-.1 1.251-.052 2.478-.052 3.727 0 1.211.173 2.445.272 3.657a12.266 12.266 0 0 1 .2 2.067 118.818 118.818 0 0 1 2.731-14.753 77.588 77.588 0 0 0 1.334-10.545 29.308 29.308 0 0 0-.64-10.724z" class="cls-10"/>
                <path id="Path_700" d="M540.634 370.087c-2.361 2.192-3.844 5.465-4.834 8.5-.781 2.394-.191 4.889-.376 7.342-.578 7.659.982 13.8 2.465 21.154a75.611 75.611 0 0 1 1.645 9.922 48.928 48.928 0 0 0 .334-10.226c-.095-1.113-.445-2.2-.5-3.31-.151-2.871 2.3-5.42 2.9-8.166a13.164 13.164 0 0 1 1.7-3.8c.63-1.232 1.288-3.477 1.8-4.773a6.744 6.744 0 0 1 1.88-2.552 12.966 12.966 0 0 0 2.347-4.208c.21-1.022.052-1.1-.483-1.983a50.564 50.564 0 0 1-3.212-11.544c-1.594.721-2.054.289-5.666 3.644z" class="cls-10"/>
            </g>
        </g>
        <path id="Path_701" d="M547.5 377.587a41.255 41.255 0 0 1-2.683-10.145 29.659 29.659 0 0 1 7.033-3.771s14.417 10.167 28.577.252c0 0 5.716 2.987 6.987 4.132s-3.308 13.181-3.314 13.2c.193-.582-.976-2.178-1.333-2.416-2.152-1.439-4.975-2.557-7.207-1.287-3.034 1.726-.692 5.976-.441 8.515a9.725 9.725 0 0 1-2.074 6.833c-1.8 2.185-4.9 2.31-7.513 2.274-2.5-.034-5.773-.614-7.108-3.016-1.609-2.9-1.431-5.794-.62-8.871.515-1.956.559-5.068-1.958-5.582a6.473 6.473 0 0 0-4.913 1.217c-.839.521-.5 1.083-1.666 2.3.003-.002-1.446-2.915-1.767-3.635z" class="cls-10"/>
    </g>
</svg>
