<svg xmlns="http://www.w3.org/2000/svg" xmlns:xlink="http://www.w3.org/1999/xlink" width="133.65" height="119.015" viewBox="0 0 133.65 119.015">
    <defs>
        <linearGradient id="linear-gradient" x1=".5" x2=".5" y1="1" gradientUnits="objectBoundingBox">
            <stop offset=".128" stop-color="#f5cfa3"/>
            <stop offset=".406" stop-color="#f3ca9e"/>
            <stop offset="1" stop-color="#f2c498"/>
        </linearGradient>
        <linearGradient id="linear-gradient-2" x1=".5" x2=".5" y2="1" gradientUnits="objectBoundingBox">
            <stop offset="0" stop-color="#edbc94"/>
            <stop offset=".628" stop-color="#edbd95"/>
            <stop offset=".854" stop-color="#f0c49a"/>
            <stop offset="1" stop-color="#f5cfa3"/>
        </linearGradient>
        <linearGradient id="linear-gradient-3" x1=".5" x2=".5" y1="0" y2="1" xlink:href="#linear-gradient-2"/>
        <radialGradient id="radial-gradient" cx=".5" cy=".5" r=".524" gradientTransform="matrix(.914 0 0 1 .043 0)" gradientUnits="objectBoundingBox">
            <stop offset="0" stop-color="#f4caa6"/>
            <stop offset=".668" stop-color="#f3c9a4"/>
            <stop offset=".908" stop-color="#f2c69d"/>
            <stop offset="1" stop-color="#f2c498"/>
        </radialGradient>
        <style>
            .cls-1{fill:#edbc94}.cls-3{fill:#f2c498}.cls-4{fill:#ecb388}.cls-5{fill:#f7d5a9}.cls-6{fill:#e7a277}.cls-8{fill:#c68260}.cls-10{fill:#423030}.cls-11{fill:#493434}
        </style>
    </defs>
    <g id="Group_335" transform="translate(-796.154 -360.504)">
        <g id="Group_180">
            <g id="Group_170">
                <path id="Path_452" d="M894.586 443.687a44.2 44.2 0 0 1-7.39-2.881c-3.045-1.613-3.022-8.913-3.022-8.913-1.094-2.592-42.2-.065-42.2-.065s-.922 8-4.32 9.575a48.394 48.394 0 0 1-5.994 2.176c-3.4 1.036 13.824 15.921 31.166 15.961 17.564.042 35.245-14.774 31.76-15.853z" class="cls-1"/>
            </g>
            <g id="Group_171">
                <path id="Path_453" fill="#a49898" d="M926.864 460.079c-1.663-5.531-5.808-7.7-11.385-10.118s-13.966-4.129-20.893-6.274c-2.791-.864-20.447 14.028-32.026 14.182s-28.615-14.985-30.9-14.29c-6.84 2.085-15.639 3.978-21.186 6.382-5.577 2.416-9.268 4.587-10.931 10.118-.561 1.868-3.186 19.315-3.394 19.315l66.573.125h.505l66.572-.125c-.199 0-2.373-17.447-2.935-19.315z"/>
            </g>
            <g id="Group_172">
                <path id="Path_454" d="M893.744 402.837c-.9-.658-2.844-.369-3.864.07q-.006.4-.017.8-.021.765-.057 1.53-.081 1.736-.242 3.464-.081.863-.18 1.724l-.077.637c-.282 1.894-.536 3.372-.617 4.011a68.453 68.453 0 0 1-1.578 6.712 4.4 4.4 0 0 0 3.208-3.313 41.927 41.927 0 0 1 2.788-9.528c1.753-4.944.636-6.107.636-6.107z" class="cls-3"/>
                <path id="Path_455" d="M891.964 410.237s1.647-4.737 1.16-5.278c-.791-.878-2.836 1.476-3.542 3.594q-.081.864-.18 1.724c1.435-3.424 3.211-2.806 2.562-.04z" class="cls-4"/>
                <path id="Path_456" d="M888.433 417.538s1.307-.576 1.491-1.375-.393-1.449.215-1.7 1.238-1.325 1.441-1.629 1.128-4.01.439-5.07-2.625 2.185-2.625 2.185z" class="cls-5"/>
                <path id="Path_457" d="M889.234 411.631c.18-.057 1.575-1.893 1.937-1.66.528.339.164 2.495-.617 3.6a7.87 7.87 0 0 1-1.864 1.5z" class="cls-6"/>
            </g>
            <g id="Group_173">
                <path id="Path_458" d="M832.161 402.837c.9-.658 2.844-.369 3.863.07l.018.8q.021.765.057 1.53.081 1.736.242 3.464.081.863.18 1.724c.024.212.051.425.077.637.282 1.894.536 3.372.617 4.011a68.466 68.466 0 0 0 1.577 6.712 4.4 4.4 0 0 1-3.208-3.313 41.894 41.894 0 0 0-2.787-9.528c-1.753-4.944-.636-6.107-.636-6.107z" class="cls-3"/>
                <path id="Path_459" d="M833.941 410.237s-1.647-4.737-1.16-5.278c.791-.878 2.837 1.476 3.542 3.594q.081.864.18 1.724c-1.435-3.424-3.211-2.806-2.562-.04z" class="cls-4"/>
                <path id="Path_460" d="M837.472 417.538s-1.307-.576-1.491-1.375.393-1.449-.215-1.7-1.238-1.325-1.441-1.629-1.129-4.01-.44-5.07 2.626 2.185 2.626 2.185z" class="cls-5"/>
                <path id="Path_461" d="M836.671 411.631c-.18-.057-1.575-1.893-1.937-1.66-.528.339-.164 2.495.617 3.6a7.849 7.849 0 0 0 1.864 1.5z" class="cls-6"/>
            </g>
            <path id="Path_462" d="M892.143 384.492c-.528-24.055-28.436-23.994-29.18-23.988s-28.652-.067-29.18 23.988c-.368 16.764-.086 16.2.486 18.963s1.892 8.969 2.162 12.1.259 12.783 4.311 19.483a86.888 86.888 0 0 0 8.385 11.766c.6.659 1.961 2.4 2.593 2.972 1.223 1.1 6.411 5.2 11.243 4.616 4.833.585 9.884-3.129 11.243-4.616.574-.628 1.988-2.313 2.593-2.972a86.894 86.894 0 0 0 8.385-11.766c4.052-6.7 4.042-16.349 4.312-19.483s1.588-9.335 2.161-12.1.854-2.199.486-18.963z" class="cls-3"/>
            <path id="Path_463" d="M859.814 431.459s.307-3.8-2.6-4.891S844.6 424.1 844.2 423.8c.229.164.489.931.652 1.172a13.081 13.081 0 0 0 5.11 4.631c1.8.8 3.815.792 5.785 1.023.453.058 4.083.289 4.067.833z" class="cls-1"/>
            <g id="Group_175">
                <path id="Path_464" fill="#db956e" d="M861.535 448.889a5.235 5.235 0 0 0 2.838 0c2.642-.057 5.71-2.873 5.71-2.873a13.793 13.793 0 0 1-5.71 1.965 5.209 5.209 0 0 1-2.838 0c-2.642-.057-6.035-2.1-6.035-2.1.148.138.291.271.432.4a1.2 1.2 0 0 0-.207-.27s3.168 2.821 5.81 2.878z"/>
                <path id="Path_465" d="M861.613 450.188a12.485 12.485 0 0 1 1.775-.013c2.489.357 4.611-1.791 5.765-3.027a10.565 10.565 0 0 0 .93-1.132s-3.068 2.816-5.71 2.873a5.235 5.235 0 0 1-2.838 0c-2.642-.057-5.81-2.873-5.81-2.873a1.2 1.2 0 0 1 .207.27q.42.385.8.717c2.893 2.528 4.15 3.256 4.881 3.185z" class="cls-6"/>
                <g id="Group_174">
                    <path id="Path_466" d="M861.817 447.972a11.805 11.805 0 0 1-1.241-.132 11.6 11.6 0 0 1-1.477-.381 20.965 20.965 0 0 1-2.573-1.047c-.321-.154-.577-.286-.753-.379s-.273-.147-.273-.147.093.059.265.16.423.245.739.41a16.574 16.574 0 0 0 2.564 1.1 10.144 10.144 0 0 0 1.494.369 10.317 10.317 0 0 0 1.251.1c.354.025.64.069.836.1s.3.055.3.055-.107-.028-.3-.07a7.855 7.855 0 0 0-.832-.138z" class="cls-8"/>
                    <path id="Path_467" d="M869.825 446.159c-.168.09-.412.219-.719.367-.152.076-.322.152-.5.238s-.377.169-.586.252-.428.171-.656.258c-.114.043-.233.081-.351.124-.06.02-.12.042-.181.061l-.184.057-.185.056-.091.029-.092.024-.36.094c-.118.03-.236.051-.351.076l-.17.036c-.057.012-.113.018-.168.027l-.324.048c-.1.014-.208.017-.308.026l-.288.022c-.094.007-.183.011-.268.023a7.906 7.906 0 0 0-.8.133c-.186.041-.288.068-.288.068s.1-.021.291-.053.461-.072.8-.1c.085-.009.174-.01.266-.013s.19-.009.29-.013.205-.008.312-.018l.328-.042c.057-.007.114-.012.171-.023l.173-.033c.116-.024.235-.043.355-.072l.364-.093.093-.023.092-.028.186-.057.186-.058c.062-.019.122-.042.182-.063.119-.043.238-.083.353-.127.228-.09.449-.177.655-.27s.4-.183.582-.268.347-.173.5-.255c.3-.16.54-.3.7-.4l.251-.156s-.093.056-.26.146z" class="cls-8"/>
                </g>
            </g>
            <path id="Path_468" fill="url(#linear-gradient)" d="M868.742 439.044c-.156-.282-.318-.573-.463-.883-.138-.294-.263-.529-.374-.736a6.072 6.072 0 0 1-.583-1.38c-.027-.1-.234-1.108-.322-1.538a28.715 28.715 0 0 0-1.534-5.557 3.89 3.89 0 0 0-2.394-1.473v-.026l-.061.012-.06-.012v.025a3.965 3.965 0 0 0-2.458 1.474 28.645 28.645 0 0 0-1.534 5.557c-.088.43-.295 1.441-.322 1.538a6.077 6.077 0 0 1-.583 1.38c-.111.207-.237.442-.374.736-.145.31-.307.6-.464.883-.539.969-1 1.806-.576 2.953a5.347 5.347 0 0 0 2.168 2.291 16.345 16.345 0 0 1 1.393 1.091 12.857 12.857 0 0 0 2.714.93.186.186 0 0 0 .064.01.188.188 0 0 0 .065-.01 12.856 12.856 0 0 0 2.714-.93 16.193 16.193 0 0 1 1.393-1.091 5.352 5.352 0 0 0 2.168-2.288c.428-1.15-.037-1.987-.577-2.956z"/>
            <path id="Path_469" d="M866.134 431.459s-.308-3.8 2.6-4.891 12.623-2.473 13.026-2.763c-.229.164-.489.931-.651 1.172a12.937 12.937 0 0 1-5.113 4.566 19.693 19.693 0 0 1-5.788 1.088c-.455.053-4.09.284-4.074.828z" class="cls-1"/>
            <g id="Group_177">
                <path id="Path_470" d="M845.965 425.662s2.971 5.441 8.386 1.655c0 0-4.773-2.952-8.386-1.655z" class="cls-4"/>
                <g id="Group_176">
                    <path id="Path_471" d="M854.351 427.317l-.329.242c-.053.038-.112.084-.178.128l-.221.138-.256.157-.3.157a5.953 5.953 0 0 1-1.577.547 5.183 5.183 0 0 1-2.056-.035 5.767 5.767 0 0 1-1.013-.342 6.014 6.014 0 0 1-.867-.482 7.275 7.275 0 0 1-1.27-1.077 7.826 7.826 0 0 1-.7-.866c-.15-.217-.221-.344-.221-.344s.086.117.257.316a9.67 9.67 0 0 0 .772.79 8.385 8.385 0 0 0 1.3.972 6.715 6.715 0 0 0 .847.433 6.237 6.237 0 0 0 .966.313 5.5 5.5 0 0 0 1.951.077 6.506 6.506 0 0 0 1.556-.436l.3-.129c.095-.045.182-.091.265-.132l.232-.116c.07-.037.132-.076.189-.108z" class="cls-10"/>
                </g>
                <path id="Path_472" d="M858.571 428.4s1.737.211 1.1-.741a2.457 2.457 0 0 0-1.25-.75s-10.554-4.777-11.855-5.186-4.4.139-5.048-1.25c0 0-.437 4.63 8.464 5.649.002.003 8.092 2.235 8.589 2.278z" class="cls-10"/>
                <path id="Path_473" d="M849.984 424.547s5.861 1.617 7.912 2.127c-2.148-.97-10.2-4.594-11.328-4.948-1.012-.319-3.109-.059-4.3-.579.942 1.334 3.04 2.865 7.716 3.4z" class="cls-11"/>
            </g>
            <g id="Group_179">
                <path id="Path_474" d="M880 425.662s-2.97 5.441-8.385 1.655c.003 0 4.776-2.952 8.385-1.655z" class="cls-4"/>
                <g id="Group_178">
                    <path id="Path_475" d="M871.618 427.317l.351.2c.057.032.118.07.188.107l.23.116c.083.04.171.085.264.131l.3.128a6.307 6.307 0 0 0 1.549.429 5.313 5.313 0 0 0 1.937-.1 6.094 6.094 0 0 0 .963-.328 6.964 6.964 0 0 0 .832-.451 8.3 8.3 0 0 0 1.266-1 9.338 9.338 0 0 0 .747-.805c.165-.2.248-.321.248-.321s-.067.129-.211.348a7.748 7.748 0 0 1-.678.88 7.269 7.269 0 0 1-1.235 1.106 6.165 6.165 0 0 1-.851.5 5.605 5.605 0 0 1-1 .361 5 5 0 0 1-2.046.061 5.789 5.789 0 0 1-1.57-.54l-.3-.156c-.092-.053-.176-.107-.255-.156l-.22-.138c-.067-.044-.124-.089-.178-.127z" class="cls-10"/>
                </g>
                <path id="Path_476" d="M867.4 428.4s-1.737.211-1.1-.741a2.457 2.457 0 0 1 1.25-.75s10.553-4.777 11.855-5.186 4.4.139 5.047-1.25c0 0 .438 4.63-8.464 5.649-.004.003-8.088 2.235-8.588 2.278z" class="cls-10"/>
                <path id="Path_477" d="M876.031 424.547s-5.861 1.617-7.912 2.127c2.149-.97 10.2-4.594 11.328-4.948 1.012-.319 3.109-.059 4.3-.579-.947 1.334-3.04 2.865-7.716 3.4z" class="cls-11"/>
            </g>
            <path id="Path_478" d="M860.752 451.087a9.191 9.191 0 0 0 4.455 0 6.2 6.2 0 0 0-4.455 0z" class="cls-4"/>
            <path id="Path_479" fill="url(#linear-gradient-2)" d="M868.55 438.585s-.856-.435-1.7 1.832c0 0-1.49-8.709-.458-10.588 0 0 2.656.276 1.37.51-2.249.408.601 7.319.788 8.246z"/>
            <path id="Path_480" fill="url(#linear-gradient-3)" d="M857.427 438.585s.857-.435 1.7 1.832c0 0 1.49-8.709.458-10.588 0 0-2.656.276-1.37.51 2.25.408-.6 7.319-.788 8.246z"/>
            <ellipse id="Ellipse_49" cx="27.871" cy="25.462" fill="url(#radial-gradient)" rx="27.871" ry="25.462" transform="translate(835.409 363.605)"/>
            <path id="Path_481" d="M844.074 365.836c.84-2.231-4.71 1.864-6.43 3.549a21.423 21.423 0 0 0-4.891 8.6 31.055 31.055 0 0 0-.986 7.427c-.586 7.749 1.721 13.958 3.221 21.4a76.375 76.375 0 0 1 1.544 10.037 49.52 49.52 0 0 0 .338-10.345 28.806 28.806 0 0 1-.161-5.773c.2-1.755 1.481-3.389 1.975-5.565 1.1-4.826 2.15-10.42 6.051-12.465 1.989-1.038-3.297-9.86-.661-16.865z" class="cls-10"/>
            <path id="Path_482" d="M881.583 365.836c-.84-2.231 4.71 1.864 6.43 3.549a21.421 21.421 0 0 1 4.89 8.6 31.109 31.109 0 0 1 .987 7.427c.585 7.749-1.479 13.958-2.979 21.4a76.385 76.385 0 0 0-1.544 10.037 49.72 49.72 0 0 1-.58-10.345c.164-1.914.956-6.7.418-8.986-.341-1.449-1.3-1.708-1.455-3.645-.527-6.671-4.182-9.785-6.828-11.172-1.989-1.038 3.297-9.86.661-16.865z" class="cls-10"/>
            <path id="Path_483" d="M874.206 449.778c-1.359 1.487-6.41 5.2-11.243 4.616-4.832.585-10.02-3.513-11.243-4.616-.632-.57-1.988-2.313-2.593-2.972a85.691 85.691 0 0 1-7.953-11.059 11.676 11.676 0 0 1-2.456 4.9C842.271 448.05 850.074 455 862.979 455c12.811 0 19.251-6.95 24.244-14.18l-.027-.014c-1.458-.772-2.212-2.848-2.6-4.8a85.06 85.06 0 0 1-7.795 10.8c-.607.659-2.021 2.344-2.595 2.972z" class="cls-4"/>
        </g>
        <path id="Path_484" d="M883.471 365.644s-2.375-.875-3.75-1.25c0 0 2 4.75-.75 17.5a1.066 1.066 0 0 0 .625 1.5 6.61 6.61 0 0 1 2.625.625s4.879-7.125 1.25-18.375z" class="cls-10"/>
        <path id="Path_485" d="M842.612 365.616s2.322-.855 3.667-1.222c0 0-1.956 4.644.733 17.11a1.042 1.042 0 0 1-.611 1.467 6.465 6.465 0 0 0-2.567.611s-4.766-6.966-1.222-17.966z" class="cls-10"/>
    </g>
</svg>
