<svg width="136" height="122" viewBox="0 0 136 122" fill="none" xmlns="http://www.w3.org/2000/svg">
<g clip-path="url(#clip0)">
<path d="M67.3141 99.754C79.0511 99.598 96.9492 84.502 99.7792 85.379L99.8682 85.406C97.2575 84.6537 94.7202 83.667 92.2871 82.458C89.2001 80.823 89.2241 73.423 89.2241 73.423C88.1151 70.795 46.4521 73.357 46.4521 73.357C46.4521 73.357 45.5181 81.47 42.0731 83.064C40.0776 83.9397 38.0265 84.6827 35.9331 85.288L35.9971 85.269C38.3081 84.564 55.5771 99.911 67.3141 99.754V99.754Z" fill="#EDBC94"/>
<path d="M132.501 101.995C130.815 96.388 126.614 94.187 120.96 91.738C115.667 89.444 107.909 87.783 101.186 85.802L100.999 85.747L100.523 85.6051L100.339 85.5491L99.871 85.406L99.782 85.379C96.952 84.502 79.0541 99.598 67.3171 99.754C55.5801 99.91 38.3111 84.5641 36.0001 85.2691L35.936 85.288L35.5461 85.405L35.2831 85.484L34.8831 85.604L34.6251 85.6791L34.2061 85.801L33.951 85.8741L33.5301 85.9941L33.2671 86.069L32.8311 86.1911L32.5801 86.2621C26.3271 88.0041 19.2611 89.687 14.5291 91.738C8.87505 94.187 5.12906 96.388 3.44806 101.995C2.87906 103.888 0.21808 121.574 0.00708008 121.573L67.4901 121.7H68.0021L135.485 121.573C135.268 121.574 133.067 103.888 132.501 101.995V101.995Z" fill="#A49898"/>
<path d="M98.9241 43.9701C98.0101 43.3021 96.0422 43.5961 95.0082 44.0411C95.0082 44.3101 94.9981 44.5781 94.9901 44.8471C94.9761 45.3638 94.9571 45.8807 94.9331 46.3981C94.8784 47.5714 94.7965 48.7421 94.6871 49.9101C94.6331 50.4934 94.5725 51.0758 94.5051 51.6571C94.4801 51.8721 94.4541 52.0881 94.4271 52.3031C94.1411 54.2231 93.8831 55.7211 93.8011 56.3691C93.3827 58.6613 92.8487 60.9308 92.2012 63.1691C93.001 62.965 93.7283 62.5429 94.3025 61.9498C94.8766 61.3568 95.275 60.6161 95.4531 59.8101C96.0093 56.4902 96.958 53.2481 98.2792 50.1521C100.057 45.1471 98.9241 43.9701 98.9241 43.9701Z" fill="#F2C498"/>
<path d="M97.121 51.471C97.121 51.471 98.79 46.671 98.297 46.121C97.497 45.231 95.4211 47.621 94.7061 49.764C94.6507 50.348 94.5896 50.9307 94.5229 51.512C95.9779 48.041 97.778 48.667 97.121 51.471V51.471Z" fill="#ECB388"/>
<path d="M93.541 58.8721C93.541 58.8721 94.866 58.2881 95.052 57.4781C95.238 56.6681 94.652 56.0091 95.271 55.7531C95.89 55.4971 96.525 54.4101 96.731 54.1031C96.937 53.7961 97.875 50.0371 97.177 48.9631C96.479 47.8891 94.515 51.1781 94.515 51.1781L93.541 58.8721Z" fill="#F7D5A9"/>
<path d="M94.3533 52.8841C94.5353 52.8261 95.9533 50.9651 96.3173 51.2011C96.8513 51.5451 96.4833 53.7301 95.6913 54.8481C95.1427 55.4487 94.5053 55.9617 93.8013 56.3691L94.3533 52.8841Z" fill="#E7A277"/>
<path d="M36.501 43.9701C37.415 43.3021 39.384 43.5961 40.417 44.0411C40.422 44.3101 40.427 44.5781 40.435 44.8471C40.449 45.3638 40.4683 45.8807 40.493 46.3981C40.5477 47.5714 40.6293 48.7421 40.738 49.9101C40.792 50.4934 40.8527 51.0758 40.92 51.6571C40.945 51.8721 40.971 52.0881 40.998 52.3031C41.284 54.2231 41.542 55.7211 41.624 56.3691C42.0429 58.6612 42.5769 60.9307 43.224 63.1691C42.4243 62.9647 41.697 62.5426 41.1229 61.9496C40.5488 61.3566 40.1503 60.616 39.972 59.8101C39.4158 56.4902 38.4672 53.2481 37.146 50.1521C35.368 45.1471 36.501 43.9701 36.501 43.9701V43.9701Z" fill="#F2C498"/>
<path d="M38.3011 51.471C38.3011 51.471 36.6311 46.671 37.1251 46.121C37.9251 45.231 40.0001 47.621 40.7151 49.764C40.7698 50.348 40.8307 50.9307 40.8981 51.512C39.4461 48.041 37.6461 48.667 38.3011 51.471V51.471Z" fill="#ECB388"/>
<path d="M41.8831 58.8721C41.8831 58.8721 40.5581 58.2881 40.3721 57.4781C40.1861 56.6681 40.7721 56.0091 40.1541 55.7531C39.5361 55.4971 38.8991 54.4101 38.6931 54.1031C38.4871 53.7961 37.5491 50.0371 38.2481 48.9631C38.9471 47.8891 40.9091 51.1781 40.9091 51.1781L41.8831 58.8721Z" fill="#F7D5A9"/>
<path d="M41.0709 52.8841C40.8889 52.8261 39.4709 50.9651 39.1079 51.2011C38.5729 51.5451 38.9409 53.7301 39.7329 54.8481C40.2817 55.4485 40.9191 55.9614 41.6229 56.3691L41.0709 52.8841Z" fill="#E7A277"/>
<path d="M97.3011 25.374C96.7661 0.989983 68.4761 1.05197 67.7221 1.05797C66.9681 1.06397 38.6781 0.989983 38.1431 25.374C37.7701 42.367 38.0551 41.792 38.6361 44.596C39.2171 47.4 40.5531 53.687 40.8261 56.864C41.0991 60.041 41.0891 69.822 45.1971 76.612C47.6942 80.8171 50.5374 84.8069 53.6971 88.54C54.3101 89.208 55.6851 90.975 56.3251 91.552C57.5651 92.671 62.825 96.825 67.725 96.231C72.625 96.825 77.7441 93.06 79.1251 91.552C79.7061 90.916 81.1401 89.208 81.7531 88.54C84.9128 84.8069 87.756 80.8171 90.2531 76.612C94.3611 69.822 94.3531 60.04 94.6231 56.864C94.8931 53.688 96.233 47.4 96.814 44.596C97.395 41.792 97.6751 42.367 97.3011 25.374V25.374Z" fill="#F2C498"/>
<path d="M64.53 72.9831C64.53 72.9831 64.842 69.1281 61.898 68.0261C58.954 66.9241 49.108 65.5181 48.698 65.2261C48.93 65.3931 49.193 66.1701 49.358 66.4141C50.6337 68.4145 52.423 70.0359 54.539 71.1091C56.366 71.9191 58.405 71.9091 60.402 72.1461C60.864 72.1981 64.547 72.4311 64.53 72.9831V72.9831Z" fill="#EDBC94"/>
<path d="M66.2752 90.647C67.2157 90.9137 68.2117 90.9137 69.1522 90.647C71.8302 90.589 74.9412 87.734 74.9412 87.734C73.1824 88.8177 71.2053 89.4984 69.1522 89.7271C68.2115 89.9923 67.2159 89.9923 66.2752 89.7271C63.5972 89.6691 60.1582 87.603 60.1582 87.603C60.3069 87.743 60.4529 87.8784 60.5962 88.009C60.5394 87.908 60.4686 87.8155 60.3862 87.734C60.3862 87.734 63.6012 90.593 66.2752 90.647Z" fill="#DB956E"/>
<path d="M66.3552 91.968C66.9541 91.9204 67.5557 91.9164 68.1552 91.9561C70.6782 92.3171 72.8292 90.1391 73.9992 88.8871C74.3406 88.5268 74.656 88.1428 74.9432 87.738C74.9432 87.738 71.8322 90.593 69.1542 90.651C68.2137 90.9177 67.2176 90.9177 66.2772 90.651C63.5992 90.593 60.3882 87.738 60.3882 87.738C60.4707 87.8195 60.5414 87.912 60.5982 88.013C60.8815 88.273 61.1515 88.515 61.4082 88.739C64.3392 91.302 65.6132 92.04 66.3552 91.968V91.968Z" fill="#E7A277"/>
<path d="M66.5612 89.7221C65.6224 89.6842 64.6942 89.509 63.8062 89.2021C62.9144 88.9063 62.0432 88.5519 61.1982 88.1411C60.8732 87.9841 60.6132 87.8501 60.4342 87.7561C60.2552 87.6621 60.1582 87.6071 60.1582 87.6071C60.1582 87.6071 60.2522 87.6681 60.4272 87.7701C60.6022 87.8721 60.8552 88.0181 61.1752 88.1861C62.009 88.6291 62.8788 89.0011 63.7752 89.2981C64.2696 89.4613 64.7757 89.5866 65.2892 89.6731C65.7094 89.7322 66.1329 89.7656 66.5572 89.7731C66.9162 89.7991 67.2052 89.8431 67.4052 89.8731C67.6052 89.9031 67.7132 89.9281 67.7132 89.9281C67.7132 89.9281 67.6052 89.9001 67.4132 89.8571C67.1318 89.7968 66.8474 89.7518 66.5612 89.7221V89.7221Z" fill="#C68260"/>
<path d="M74.6781 87.8841C74.5081 87.9751 74.2611 88.1061 73.9501 88.2561C73.7961 88.3331 73.6231 88.4111 73.4401 88.4971C73.2571 88.5831 73.0581 88.6691 72.8461 88.7531C72.6341 88.8371 72.4122 88.9261 72.1812 89.0151C72.0652 89.0581 71.9451 89.0971 71.8251 89.1401C71.7641 89.1601 71.7042 89.1831 71.6422 89.2021L71.4551 89.2591L71.2681 89.3171L71.1751 89.3451L71.0822 89.3701L70.7171 89.4701C70.5971 89.5001 70.4781 89.5211 70.3611 89.5471L70.1891 89.5831C70.1321 89.5951 70.0751 89.6011 70.0191 89.6101L69.6901 89.6591C69.5841 89.6721 69.4791 89.6771 69.3781 89.6861L69.0861 89.7081C68.9911 89.7151 68.9001 89.7191 68.8141 89.7311C68.4701 89.7701 68.1951 89.8311 68.0061 89.8661C67.8171 89.9011 67.7131 89.9341 67.7131 89.9341C67.7131 89.9341 67.8131 89.9141 68.0131 89.8811C68.2131 89.8481 68.4801 89.8071 68.8231 89.7811C68.9091 89.7721 68.9991 89.7711 69.0921 89.7671L69.3871 89.7541C69.4891 89.7501 69.5941 89.7461 69.7031 89.7361L70.0351 89.6941C70.0921 89.6861 70.1501 89.6811 70.2081 89.6701L70.3831 89.6361C70.5011 89.6121 70.6221 89.5931 70.7431 89.5631L71.1131 89.4701L71.2072 89.4461L71.3001 89.4171L71.4891 89.3601L71.6771 89.3011C71.7401 89.2821 71.8001 89.2591 71.8611 89.2371C71.9821 89.1941 72.1031 89.1531 72.2191 89.1091C72.4511 89.0171 72.6751 88.9291 72.8841 88.8351C73.0931 88.7411 73.2901 88.6491 73.4741 88.5631C73.6581 88.4771 73.8251 88.3871 73.9741 88.3041C74.2801 88.1431 74.5211 88.0041 74.6871 87.9041C74.8531 87.8041 74.9421 87.7451 74.9421 87.7451C74.9421 87.7451 74.8481 87.7921 74.6781 87.8841V87.8841Z" fill="#C68260"/>
<path d="M73.5811 80.672C73.4221 80.386 73.2582 80.091 73.1112 79.777C72.9642 79.463 72.8451 79.241 72.7321 79.031C72.4784 78.5905 72.2802 78.1203 72.1422 77.631C72.1142 77.531 71.9041 76.5091 71.8151 76.0721C71.4869 74.1473 70.966 72.2605 70.2601 70.44C69.6656 69.6569 68.8001 69.1241 67.8331 68.946V68.92L67.7711 68.932L67.7111 68.92V68.945C66.7233 69.1157 65.8347 69.6488 65.2191 70.44C64.5133 72.2605 63.9924 74.1473 63.6641 76.0721C63.5751 76.5091 63.3641 77.534 63.3371 77.631C63.1988 78.1204 63.0003 78.5906 62.7461 79.031C62.6341 79.241 62.5071 79.478 62.3671 79.777C62.2271 80.076 62.0561 80.386 61.8971 80.672C61.3511 81.654 60.8791 82.503 61.3131 83.666C61.7968 84.6433 62.5634 85.4524 63.5131 85.988C64.0036 86.3306 64.475 86.6998 64.9251 87.094C65.8043 87.5093 66.727 87.8252 67.6762 88.036C67.697 88.0435 67.719 88.0473 67.7412 88.047C67.7636 88.0473 67.786 88.0436 67.8071 88.036C68.7562 87.825 69.6789 87.5091 70.5581 87.094C71.008 86.6996 71.4794 86.3304 71.9701 85.988C72.9202 85.4528 73.6869 84.6436 74.1701 83.666C74.6011 82.503 74.1281 81.654 73.5811 80.672V80.672Z" fill="url(#paint0_linear)"/>
<path d="M70.937 72.9831C70.937 72.9831 70.625 69.1281 73.571 68.0261C76.517 66.9241 86.366 65.5181 86.771 65.2261C86.539 65.3931 86.271 66.1701 86.11 66.4141C84.8306 68.3952 83.0404 69.9944 80.928 71.0431C79.0384 71.7013 77.0607 72.0721 75.061 72.1431C74.606 72.1981 70.921 72.4311 70.937 72.9831V72.9831Z" fill="#EDBC94"/>
<path d="M50.4929 67.107C50.4929 67.107 53.5039 72.622 58.9929 68.784C58.9929 68.784 54.1539 65.792 50.4929 67.107Z" fill="#ECB388"/>
<path d="M58.9929 68.784L58.6599 69.03C58.6059 69.068 58.5469 69.114 58.4789 69.159L58.2549 69.3C58.1739 69.349 58.0879 69.4 57.9949 69.459L57.6949 69.618C57.1904 69.8774 56.6517 70.0639 56.0948 70.172C55.4048 70.2999 54.6961 70.2877 54.0109 70.136C53.6585 70.0529 53.3147 69.937 52.9839 69.79C52.6781 69.6515 52.3841 69.4883 52.1049 69.302C51.6354 68.9886 51.2036 68.6222 50.8179 68.21C50.5588 67.9348 50.3199 67.6414 50.1029 67.332C49.9509 67.112 49.8789 66.984 49.8789 66.984C49.8789 66.984 49.9659 67.102 50.1399 67.303C50.3848 67.5847 50.6459 67.8518 50.9219 68.103C51.3281 68.4733 51.7692 68.8035 52.2389 69.089C52.5148 69.255 52.8018 69.4017 53.0979 69.528C53.4153 69.6595 53.7427 69.7654 54.0769 69.845C54.726 69.9886 55.3955 70.0151 56.0539 69.923C56.596 69.8424 57.1258 69.6939 57.6309 69.481L57.9409 69.35C58.0409 69.305 58.1259 69.258 58.2099 69.216L58.4439 69.099C58.5159 69.061 58.5779 69.022 58.6359 68.99L58.9929 68.784Z" fill="#423030"/>
<path d="M63.27 69.886C63.27 69.886 65.031 70.099 64.388 69.135C64.0522 68.7587 63.61 68.4934 63.12 68.374C63.12 68.374 52.42 63.532 51.103 63.117C49.786 62.702 46.644 63.257 45.987 61.849C45.987 61.849 45.543 66.543 54.567 67.576C54.567 67.576 62.767 69.839 63.27 69.886Z" fill="#423030"/>
<path d="M54.5671 65.9771C54.5671 65.9771 60.5081 67.616 62.5861 68.133C60.4091 67.15 52.2451 63.476 51.1031 63.117C50.0781 62.794 47.952 63.057 46.748 62.53C47.701 63.882 49.8271 65.4341 54.5671 65.9771Z" fill="#493434"/>
<path d="M84.9961 67.107C84.9961 67.107 81.9851 72.622 76.4961 68.784C76.4961 68.784 81.3341 65.792 84.9961 67.107Z" fill="#ECB388"/>
<path d="M76.4961 68.784L76.8521 68.989C76.9091 69.022 76.9721 69.0611 77.0421 69.0981L77.2761 69.215L77.5432 69.3481L77.8521 69.478C78.3549 69.6889 78.8825 69.8347 79.4221 69.912C80.077 70.0003 80.7426 69.9664 81.3851 69.812C81.7161 69.7271 82.0396 69.6151 82.3522 69.4771C82.6434 69.344 82.925 69.191 83.1951 69.019C83.6552 68.7234 84.0853 68.3834 84.4791 68.004C84.7469 67.7464 84.9996 67.4736 85.2361 67.187C85.4041 66.987 85.4882 66.863 85.4882 66.863C85.4882 66.863 85.4192 66.993 85.2742 67.215C85.0662 67.5282 84.8363 67.8263 84.5862 68.107C84.2137 68.5276 83.7938 68.9037 83.3351 69.228C83.0613 69.4199 82.7728 69.5897 82.4722 69.7361C82.1457 69.8894 81.8056 70.0116 81.4562 70.101C80.7765 70.2647 80.0703 70.2858 79.3821 70.163C78.8279 70.058 78.2916 69.8734 77.7901 69.6151L77.4901 69.458C77.3981 69.403 77.3121 69.348 77.2321 69.299L77.0091 69.159C76.9421 69.114 76.8831 69.069 76.8291 69.031L76.4961 68.784Z" fill="#423030"/>
<path d="M72.2181 69.886C72.2181 69.886 70.4571 70.099 71.1011 69.135C71.4366 68.7589 71.8784 68.4935 72.3681 68.374C72.3681 68.374 83.0681 63.532 84.3851 63.117C85.7021 62.702 88.845 63.257 89.502 61.849C89.502 61.849 89.9451 66.543 80.9221 67.576C80.9221 67.576 72.7221 69.839 72.2181 69.886V69.886Z" fill="#423030"/>
<path d="M80.9692 65.9771C80.9692 65.9771 75.0282 67.616 72.9492 68.133C75.1272 67.15 83.2912 63.476 84.4332 63.117C85.4582 62.794 87.5842 63.057 88.7882 62.53C87.8362 63.882 85.7092 65.4341 80.9692 65.9771Z" fill="#493434"/>
<path d="M65.481 92.88C66.9639 93.2501 68.515 93.2501 69.9979 92.88C68.5443 92.3201 66.9346 92.3201 65.481 92.88V92.88Z" fill="#ECB388"/>
<path d="M73.3872 80.207C73.3872 80.207 72.5182 79.765 71.6602 82.064C71.6602 82.064 70.1502 73.2361 71.1962 71.3311C71.1962 71.3311 73.8882 71.6111 72.5842 71.8481C70.3072 72.2621 73.1962 79.267 73.3872 80.207Z" fill="url(#paint1_linear)"/>
<path d="M62.1111 80.207C62.1111 80.207 62.9801 79.765 63.8381 82.064C63.8381 82.064 65.3481 73.2361 64.3021 71.3311C64.3021 71.3311 61.6101 71.6111 62.9141 71.8481C65.1911 72.2621 62.3011 79.267 62.1111 80.207Z" fill="url(#paint2_linear)"/>
<path d="M67.4991 54.8461C83.1022 54.8461 95.7511 43.2905 95.7511 29.0361C95.7511 14.7816 83.1022 3.22607 67.4991 3.22607C51.8959 3.22607 39.2471 14.7816 39.2471 29.0361C39.2471 43.2905 51.8959 54.8461 67.4991 54.8461Z" fill="url(#paint3_radial)"/>
<path d="M99.153 28.401C99.1752 28.1736 99.1222 27.9453 99.002 27.751C98.902 27.62 98.771 27.541 98.72 27.372C98.52 26.709 98.9251 26.08 98.4311 25.472C98.3181 25.333 98.6581 25.13 98.7231 24.995C98.8231 24.778 98.6631 24.395 98.5981 24.195C98.4821 23.828 98.211 23.44 98.298 23.039C98.3366 22.8738 98.4225 22.7233 98.5451 22.606C98.5451 22.429 98.355 22.306 98.453 22.115L98.3061 22.387L98.2841 22.151L98.355 22.213C98.218 22.077 97.818 21.864 97.866 21.637C97.9833 21.0734 97.96 20.4895 97.798 19.937C97.465 18.778 96.67 17.804 96.398 16.625C96.845 16.625 96.9321 17.213 97.3791 17.213C96.7946 15.4277 96.0134 13.7128 95.0501 12.1C95.4221 12.1 95.569 12.518 95.907 12.6C95.3077 11.3275 94.3105 10.2846 93.0661 9.62899C92.5434 9.43186 92.0056 9.27738 91.458 9.16702C91.3408 9.12202 91.2394 9.04368 91.1662 8.94168C91.093 8.83968 91.0512 8.71847 91.0461 8.59301C91.0461 8.13401 91.637 8.578 91.846 8.578C91.3528 8.02906 90.7728 7.56489 90.1291 7.20401C89.5291 6.84801 89.002 6.39201 88.429 5.99701C87.2746 5.20825 86.0603 4.51113 84.797 3.91201C82.4502 2.81109 79.993 1.96233 77.467 1.38C75.4348 0.899118 73.373 0.553695 71.295 0.346005C70.603 0.276005 69.909 0.220011 69.214 0.183011C68.574 0.148011 67.9671 -0.016982 67.3141 0.003018C66.4745 0.0181464 65.658 0.280763 64.967 0.757992C65.327 0.937992 65.751 0.689011 65.751 1.26501C63.8442 0.49608 61.7844 0.181781 59.735 0.347012C58.9572 0.375754 58.2024 0.617906 57.553 1.04699C57.384 1.22599 57.834 1.24701 57.912 1.24701C58.512 1.26801 59.166 1.10599 59.67 1.53799C57.6126 1.85877 55.5219 1.9062 53.4521 1.67901C51.9521 1.57401 49.7361 1.33501 48.5751 2.54501C49.4494 2.85987 50.3039 3.22721 51.134 3.64502C51.194 3.66802 51.634 3.78901 51.617 3.80301C51.487 3.93801 51.15 3.97 50.98 4.013C50.599 4.107 46.37 4.92999 46.396 5.05999C46.396 5.05099 47.263 5.45001 47.318 5.48501C47.927 5.87201 46.5661 6.84402 46.2181 7.02902C45.4091 7.46302 44.5091 7.69302 43.6941 8.11502C42.7551 8.60102 42.3851 9.65201 41.5101 10.2C41.6581 10.1 42.616 9.656 42.482 10.1C42.368 10.476 41.9531 10.749 41.6501 10.962C40.7452 11.4474 39.9067 12.0474 39.1551 12.747C40.1111 12.747 40.927 11.964 41.901 12.158C41.589 12.366 41.445 12.758 41.117 12.943C40.762 13.143 40.404 13.343 40.057 13.559C39.3468 13.9652 38.7368 14.5256 38.272 15.199C38.372 15.099 39.5591 14.099 39.6371 14.579C39.6771 14.833 39.175 15.219 39.026 15.367C38.0946 16.0841 37.3346 16.9995 36.8011 18.047C36.9161 17.893 37.786 17.029 38.001 17.388C38.101 17.551 37.965 17.866 37.914 18.023C37.6417 18.7986 37.316 19.5544 36.9391 20.285C36.6651 20.7651 36.4226 21.2625 36.2131 21.774C35.9531 22.574 37.472 23.086 37.44 23.921C36.944 24.4309 36.5822 25.0559 36.3871 25.74C36.3091 26.0634 36.3091 26.4006 36.3871 26.724C36.4826 26.7183 36.5784 26.7326 36.6681 26.766C36.9881 26.913 36.631 27.614 36.568 27.817C35.7877 30.4126 35.6332 33.1561 36.117 35.823C36.461 37.9713 36.9675 40.0904 37.6321 42.162C38.2321 44.11 38.972 46.004 39.375 48.004C40.1214 51.3569 40.644 54.7557 40.9391 58.178C41.4195 54.7043 41.5344 51.1897 41.282 47.692C41.182 46.55 40.8251 45.434 40.7651 44.292C40.7345 42.6958 41.1501 41.1228 41.9651 39.75C42.8562 38.5247 43.7585 37.3076 44.672 36.099C45.463 35.321 46.5291 34.939 47.2231 34.044C47.4494 33.749 47.6457 33.4321 47.8091 33.098C48.6818 34.1843 49.8351 35.0111 51.144 35.489C51.7736 35.7581 52.435 35.9459 53.112 36.048C52.7514 36.0901 52.387 36.0877 52.027 36.041C52.8891 37.8304 54.366 39.2501 56.188 40.041C57.0859 40.4317 58.0336 40.6962 59.0041 40.827C59.5247 40.8994 60.0494 40.9385 60.5751 40.944C60.8691 40.944 61.057 41.136 61.328 41.26C65.615 43.217 70.9641 41.572 74.7831 39.281C74.8931 40.266 74.275 40.458 73.41 40.458C78.555 42.058 84.175 39.792 88.683 37.351C89.14 37.104 89.603 36.851 90.037 36.569C90.597 37.124 91.2281 37.6 91.8061 38.134C92.5822 38.8539 93.2064 39.7218 93.6419 40.6867C94.0774 41.6515 94.3155 42.6938 94.3421 43.752C94.3674 45.3333 94.2865 46.9145 94.1 48.485C94 49.767 94.0461 51.026 94.0461 52.306C94.0461 53.549 94.224 54.814 94.325 56.056C94.383 56.763 94.4371 57.473 94.5251 58.176C95.0353 53.4972 95.8152 48.8518 96.861 44.263C97.033 43.512 97.3051 42.789 97.4841 42.04C97.7792 40.6585 97.9436 39.2523 97.975 37.84C98.051 36.191 98.0571 34.54 98.0411 32.887C98.0397 32.0933 98.1528 31.3035 98.377 30.542C98.4671 30.1967 98.5835 29.8587 98.725 29.531C98.9551 29.1908 99.1046 28.8026 99.162 28.396L99.153 28.401Z" fill="#423030"/>
<path d="M94.33 43.754C94.3035 42.6957 94.0655 41.6535 93.6299 40.6886C93.1944 39.7238 92.5701 38.8559 91.794 38.136C91.216 37.602 90.5851 37.126 90.0251 36.571C89.5911 36.857 89.1251 37.106 88.6711 37.353C84.1631 39.794 78.5431 42.053 73.3981 40.46C74.2631 40.46 74.881 40.268 74.771 39.283C70.952 41.574 65.603 43.219 61.316 41.262C61.045 41.138 60.857 40.95 60.563 40.946C60.0374 40.9405 59.5127 40.9014 58.9921 40.829C58.0216 40.6982 57.074 40.4336 56.1761 40.043C54.3541 39.2521 52.8772 37.8324 52.0151 36.043C52.3703 36.0832 52.7286 36.0895 53.0851 36.062C52.4152 35.9432 51.7604 35.7517 51.1321 35.491C49.8231 35.0131 48.6698 34.1863 47.797 33.1C47.6337 33.434 47.4374 33.7509 47.211 34.046C46.517 34.941 45.451 35.323 44.66 36.101C43.7465 37.3096 42.8441 38.5267 41.953 39.752C41.1381 41.1248 40.7225 42.6978 40.753 44.294C40.7719 44.6144 40.8083 44.9335 40.862 45.25C41.0643 44.2194 41.4318 43.2284 41.9501 42.315C42.8411 41.0897 43.7435 39.8726 44.657 38.664C45.448 37.886 46.5141 37.504 47.2081 36.609C47.4344 36.3139 47.6307 35.997 47.7941 35.663C48.6668 36.7493 49.8201 37.5761 51.1291 38.054C51.7574 38.3147 52.4123 38.5062 53.0821 38.625C53.0871 38.6231 53.0913 38.6196 53.094 38.615L53.0821 38.625C52.7256 38.653 52.3673 38.6467 52.0121 38.606C52.8739 40.3956 54.3508 41.8154 56.173 42.606C57.0709 42.9967 58.0186 43.2612 58.9891 43.392C59.5097 43.4644 60.0344 43.5035 60.56 43.509C60.854 43.509 61.042 43.701 61.313 43.825C65.6 45.782 70.9491 44.138 74.7681 41.846C74.8781 42.831 74.2601 43.023 73.3951 43.023C78.5401 44.623 84.16 42.357 88.668 39.916C89.125 39.669 89.588 39.416 90.022 39.134C90.582 39.689 91.2131 40.165 91.7911 40.7C93.264 42.0585 94.1612 43.929 94.299 45.928C94.3524 45.2046 94.3627 44.4786 94.33 43.754V43.754Z" fill="#EDBC94"/>
<path d="M95.8409 40.824C96.6739 37.607 91.128 32.938 91.128 32.938C89.006 38.255 74.9409 40.824 74.9409 40.824C75.6049 40.858 76.2549 40.916 76.8929 40.993C80.9929 41.038 85.168 39.25 88.671 37.353C89.128 37.106 89.591 36.853 90.025 36.571C90.585 37.126 91.2159 37.602 91.7939 38.136C92.57 38.8559 93.1943 39.7238 93.6298 40.6886C94.0654 41.6535 94.3034 42.6957 94.3299 43.754C94.3552 45.3353 94.2744 46.9165 94.088 48.487C94.081 48.573 94.076 48.659 94.071 48.745C95.4062 46.3282 96.0204 43.5792 95.8409 40.824V40.824Z" fill="#382828"/>
<path d="M44.642 27.9021C43.613 28.2291 43.865 30.5761 43.751 31.3931C43.381 34.0501 41.298 35.5461 40.434 37.9121C39.8207 39.6978 39.6579 41.6073 39.96 43.4711C40.166 44.8801 40.16 45.4341 40.098 44.2971C40.014 42.7041 41.19 41.1351 41.953 39.7551C42.8441 38.5298 43.7464 37.3127 44.66 36.1041C45.451 35.3261 46.517 34.9441 47.211 34.0491C47.259 33.9881 47.304 33.9251 47.349 33.8621L47.797 33.1031C44.558 31.8361 45.53 27.6211 44.642 27.9021V27.9021Z" fill="#382828"/>
<path d="M43.808 20.0801C43.808 20.0801 43.3851 20.4801 42.6891 25.1061C42.1891 28.4061 43.4021 31.8981 41.1161 34.1861C40.3237 34.7731 39.6578 35.5138 39.1582 36.3639C38.6585 37.2141 38.3354 38.1562 38.208 39.1341C37.623 42.1621 34.571 22.8711 43.808 20.0801Z" fill="#493434"/>
<path d="M91.9361 16.7271C91.7553 18.7192 91.7888 20.725 92.0361 22.7101C92.2941 26.0361 90.836 29.433 92.954 31.88C93.7022 32.5224 94.3133 33.309 94.7505 34.1928C95.1878 35.0766 95.4424 36.0396 95.4991 37.024C95.8691 40.086 100.949 20.1741 91.9361 16.7271V16.7271Z" fill="#493434"/>
<path d="M79.1201 91.5469C77.7421 93.0549 72.6201 96.82 67.7201 96.226C62.8201 96.82 57.5631 92.6659 56.3201 91.5469C55.6801 90.9699 54.3051 89.2029 53.6921 88.5349C50.7113 85.0184 48.0154 81.2699 45.6301 77.325C45.2054 79.1536 44.352 80.8551 43.1401 82.2889C46.7401 89.7959 54.6521 96.8409 67.7331 96.8409C80.7191 96.8409 87.2471 89.7959 92.3081 82.4669L92.2811 82.4529C90.8031 81.6699 90.0391 79.565 89.6431 77.584C87.2999 81.4351 84.6585 85.0966 81.7432 88.5349C81.1352 89.2079 79.7011 90.9159 79.1201 91.5469V91.5469Z" fill="#ECB388"/>
<path d="M93.1026 28.4897C94.4396 27.9123 94.6956 25.5276 93.6745 23.1634C92.6534 20.7991 90.7417 19.3507 89.4047 19.9282C88.0677 20.5056 87.8117 22.8903 88.8328 25.2545C89.8539 27.6187 91.7656 29.0672 93.1026 28.4897Z" fill="#F3C39F"/>
<path d="M67.7581 18.744C73.028 18.744 77.3001 16.5932 77.3001 13.94C77.3001 11.2868 73.028 9.13599 67.7581 9.13599C62.4882 9.13599 58.2161 11.2868 58.2161 13.94C58.2161 16.5932 62.4882 18.744 67.7581 18.744Z" fill="#F3C39F"/>
</g>
<defs>
<linearGradient id="paint0_linear" x1="67.7406" y1="88.047" x2="67.7406" y2="68.92" gradientUnits="userSpaceOnUse">
<stop offset="0.128" stop-color="#F5CFA3"/>
<stop offset="0.406" stop-color="#F3CA9E"/>
<stop offset="1" stop-color="#F2C498"/>
</linearGradient>
<linearGradient id="paint1_linear" x1="72.1072" y1="71.3311" x2="72.1072" y2="82.064" gradientUnits="userSpaceOnUse">
<stop stop-color="#EDBC94"/>
<stop offset="0.628" stop-color="#EDBD95"/>
<stop offset="0.854" stop-color="#F0C49A"/>
<stop offset="1" stop-color="#F5CFA3"/>
</linearGradient>
<linearGradient id="paint2_linear" x1="63.3911" y1="71.3311" x2="63.3911" y2="82.064" gradientUnits="userSpaceOnUse">
<stop stop-color="#EDBC94"/>
<stop offset="0.628" stop-color="#EDBD95"/>
<stop offset="0.854" stop-color="#F0C49A"/>
<stop offset="1" stop-color="#F5CFA3"/>
</linearGradient>
<radialGradient id="paint3_radial" cx="0" cy="0" r="1" gradientUnits="userSpaceOnUse" gradientTransform="translate(65.1124 29.0361) scale(27.0618 27.0489)">
<stop stop-color="#F4CAA6"/>
<stop offset="0.668" stop-color="#F3C9A4"/>
<stop offset="0.908" stop-color="#F2C69D"/>
<stop offset="1" stop-color="#F2C498"/>
</radialGradient>
<clipPath id="clip0">
<rect width="135.478" height="121.701" fill="white"/>
</clipPath>
</defs>
</svg>
