<svg xmlns="http://www.w3.org/2000/svg" width="135.477" height="121.701" viewBox="0 0 135.477 121.701">
    <defs>
        <linearGradient id="linear-gradient" x1=".5" x2=".5" y1="1" gradientUnits="objectBoundingBox">
            <stop offset=".128" stop-color="#f5cfa3"/>
            <stop offset=".406" stop-color="#f3ca9e"/>
            <stop offset="1" stop-color="#f2c498"/>
        </linearGradient>
        <linearGradient id="linear-gradient-2" x1=".5" x2=".5" y2="1" gradientUnits="objectBoundingBox">
            <stop offset="0" stop-color="#edbc94"/>
            <stop offset=".628" stop-color="#edbd95"/>
            <stop offset=".854" stop-color="#f0c49a"/>
            <stop offset="1" stop-color="#f5cfa3"/>
        </linearGradient>
        <radialGradient id="radial-gradient" cx=".5" cy=".5" r=".524" gradientTransform="matrix(.914 0 0 1 .043 0)" gradientUnits="objectBoundingBox">
            <stop offset="0" stop-color="#f4caa6"/>
            <stop offset=".668" stop-color="#f3c9a4"/>
            <stop offset=".908" stop-color="#f2c69d"/>
            <stop offset="1" stop-color="#f2c498"/>
        </radialGradient>
        <style>
            .cls-1{fill:#edbc94}.cls-3{fill:#f2c498}.cls-4{fill:#ecb388}.cls-5{fill:#f7d5a9}.cls-6{fill:#e7a277}.cls-8{fill:#c68260}.cls-10{fill:#423030}.cls-11{fill:#493434}.cls-12{fill:url(#linear-gradient-2)}.cls-15,.cls-16{fill:none;stroke:#332020;stroke-miterlimit:10}.cls-16{stroke-width:.5px}
        </style>
    </defs>
    <g id="Group_337" transform="translate(-1097.044 -358.253)">
        <g id="Group_272">
            <g id="Group_271">
                <path id="Path_702" d="M1164.357 458.007c11.738-.156 29.635-15.252 32.465-14.375l.089.027a45.111 45.111 0 0 1-7.581-2.948c-3.086-1.635-3.062-9.035-3.062-9.035-1.11-2.628-42.773-.066-42.773-.066s-.934 8.113-4.379 9.707a49.486 49.486 0 0 1-6.139 2.224l.063-.019c2.311-.705 19.58 14.642 31.317 14.485z" class="cls-1"/>
                <path id="Path_703" fill="#a49898" d="M1229.541 460.248c-1.686-5.607-5.887-7.808-11.541-10.257-5.293-2.294-13.051-3.955-19.773-5.936l-.188-.055-.475-.142-.184-.056-.469-.143-.089-.027c-2.83-.877-20.727 14.219-32.465 14.375s-29.006-15.19-31.317-14.485l-.063.019-.391.117-.263.079-.4.12-.257.075-.42.122-.255.073-.421.12-.263.075-.435.122-.252.071c-6.253 1.742-13.319 3.425-18.051 5.476-5.653 2.449-9.395 4.65-11.08 10.257-.569 1.893-3.231 19.579-3.441 19.578l67.483.127h.512l67.482-.127c-.214.001-2.415-17.685-2.984-19.578z"/>
                <g id="Group_262">
                    <path id="Path_704" d="M1195.968 402.223c-.915-.668-2.883-.374-3.917.071 0 .269-.01.537-.017.806q-.021.775-.058 1.551-.082 1.76-.245 3.512-.082.875-.183 1.747c-.024.215-.051.431-.078.646-.285 1.92-.543 3.418-.625 4.066a69.365 69.365 0 0 1-1.6 6.8 4.46 4.46 0 0 0 3.251-3.359 42.556 42.556 0 0 1 2.826-9.658c1.778-5.005.646-6.182.646-6.182z" class="cls-3"/>
                    <path id="Path_705" d="M1194.164 409.724s1.669-4.8 1.176-5.35c-.8-.89-2.876 1.5-3.591 3.643q-.081.876-.182 1.748c1.455-3.471 3.255-2.845 2.597-.041z" class="cls-4"/>
                    <path id="Path_706" d="M1190.584 417.125s1.325-.584 1.512-1.394-.4-1.469.218-1.725 1.255-1.343 1.46-1.65 1.144-4.066.446-5.14-2.662 2.215-2.662 2.215z" class="cls-5"/>
                    <path id="Path_707" d="M1191.4 411.137c.182-.058 1.6-1.919 1.963-1.683.535.344.166 2.529-.626 3.647a7.943 7.943 0 0 1-1.889 1.521z" class="cls-6"/>
                </g>
                <g id="Group_263">
                    <path id="Path_708" d="M1133.543 402.223c.915-.668 2.883-.374 3.916.071.005.269.011.537.018.806q.021.775.058 1.551.082 1.76.245 3.512.082.875.183 1.747c.024.215.051.431.078.646.285 1.92.543 3.418.625 4.066a69.4 69.4 0 0 0 1.6 6.8 4.463 4.463 0 0 1-3.252-3.359 42.523 42.523 0 0 0-2.825-9.658c-1.778-5.005-.646-6.182-.646-6.182z" class="cls-3"/>
                    <path id="Path_709" d="M1135.347 409.724s-1.67-4.8-1.176-5.35c.8-.89 2.876 1.5 3.591 3.643q.081.876.182 1.748c-1.455-3.471-3.255-2.845-2.597-.041z" class="cls-4"/>
                    <path id="Path_710" d="M1138.927 417.125s-1.326-.584-1.512-1.394.4-1.469-.218-1.725-1.255-1.343-1.46-1.65-1.144-4.066-.446-5.14 2.662 2.215 2.662 2.215z" class="cls-5"/>
                    <path id="Path_711" d="M1138.114 411.137c-.182-.058-1.6-1.919-1.963-1.683-.535.344-.166 2.529.626 3.647a7.948 7.948 0 0 0 1.889 1.521z" class="cls-6"/>
                </g>
                <path id="Path_712" d="M1194.345 383.627c-.535-24.384-28.825-24.322-29.579-24.316s-29.044-.068-29.579 24.316c-.372 16.993-.087 16.418.493 19.222s1.917 9.091 2.191 12.268.263 12.958 4.37 19.748a88.152 88.152 0 0 0 8.5 11.928c.613.668 1.988 2.435 2.629 3.012 1.239 1.119 6.5 5.273 11.4 4.679 4.9.594 10.02-3.171 11.4-4.679.582-.636 2.015-2.344 2.629-3.012a88.192 88.192 0 0 0 8.5-11.928c4.108-6.79 4.1-16.572 4.371-19.748s1.61-9.464 2.19-12.268.858-2.229.485-19.222z" class="cls-3"/>
                <path id="Path_713" d="M1161.574 431.236s.312-3.855-2.632-4.957-12.79-2.508-13.2-2.8c.232.167.495.944.66 1.188a13.257 13.257 0 0 0 5.181 4.695c1.827.81 3.866.8 5.864 1.037.46.052 4.143.285 4.127.837z" class="cls-1"/>
                <g id="Group_265">
                    <path id="Path_714" fill="#db956e" d="M1163.318 448.9a5.277 5.277 0 0 0 2.878 0c2.677-.058 5.788-2.913 5.788-2.913a13.987 13.987 0 0 1-5.788 1.993 5.3 5.3 0 0 1-2.878 0c-2.677-.058-6.117-2.124-6.117-2.124.15.14.295.275.438.406a1.277 1.277 0 0 0-.209-.275s3.211 2.859 5.888 2.913z"/>
                    <path id="Path_715" d="M1163.4 450.221a12.409 12.409 0 0 1 1.8-.012c2.523.361 4.674-1.817 5.843-3.069a10.534 10.534 0 0 0 .944-1.149s-3.111 2.855-5.788 2.913a5.277 5.277 0 0 1-2.878 0c-2.677-.058-5.888-2.913-5.888-2.913a1.277 1.277 0 0 1 .209.275q.424.39.811.726c2.93 2.563 4.203 3.301 4.947 3.229z" class="cls-6"/>
                    <g id="Group_264">
                        <path id="Path_716" d="M1163.6 447.975a9.635 9.635 0 0 1-2.756-.52 21.373 21.373 0 0 1-2.608-1.061c-.325-.157-.585-.291-.763-.385s-.277-.149-.277-.149.094.061.269.163.428.248.749.416a16.828 16.828 0 0 0 2.6 1.112 8.6 8.6 0 0 0 2.782.474c.359.026.649.07.848.1s.309.055.309.055-.108-.028-.306-.071a8.009 8.009 0 0 0-.847-.134z" class="cls-8"/>
                        <path id="Path_717" d="M1171.721 446.137c-.17.091-.417.222-.727.372-.155.077-.327.155-.511.241s-.382.172-.594.256-.433.173-.665.262c-.116.043-.236.082-.356.125-.061.02-.121.043-.183.062l-.187.057-.187.058-.093.028-.093.025-.364.1c-.12.03-.24.051-.356.077l-.173.036c-.057.012-.114.018-.17.027l-.328.049c-.107.013-.212.018-.312.027l-.293.022c-.094.007-.185.011-.271.023-.345.039-.62.1-.809.135s-.292.068-.292.068.105-.02.3-.053.467-.074.81-.1c.086-.009.176-.01.27-.014l.294-.013c.102-.004.208-.008.316-.018l.333-.042c.057-.008.115-.013.172-.024l.176-.034c.117-.024.238-.043.36-.073l.369-.093.094-.024.094-.029.188-.057.189-.059c.062-.019.123-.042.183-.064.122-.043.242-.084.358-.128.232-.092.456-.18.665-.274s.406-.186.59-.272.352-.176.5-.259c.306-.161.547-.3.712-.4s.255-.159.255-.159-.093.047-.264.139z" class="cls-8"/>
                    </g>
                </g>
                <path id="Path_718" fill="url(#linear-gradient)" d="M1170.625 438.925c-.159-.286-.324-.581-.47-.895s-.267-.536-.379-.746a6.147 6.147 0 0 1-.591-1.4c-.028-.1-.237-1.122-.327-1.559a29.048 29.048 0 0 0-1.555-5.632 3.944 3.944 0 0 0-2.426-1.494v-.026l-.063.012-.06-.012v.025a4.029 4.029 0 0 0-2.492 1.495 29.117 29.117 0 0 0-1.555 5.632c-.089.437-.3 1.462-.326 1.559a6.2 6.2 0 0 1-.591 1.4c-.113.21-.24.447-.379.746s-.311.609-.47.895c-.547.982-1.019 1.831-.584 2.994a5.429 5.429 0 0 0 2.2 2.322 16.222 16.222 0 0 1 1.412 1.106 13.109 13.109 0 0 0 2.751.942.188.188 0 0 0 .066.011.181.181 0 0 0 .065-.011 13.08 13.08 0 0 0 2.751-.942 16.56 16.56 0 0 1 1.412-1.106 5.432 5.432 0 0 0 2.2-2.322c.429-1.163-.043-2.012-.589-2.994z"/>
                <path id="Path_719" d="M1167.981 431.236s-.313-3.855 2.633-4.957 12.8-2.508 13.2-2.8c-.232.167-.495.944-.66 1.188a13.114 13.114 0 0 1-5.183 4.629 19.987 19.987 0 0 1-5.867 1.1c-.455.055-4.14.288-4.123.84z" class="cls-1"/>
                <g id="Group_267">
                    <path id="Path_720" d="M1147.536 425.36s3.011 5.515 8.5 1.677c0 0-4.836-2.992-8.5-1.677z" class="cls-4"/>
                    <g id="Group_266">
                        <path id="Path_721" d="M1156.036 427.037l-.333.246c-.054.038-.113.084-.181.129l-.224.141c-.081.049-.166.1-.259.159l-.3.159a6.015 6.015 0 0 1-1.6.554 5.23 5.23 0 0 1-2.084-.036 5.8 5.8 0 0 1-1.028-.346 6.237 6.237 0 0 1-.879-.488 7.4 7.4 0 0 1-1.287-1.092 8.007 8.007 0 0 1-.715-.878c-.152-.22-.224-.348-.224-.348s.088.118.261.319a9.617 9.617 0 0 0 .783.8 8.486 8.486 0 0 0 1.317.986 6.954 6.954 0 0 0 .858.439 6.493 6.493 0 0 0 .98.317 5.575 5.575 0 0 0 1.977.078 6.546 6.546 0 0 0 1.577-.442l.309-.131c.1-.045.185-.092.269-.134l.235-.117c.071-.038.133-.077.191-.109z" class="cls-10"/>
                    </g>
                    <path id="Path_722" d="M1160.314 428.139s1.76.213 1.117-.751a2.488 2.488 0 0 0-1.267-.761s-10.7-4.842-12.017-5.257-4.46.14-5.117-1.268c0 0-.443 4.694 8.58 5.727 0 0 8.2 2.263 8.704 2.31z" class="cls-10"/>
                    <path id="Path_723" d="M1151.61 424.23s5.941 1.639 8.02 2.156c-2.178-.983-10.342-4.657-11.483-5.016-1.026-.323-3.151-.06-4.356-.587.952 1.352 3.079 2.904 7.819 3.447z" class="cls-11"/>
                </g>
                <g id="Group_269">
                    <path id="Path_724" d="M1182.039 425.36s-3.011 5.515-8.5 1.677c0 0 4.838-2.992 8.5-1.677z" class="cls-4"/>
                    <g id="Group_268">
                        <path id="Path_725" d="M1173.539 427.037l.356.205c.058.033.12.072.191.109l.233.117.268.133.308.13a6.411 6.411 0 0 0 1.57.434 5.346 5.346 0 0 0 1.963-.1 6.227 6.227 0 0 0 .967-.335 6.868 6.868 0 0 0 .843-.458 8.337 8.337 0 0 0 1.284-1.015 9.59 9.59 0 0 0 .758-.817c.167-.2.251-.324.251-.324s-.068.13-.214.352a7.725 7.725 0 0 1-.688.892 7.3 7.3 0 0 1-1.251 1.121 6.347 6.347 0 0 1-.863.508 5.723 5.723 0 0 1-1.015.365 5.063 5.063 0 0 1-2.074.062 5.866 5.866 0 0 1-1.593-.548l-.3-.157c-.092-.055-.177-.11-.258-.159l-.223-.14c-.067-.045-.126-.09-.18-.128z" class="cls-10"/>
                    </g>
                    <path id="Path_726" d="M1169.261 428.139s-1.76.213-1.117-.751a2.489 2.489 0 0 1 1.268-.761s10.7-4.842 12.017-5.257 4.459.14 5.116-1.268c0 0 .444 4.694-8.58 5.727 0 0-8.2 2.263-8.704 2.31z" class="cls-10"/>
                    <path id="Path_727" d="M1178.013 424.23s-5.942 1.639-8.02 2.156c2.178-.983 10.341-4.657 11.483-5.016 1.026-.323 3.151-.06 4.355-.587-.952 1.352-3.079 2.904-7.818 3.447z" class="cls-11"/>
                </g>
                <path id="Path_728" d="M1162.524 451.133a9.328 9.328 0 0 0 4.517 0 6.283 6.283 0 0 0-4.517 0z" class="cls-4"/>
                <path id="Path_729" d="M1170.43 438.46s-.869-.442-1.727 1.857c0 0-1.51-8.828-.464-10.733 0 0 2.692.28 1.388.517-2.276.414.613 7.419.803 8.359z" class="cls-12"/>
                <path id="Path_730" d="M1159.155 438.46s.868-.442 1.727 1.857c0 0 1.51-8.828.464-10.733 0 0-2.693.28-1.389.517 2.277.414-.612 7.419-.802 8.359z" class="cls-12"/>
                <ellipse id="Ellipse_54" cx="28.252" cy="25.81" fill="url(#radial-gradient)" rx="28.252" ry="25.81" transform="translate(1136.29 361.479)"/>
                <g id="Group_270">
                    <path id="Path_731" fill="#423030" d="M1196.2 386.654a1.043 1.043 0 0 0-.151-.65c-.1-.131-.23-.21-.281-.379-.2-.663.2-1.292-.29-1.9-.113-.139.228-.342.292-.477.1-.217-.059-.6-.124-.8-.117-.367-.387-.755-.3-1.156a.859.859 0 0 1 .247-.433c0-.177-.19-.3-.093-.491l-.147.272-.022-.236.071.062c-.137-.136-.536-.349-.489-.576a3.515 3.515 0 0 0-.067-1.7c-.334-1.159-1.128-2.133-1.406-3.312.447 0 .535.588.981.588a25.3 25.3 0 0 0-2.329-5.113c.372 0 .52.418.858.5a6.48 6.48 0 0 0-2.842-2.971 10.349 10.349 0 0 0-1.608-.462.644.644 0 0 1-.412-.574c0-.459.591-.015.805-.015a6.762 6.762 0 0 0-1.718-1.374c-.6-.356-1.126-.812-1.7-1.207a26.848 26.848 0 0 0-3.633-2.085 36.626 36.626 0 0 0-7.329-2.532 47.235 47.235 0 0 0-6.172-1.034c-.693-.07-1.387-.126-2.082-.163-.639-.035-1.247-.2-1.9-.18a4.266 4.266 0 0 0-2.348.755c.36.18.785-.069.785.507a13.247 13.247 0 0 0-6.017-.918 4.239 4.239 0 0 0-2.181.7c-.17.179.281.2.359.2.6.021 1.253-.141 1.757.291a23.622 23.622 0 0 1-6.217.141c-1.5-.105-3.717-.344-4.878.866a23.12 23.12 0 0 1 2.56 1.1c.06.023.495.144.482.158-.13.135-.466.167-.637.21-.381.094-4.61.917-4.584 1.047 0-.009.868.39.923.425.609.387-.752 1.359-1.1 1.544-.81.434-1.71.664-2.525 1.086-.938.486-1.308 1.537-2.184 2.085.149-.1 1.106-.544.973-.1-.115.376-.53.649-.832.862A11.942 11.942 0 0 0 1136.2 371c.956 0 1.773-.783 2.746-.589-.312.208-.455.6-.784.785-.355.2-.712.4-1.059.616a5.46 5.46 0 0 0-1.786 1.64c.1-.1 1.288-1.1 1.365-.62.041.254-.462.64-.611.788a7.917 7.917 0 0 0-2.225 2.677c.115-.154.985-1.018 1.2-.659.1.163-.037.478-.088.635a17.906 17.906 0 0 1-.974 2.262 12.635 12.635 0 0 0-.727 1.489c-.259.8 1.26 1.312 1.227 2.147a4.288 4.288 0 0 0-1.052 1.819 2.085 2.085 0 0 0 0 .984.687.687 0 0 1 .281.042c.32.147-.037.848-.1 1.051a17.178 17.178 0 0 0-.451 8.006 43.01 43.01 0 0 0 1.515 6.339 60.9 60.9 0 0 1 1.743 5.842 77.265 77.265 0 0 1 1.564 10.174 50.185 50.185 0 0 0 .343-10.486c-.1-1.142-.457-2.258-.517-3.4a8.577 8.577 0 0 1 1.2-4.542 229.785 229.785 0 0 1 2.707-3.651c.79-.778 1.856-1.16 2.551-2.055a5.713 5.713 0 0 0 .586-.946 7.629 7.629 0 0 0 3.334 2.391 8.067 8.067 0 0 0 1.968.559 4.436 4.436 0 0 1-1.085-.007 8.275 8.275 0 0 0 4.162 4 10.591 10.591 0 0 0 2.816.786 12.313 12.313 0 0 0 1.57.117c.294 0 .482.192.754.316 4.287 1.957 9.635.312 13.455-1.979.109.985-.509 1.177-1.374 1.177 5.146 1.6 10.765-.666 15.274-3.107.456-.247.919-.5 1.353-.782.56.555 1.191 1.031 1.769 1.565a7.939 7.939 0 0 1 2.537 5.618 35.174 35.174 0 0 1-.243 4.733c-.1 1.282-.053 2.541-.053 3.821 0 1.243.177 2.508.279 3.75.057.707.111 1.417.2 2.12a122.263 122.263 0 0 1 2.337-13.913c.171-.751.443-1.474.622-2.223a22.511 22.511 0 0 0 .491-4.2c.076-1.649.082-3.3.066-4.953a8.256 8.256 0 0 1 .337-2.345 6.891 6.891 0 0 1 .347-1.011 2.7 2.7 0 0 0 .437-1.135z" opacity="0.6"/>
                    <path id="Path_732" d="M1191.374 402.007a7.939 7.939 0 0 0-2.537-5.618c-.578-.534-1.209-1.01-1.769-1.565-.434.286-.9.535-1.353.782-4.509 2.441-10.128 4.7-15.274 3.107.865 0 1.483-.192 1.374-1.177-3.82 2.291-9.168 3.936-13.455 1.979-.272-.124-.46-.312-.754-.316a12.313 12.313 0 0 1-1.57-.117 10.591 10.591 0 0 1-2.816-.786 8.275 8.275 0 0 1-4.162-4 5.659 5.659 0 0 0 1.071.019 9.35 9.35 0 0 1-1.954-.571 7.629 7.629 0 0 1-3.334-2.391 5.713 5.713 0 0 1-.586.946c-.695.895-1.761 1.277-2.551 2.055a229.785 229.785 0 0 0-2.707 3.651 8.577 8.577 0 0 0-1.2 4.542 8.82 8.82 0 0 0 .11.956 9.7 9.7 0 0 1 1.088-2.935 16.108 16.108 0 0 1 1.305-1.779 15.878 15.878 0 0 1 1.4-1.872c.79-.778 1.856-1.16 2.551-2.055a5.712 5.712 0 0 0 .586-.946 7.629 7.629 0 0 0 3.334 2.391 9.352 9.352 0 0 0 1.954.571.027.027 0 0 0 .011-.01l-.011.01a5.579 5.579 0 0 1-1.071-.019 8.271 8.271 0 0 0 4.162 4 10.591 10.591 0 0 0 2.816.786 12.307 12.307 0 0 0 1.57.117c.294 0 .482.192.754.316 4.287 1.957 9.635.313 13.455-1.979.109.985-.509 1.177-1.374 1.177 5.146 1.6 10.765-.666 15.274-3.107.456-.247.919-.5 1.353-.782.56.555 1.191 1.031 1.769 1.566a7.842 7.842 0 0 1 2.508 5.228 18.351 18.351 0 0 0 .033-2.174z" class="cls-1"/>
                </g>
            </g>
            <path id="Path_733" d="M1176.163 449.8c-1.377 1.508-6.5 5.273-11.4 4.679-4.9.594-10.157-3.56-11.4-4.679-.641-.577-2.016-2.344-2.629-3.012a86.7 86.7 0 0 1-8.061-11.21 11.839 11.839 0 0 1-2.49 4.964c3.6 7.507 11.511 14.552 24.593 14.552 12.986 0 19.514-7.045 24.575-14.374l-.028-.014c-1.478-.783-2.242-2.888-2.638-4.869a86.324 86.324 0 0 1-7.9 10.951c-.607.673-2.04 2.381-2.622 3.012z" class="cls-4"/>
        </g>
        <path id="Path_734" d="M1172.1 374.838c-9.3-.927-21.658 6.879-25.542 13.666" class="cls-15"/>
        <path id="Path_735" d="M1170.27 369.838c-9.3-.927-22.709 4.791-26.709 15.041" class="cls-15"/>
        <path id="Path_736" d="M1172.27 372.5c-9.3-.926-21.459 4.25-24.417 11.732" class="cls-15"/>
        <path id="Path_737" d="M1174.6 379.711a31.164 31.164 0 0 0-15.836 3.612 49.127 49.127 0 0 0-12.95 9.994c-.993 1.041-2.015 2.273-1.954 3.71" class="cls-15"/>
        <path id="Path_738" d="M1174.1 377.545a31.154 31.154 0 0 0-15.836 3.612 49.084 49.084 0 0 0-12.95 9.994c-.993 1.04-2.015 2.273-1.954 3.71" class="cls-15"/>
        <path id="Path_739" d="M1169.77 367.171c-11 .333-18.167 3.167-23.147 7.972-4 3.855-5.852 9.321-6.483 14.838" class="cls-15"/>
        <path id="Path_740" d="M1169.936 365.171c-6.833-.333-18-.833-25.147 7.472a27.373 27.373 0 0 0-6.482 14.838" class="cls-15"/>
        <path id="Path_741" d="M1169.785 361.953c-6.8-.717-17.925-1.845-25.528 6.045a27.38 27.38 0 0 0-7.307 14.45" class="cls-15"/>
        <path id="Path_742" d="M1169.035 360.078c-6.8-.717-17.925-1.845-25.528 6.045a27.38 27.38 0 0 0-7.307 14.45" class="cls-15"/>
        <path id="Path_743" d="M1170.035 363.828c-6.8-.717-17.925-1.845-25.528 6.045a27.38 27.38 0 0 0-7.307 14.45" class="cls-15"/>
        <path id="Path_744" d="M1175.27 383.838c-5.334-.5-10.033 2.289-12.534 3.1a22.759 22.759 0 0 0-14.618 15.115" class="cls-15"/>
        <path id="Path_745" d="M1173.25 386.754c-2.355 1.167-5.013 1.54-7.514 2.348a22.758 22.758 0 0 0-14.618 15.115" class="cls-15"/>
        <path id="Path_746" d="M1174.6 381.338c-7.167 1-10.533 2.789-13.034 3.6a22.759 22.759 0 0 0-14.618 15.115" class="cls-15"/>
        <path id="Path_747" d="M1177.894 387.245a16.443 16.443 0 0 1 10.122 2.963 10.747 10.747 0 0 1 4.444 9.271" class="cls-15"/>
        <path id="Path_748" d="M1196.776 416.8a16.441 16.441 0 0 1 8.03 6.837 10.745 10.745 0 0 1 .275 10.277" class="cls-15"/>
        <path id="Path_749" d="M1200.479 394.588a16.443 16.443 0 0 1 5.624 8.921" class="cls-15"/>
        <path id="Path_750" d="M1129.784 391.224a16.444 16.444 0 0 0-4.3 9.628" class="cls-15"/>
        <path id="Path_751" d="M1130.775 438.5a16.446 16.446 0 0 0-1.931 10.368" class="cls-15"/>
        <path id="Path_752" d="M1178.845 379.012a16.439 16.439 0 0 1 10.389-1.812 10.746 10.746 0 0 1 8.083 6.354" class="cls-15"/>
        <path id="Path_753" d="M1176.3 376.441a16.439 16.439 0 0 1 10.389-1.812c3.518.666 5 1.5 8.875 5.5" class="cls-15"/>
        <path id="Path_754" d="M1176.1 373.481a16.437 16.437 0 0 1 10.475-1.219 10.747 10.747 0 0 1 7.709 6.8" class="cls-15"/>
        <path id="Path_755" d="M1180.994 380.9a26.6 26.6 0 0 1 7.192-.31 8.971 8.971 0 0 1 6.16 3.37c1.285 1.816 1.575 4.131 1.827 6.341" class="cls-15"/>
        <path id="Path_756" d="M1180.508 383.873a26.6 26.6 0 0 1 7.192-.31 8.963 8.963 0 0 1 6.159 3.37c1.286 1.815 1.576 4.13 1.827 6.34" class="cls-15"/>
        <path id="Path_757" d="M1139.436 371.629a26.01 26.01 0 0 0-3.565 22.907" class="cls-16"/>
        <path id="Path_758" fill="none" stroke="#332020" stroke-miterlimit="10" stroke-width="0.25px" d="M1136.465 402.243a10.186 10.186 0 0 0 3.158 8.253"/>
        <path id="Path_759" d="M1140.741 389.748a14.246 14.246 0 0 0-3.522 11.849" class="cls-16"/>
        <path id="Path_760" d="M1134.894 419.906a14.065 14.065 0 0 0-1.406 6.158" class="cls-16"/>
        <path id="Path_761" d="M1201.15 404.867a14.067 14.067 0 0 1 1.032 6.231" class="cls-16"/>
        <path id="Path_762" d="M1125.6 427a10.283 10.283 0 0 0-2.542 8.553" class="cls-16"/>
        <path id="Path_763" d="M1138.186 379.379c-2.894 3.136-3.086 9.043-2.375 13.25" class="cls-16"/>
        <path id="Path_764" d="M1173.1 363.671a16.437 16.437 0 0 1 10.475-1.219 10.743 10.743 0 0 1 7.709 6.8" class="cls-15"/>
        <path id="Path_765" d="M1173.794 367.056a16.439 16.439 0 0 1 10.476-1.218 10.742 10.742 0 0 1 7.708 6.8" class="cls-15"/>
        <path id="Path_766" d="M1175.127 369.39a16.441 16.441 0 0 1 10.476-1.219 10.745 10.745 0 0 1 7.708 6.8" class="cls-15"/>
        <path id="Path_767" d="M1176.127 371.39a16.441 16.441 0 0 1 10.476-1.219 10.745 10.745 0 0 1 7.708 6.8" class="cls-15"/>
    </g>
</svg>
