<?xml version="1.0" encoding="UTF-8"?>
<svg id="Layer_2" data-name="Layer 2" xmlns="http://www.w3.org/2000/svg" xmlns:xlink="http://www.w3.org/1999/xlink" viewBox="0 0 503.31 137.41">
  <defs>
    <style>
      .cls-1, .cls-2 {
        fill: none;
      }

      .cls-3 {
        clip-path: url(#clippath);
      }

      .cls-4, .cls-5 {
        fill: #f47920;
      }

      .cls-6, .cls-7 {
        fill: #636566;
      }

      .cls-8 {
        fill: #636466;
      }

      .cls-8, .cls-5, .cls-7, .cls-2 {
        stroke: #fff;
        stroke-miterlimit: 10;
      }

      .cls-8, .cls-5, .cls-2 {
        stroke-width: 4.2px;
      }

      .cls-7 {
        stroke-width: .25px;
      }
    </style>
    <clipPath id="clippath">
      <path class="cls-1" d="m135.31,68.71c0,36.78-29.82,66.6-66.61,66.6S2.1,105.49,2.1,68.71,31.92,2.1,68.7,2.1s66.61,29.82,66.61,66.61Z"/>
    </clipPath>
  </defs>
  <g id="Layer_1-2" data-name="Layer 1">
    <g>
      <g>
        <g>
          <path class="cls-4" d="m135.31,68.71c0,36.78-29.82,66.6-66.61,66.6S2.1,105.49,2.1,68.71,31.92,2.1,68.7,2.1s66.61,29.82,66.61,66.61Z"/>
          <g class="cls-3">
            <polygon class="cls-5" points="-7.68 98.05 59.38 36.57 59.38 150.68 -7.68 98.05"/>
            <path class="cls-8" d="m100.61,79.18l35.63,35.63s27.77-35.44,19.03-53.33c-8.74-17.89-23.3-10.4-23.3-10.4l-31.36,28.09"/>
            <polygon class="cls-5" points="145.23 37.86 78.16 99.34 78.16 -14.77 145.23 37.86"/>
          </g>
        </g>
        <path class="cls-2" d="m135.31,68.71c0,36.78-29.82,66.6-66.61,66.6S2.1,105.49,2.1,68.71,31.92,2.1,68.7,2.1s66.61,29.82,66.61,66.61Z"/>
      </g>
      <g>
        <path class="cls-6" d="m180.14,38.4l20.08,43.07h-4.65l-6.77-14.17h-18.55l-6.71,14.17h-4.8l20.35-43.07h1.05Zm-.54,9.15l-7.38,15.59h14.72l-7.34-15.59Z"/>
        <path class="cls-6" d="m209.9,38.4h4.39v16.16l17.21-16.16h5.78l-20.68,19.32,22.29,23.74h-5.73l-18.87-20.06v20.06h-4.39v-43.07Z"/>
        <path class="cls-6" d="m308.03,46.39l-3.4,2.61c-1.87-2.44-4.12-4.29-6.75-5.55-2.63-1.26-5.51-1.89-8.65-1.89-3.43,0-6.62.82-9.54,2.47s-5.2,3.86-6.81,6.65c-1.61,2.78-2.42,5.91-2.42,9.38,0,5.25,1.8,9.63,5.4,13.15,3.6,3.51,8.14,5.27,13.63,5.27,6.03,0,11.07-2.36,15.14-7.08l3.4,2.58c-2.15,2.73-4.83,4.85-8.04,6.34-3.21,1.49-6.8,2.24-10.76,2.24-7.53,0-13.48-2.51-17.83-7.52-3.65-4.24-5.48-9.35-5.48-15.34,0-6.3,2.21-11.61,6.63-15.91,4.42-4.3,9.96-6.46,16.61-6.46,4.02,0,7.65.79,10.89,2.39,3.24,1.59,5.89,3.82,7.96,6.69Z"/>
        <path class="cls-6" d="m319.66,38.4h4.3v38.91h16.57v4.16h-20.87v-43.07Z"/>
        <path class="cls-6" d="m349.74,38.4h4.3v43.07h-4.3v-43.07Z"/>
        <path class="cls-6" d="m366.94,81.46v-43.07h.94l28.66,33.01v-33.01h4.25v43.07h-.97l-28.43-32.61v32.61h-4.45Z"/>
        <path class="cls-6" d="m413.65,38.4h4.3v43.07h-4.3v-43.07Z"/>
        <path class="cls-6" d="m470.92,46.39l-3.4,2.61c-1.87-2.44-4.12-4.29-6.75-5.55-2.62-1.26-5.51-1.89-8.65-1.89-3.43,0-6.62.82-9.54,2.47-2.93,1.65-5.2,3.86-6.81,6.65-1.61,2.78-2.42,5.91-2.42,9.38,0,5.25,1.8,9.63,5.4,13.15,3.6,3.51,8.14,5.27,13.63,5.27,6.03,0,11.07-2.36,15.14-7.08l3.4,2.58c-2.15,2.73-4.83,4.85-8.04,6.34-3.21,1.49-6.8,2.24-10.76,2.24-7.53,0-13.48-2.51-17.83-7.52-3.65-4.24-5.48-9.35-5.48-15.34,0-6.3,2.21-11.61,6.63-15.91,4.42-4.3,9.96-6.46,16.61-6.46,4.02,0,7.65.79,10.89,2.39,3.24,1.59,5.89,3.82,7.96,6.69Z"/>
        <path class="cls-6" d="m478.11,73.44l3.66-2.2c2.58,4.74,5.55,7.11,8.93,7.11,1.44,0,2.8-.34,4.07-1.01,1.27-.67,2.24-1.57,2.9-2.71.66-1.13.99-2.33.99-3.6,0-1.44-.49-2.86-1.46-4.24-1.35-1.91-3.81-4.22-7.38-6.91-3.59-2.71-5.83-4.67-6.7-5.88-1.52-2.03-2.28-4.23-2.28-6.59,0-1.87.45-3.58,1.35-5.12.9-1.54,2.16-2.76,3.79-3.64,1.63-.89,3.4-1.33,5.31-1.33,2.03,0,3.93.5,5.69,1.51,1.77,1.01,3.63,2.85,5.61,5.55l-3.51,2.66c-1.62-2.15-3-3.56-4.14-4.24-1.14-.68-2.39-1.02-3.73-1.02-1.74,0-3.16.53-4.26,1.58-1.1,1.05-1.65,2.35-1.65,3.89,0,.94.19,1.84.59,2.72.39.88,1.1,1.83,2.14,2.87.57.55,2.42,1.98,5.56,4.3,3.73,2.75,6.29,5.2,7.67,7.35,1.39,2.15,2.08,4.3,2.08,6.47,0,3.12-1.19,5.84-3.56,8.14-2.37,2.3-5.25,3.45-8.65,3.45-2.62,0-4.99-.7-7.12-2.09-2.13-1.4-4.09-3.73-5.88-7.01Z"/>
      </g>
    </g>
  </g>
</svg>