<?xml version="1.0" encoding="UTF-8"?>
<svg id="Layer_2" data-name="Layer 2" xmlns="http://www.w3.org/2000/svg" xmlns:xlink="http://www.w3.org/1999/xlink" viewBox="0 0 503.31 137.41">
  <defs>
    <style>
      .cls-1, .cls-2 {
        fill: none;
      }

      .cls-3 {
        clip-path: url(#clippath);
      }

      .cls-4, .cls-5 {
        fill: #f47920;
      }

      .cls-6, .cls-7 {
        fill: #fff;
      }

      .cls-8 {
        fill: #636466;
      }

      .cls-8, .cls-5, .cls-7, .cls-2 {
        stroke: #fff;
        stroke-miterlimit: 10;
      }

      .cls-8, .cls-5, .cls-2 {
        stroke-width: 4.2px;
      }

      .cls-7 {
        stroke-width: .25px;
      }
    </style>
    <clipPath id="clippath">
      <path class="cls-1" d="m135.31,68.71c0,36.78-29.82,66.6-66.61,66.6S2.1,105.49,2.1,68.71,31.92,2.1,68.7,2.1s66.61,29.82,66.61,66.61Z"/>
    </clipPath>
  </defs>
  <g id="Layer_1-2" data-name="Layer 1">
    <g>
      <g>
        <g>
          <path class="cls-4" d="m135.31,68.71c0,36.78-29.82,66.6-66.61,66.6S2.1,105.49,2.1,68.71,31.92,2.1,68.7,2.1s66.61,29.82,66.61,66.61Z"/>
          <g class="cls-3">
            <polygon class="cls-5" points="-7.68 98.05 59.38 36.57 59.38 150.68 -7.68 98.05"/>
            <path class="cls-8" d="m100.61,79.18l35.63,35.63s27.77-35.44,19.03-53.33c-8.74-17.89-23.3-10.4-23.3-10.4l-31.36,28.09"/>
            <polygon class="cls-5" points="145.23 37.86 78.16 99.34 78.16 -14.77 145.23 37.86"/>
          </g>
        </g>
        <path class="cls-2" d="m135.31,68.71c0,36.78-29.82,66.6-66.61,66.6S2.1,105.49,2.1,68.71,31.92,2.1,68.7,2.1s66.61,29.82,66.61,66.61Z"/>
      </g>
      <g>
        <path class="cls-6" d="m180.14,38.4l20.08,43.07h-4.65l-6.77-14.17h-18.55l-6.71,14.17h-4.8l20.35-43.07h1.05Zm-.54,9.15l-7.38,15.59h14.72l-7.34-15.59Z"/>
        <path class="cls-6" d="m209.9,38.4h4.39v16.16l17.21-16.16h5.78l-20.68,19.32,22.29,23.74h-5.73l-18.87-20.06v20.06h-4.39v-43.07Z"/>
        <path class="cls-6" d="m308.03,46.39l-3.4,2.61c-1.87-2.44-4.12-4.29-6.75-5.55-2.63-1.26-5.51-1.89-8.65-1.89-3.43,0-6.62.82-9.54,2.47s-5.2,3.86-6.81,6.65c-1.61,2.78-2.42,5.91-2.42,9.38,0,5.25,1.8,9.63,5.4,13.15,3.6,3.51,8.14,5.27,13.63,5.27,6.03,0,11.07-2.36,15.14-7.08l3.4,2.58c-2.15,2.73-4.83,4.85-8.04,6.34-3.21,1.49-6.8,2.24-10.76,2.24-7.53,0-13.48-2.51-17.83-7.52-3.65-4.24-5.48-9.35-5.48-15.34,0-6.3,2.21-11.61,6.63-15.91,4.42-4.3,9.96-6.46,16.61-6.46,4.02,0,7.65.79,10.89,2.39,3.24,1.59,5.89,3.82,7.96,6.69Z"/>
        <path class="cls-6" d="m319.66,38.4h4.3v38.91h16.57v4.16h-20.87v-43.07Z"/>
        <path class="cls-6" d="m349.74,38.4h4.3v43.07h-4.3v-43.07Z"/>
        <path class="cls-6" d="m366.94,81.46v-43.07h.94l28.66,33.01v-33.01h4.25v43.07h-.97l-28.43-32.61v32.61h-4.45Z"/>
        <path class="cls-6" d="m413.65,38.4h4.3v43.07h-4.3v-43.07Z"/>
        <path class="cls-6" d="m470.92,46.39l-3.4,2.61c-1.87-2.44-4.12-4.29-6.75-5.55-2.62-1.26-5.51-1.89-8.65-1.89-3.43,0-6.62.82-9.54,2.47-2.93,1.65-5.2,3.86-6.81,6.65-1.61,2.78-2.42,5.91-2.42,9.38,0,5.25,1.8,9.63,5.4,13.15,3.6,3.51,8.14,5.27,13.63,5.27,6.03,0,11.07-2.36,15.14-7.08l3.4,2.58c-2.15,2.73-4.83,4.85-8.04,6.34-3.21,1.49-6.8,2.24-10.76,2.24-7.53,0-13.48-2.51-17.83-7.52-3.65-4.24-5.48-9.35-5.48-15.34,0-6.3,2.21-11.61,6.63-15.91,4.42-4.3,9.96-6.46,16.61-6.46,4.02,0,7.65.79,10.89,2.39,3.24,1.59,5.89,3.82,7.96,6.69Z"/>
        <path class="cls-6" d="m478.11,73.44l3.66-2.2c2.58,4.74,5.55,7.11,8.93,7.11,1.44,0,2.8-.34,4.07-1.01,1.27-.67,2.24-1.58,2.9-2.71.66-1.13.99-2.33.99-3.6,0-1.44-.49-2.86-1.46-4.24-1.35-1.91-3.81-4.22-7.38-6.91-3.59-2.71-5.83-4.67-6.7-5.88-1.52-2.03-2.28-4.23-2.28-6.59,0-1.87.45-3.58,1.35-5.12.9-1.54,2.16-2.76,3.79-3.64,1.63-.89,3.4-1.33,5.31-1.33,2.03,0,3.93.5,5.69,1.51,1.77,1.01,3.63,2.85,5.61,5.55l-3.51,2.66c-1.62-2.15-3-3.56-4.14-4.24-1.14-.68-2.39-1.02-3.73-1.02-1.74,0-3.16.53-4.26,1.58-1.1,1.05-1.65,2.35-1.65,3.89,0,.94.19,1.84.59,2.72.39.88,1.1,1.83,2.14,2.87.57.55,2.42,1.98,5.56,4.3,3.73,2.75,6.29,5.2,7.67,7.35,1.39,2.15,2.08,4.3,2.08,6.47,0,3.12-1.19,5.84-3.56,8.14-2.37,2.3-5.25,3.45-8.65,3.45-2.62,0-4.99-.7-7.12-2.09-2.13-1.4-4.09-3.73-5.88-7.01Z"/>
      </g>
      <g>
        <path class="cls-7" d="m199.82,104.22l.06.08-.04.16-.16.46.02.13-.07.12-.13.35-.18.27-.02.18-.06.18-.09.15-.13.19-.05.06-.02.08-.63.76-.38.34-.09.18-.07.08-.32.25-.07.12-.09.04-.09.05-.28.21-.46.23-.47.11-.09.11-.41.18-.95.22-.66.04-.23-.09-.38-.02-1.36-.47-.34-.2-.11-.04-.13-.08-.06-.06-.14-.04-.69-.39-.71-.48-.26-.07-.4.02-.09-.06-.04-.19.02-.11.07-.12.38-.54.25-.68.15-.54.09-.2.02-.13.05-.14.22-.59.05-.11.04-.12.2-.59.06-.09.02-.07.26-.82.05-.08.04-.02.29-.83.02-.12.04-.12.45-1.42.3-1.42.11-.19h.04s.01-.05.01-.05v-.05l.06-.3.15-.81-.04-.12.19-.75h-.06s.06-.08.06-.08l.05-.4-.14-.05-.07.08-.05.08-.2.2-.06.27-.18.22-.13.3-.62.89-.39.6-.22.52-.22.23-.19.38-.33.39-.08.16-.06.05-.23.38-.06.14-.11.13-.27.25-.39.11-.19-.06-.05.06-.26.05-.3-.29.83-.83.06-.09h.02s.14-.2.14-.2l.06-.04.08-.06.05-.06.42-.46.8-1.08.09-.19.07-.06v-.05s.06-.12.06-.12l.55-.91.09-.13.05-.09.25-.4.63-1.14.04-.07.04-.08.52-.97.07-.23.04-.08.05-.08.3-.89,1-.82h.06s.25.33.25.33l.3.56.08.29.06.05.02.06-.02.15-.26.79v.13l-.14.34-.02.21-.11.21-.05.07-.07.08-.15.46-.09.15-.06.09-.04.11v.21s-.05.12-.05.12v.08l-.22.34v.06l-.05.16-.18.5-.19.32-.14.79-.06.02v.07l-.07.09-.06.09-.22.5-.08.39-.26.48-.26,1.05-.52,1.24-.09.33-.39.76-.07.49-.3.69-.02.07-.04.08.02.08-.15.27-.2.77v.06s0,.06,0,.06l.14.07.52.3.22.13.02.05h.05s.06.05.06.05l.09.02.16.13.35.2.11.06.13.08.88.46h.04s.2.05.2.05l.27.14.45.12.13.05h.08s.13.02.13.02l1,.12.77-.08.79-.26.97-.52.15-.22.15-.05.16-.26.07-.09.16-.16.32-.63.04-.21.07-.13.04-.07.07-.11.09-.46v-.3s.12-.16.12-.16v-.09s.13-.15.13-.15h.06l.05.05h.16s.07.02.07.02l.09.07Z"/>
        <path class="cls-7" d="m209.75,102.2h-.01s-.16.47-.16.47v.15l-.07.14-.05.08h-.02l.09.28-.59,1.02-.04.05-.04.11-.11.18-.28.33-.32.46-.06.11-.25.27-.18.27-.21.16-.15.2h-.05s-.02.06-.02.06l-.23.22-.18.2-.05.07-.15.14-1.14.63-.38.08-.48.19h-1.01s-.48-.12-.48-.12l-.43-.18-.36-.34-.09-.13-.18-.18-.14-.14-.12-.32-.09-.13v-.05s-.01-.13-.01-.13l-.13-.36v-.4l-.04-.11.04-.43v-.2l.02-.14.11-.41.04-.25-.04-.16-.05-.07-.12-.09-.08-.3-.21-.32v-.53l.04-.21.02-.08.11-.29.28-.55.5-.69.61-.61.07-.15h.07v-.05s.22-.19.22-.19l.59-.45.15-.08.15-.11,1.39-.7.36-.07.11-.05.22-.08.21-.08.26.05.33-.12.28.02.41.15.14.33.25.18.12.12.13.08.06.11.11.08.04.11.16.16.07.07.07.12.23.26.11-.05-.04-.12.02-.06.05-.05.08-.02h.08s.11.08.11.08l.11.2.16.36.08.39v.23l.05.15.02.33-.04.05v.22s-.05.57-.05.57l-.04.05Zm-5.54-2.4l.02-.07-.14-.07-.84.66-.16.22-.04.08-.16.13-.2.26-.07.12-.04.05-.05.05-.3.4-.14.35.02.84.09.05.08-.07v-.02s.04-.01.04-.01l.25-.54.06-.11.13-.18v-.04s.08-.16.08-.16l.13-.34.09-.06.11-.2.06-.2.19-.14.04-.06.15-.16.08-.13.26-.28.02-.05.09-.08.02-.05.06-.08.07-.11Zm4.72,1.29l.04-.02-.04-.18-.12-.15-.09-.36h-.02s-.12-.16-.12-.16l-.14-.25-.47-.52-.13-.06-.04-.05-.29-.11-.04-.05h-.07s-.19-.18-.19-.18l-.14-.02-.08.08v.08h-.07l-.22-.16-.28-.04-.06.04h-.06s-.13-.05-.13-.05l-.05-.04-.23.04-.42.18-.11.06-.09.07-.04.04v.04s-.18.18-.18.18h-.04s-.14.21-.14.21l-.26.3-.22.13-.47.55-.08.11v.04l-.28.41-.04.08-.04.06-.04.04-.25.25-.15.41-.14.22-.13.16h-.04l-.05.22-.09.33v.07l-.05.18.07.11v.09s.14.05.14.05l.04.05.42.29.12.06h.09s.07-.05.07-.05l.2.08.25.63-.63.11-.16.12-.42.06-.18.07v.3s.05.09.05.09l.12.23.2.39.06.09.04.08.27.33.08.04.19.04.16.06.25.25h.4s.42.12.42.12l.55-.07.13-.02.21.05.28-.19.11-.02.13-.06.14-.07.11-.06.12-.07.25-.15.08-.07.11-.07h.06s.15-.2.15-.2l.06-.07.16-.15.15-.16.15-.15.06-.06.09-.15.08-.12.05-.06.34-.53.4-.88v-.05s.09-.29.09-.29l.13-.34.08-.5.04-.22.04-.11v-.2s-.07-.13-.07-.13l-.02-.08v-.29s-.05-.11-.05-.11l-.02-.14-.05-.05Z"/>
        <path class="cls-7" d="m219.89,102.2h-.01s-.16.47-.16.47v.15l-.07.14-.05.08h-.02l.09.28-.59,1.02-.04.05-.04.11-.11.18-.28.33-.32.46-.06.11-.25.27-.18.27-.21.16-.15.2h-.05s-.02.06-.02.06l-.23.22-.18.2-.05.07-.15.14-1.14.63-.38.08-.48.19h-1.01s-.48-.12-.48-.12l-.43-.18-.36-.34-.09-.13-.18-.18-.14-.14-.12-.32-.09-.13v-.05s-.01-.13-.01-.13l-.13-.36v-.4l-.04-.11.04-.43v-.2l.02-.14.11-.41.04-.25-.04-.16-.05-.07-.12-.09-.08-.3-.21-.32v-.53l.04-.21.02-.08.11-.29.28-.55.5-.69.61-.61.07-.15h.07v-.05s.22-.19.22-.19l.59-.45.15-.08.15-.11,1.39-.7.36-.07.11-.05.22-.08.21-.08.26.05.33-.12.28.02.41.15.14.33.25.18.12.12.13.08.06.11.11.08.04.11.16.16.07.07.07.12.23.26.11-.05-.04-.12.02-.06.05-.05.08-.02h.08s.11.08.11.08l.11.2.16.36.08.39v.23l.05.15.02.33-.04.05v.22s-.05.57-.05.57l-.04.05Zm-5.54-2.4l.02-.07-.14-.07-.84.66-.16.22-.04.08-.16.13-.2.26-.07.12-.04.05-.05.05-.3.4-.14.35.02.84.09.05.08-.07v-.02s.04-.01.04-.01l.25-.54.06-.11.13-.18v-.04s.08-.16.08-.16l.13-.34.09-.06.11-.2.06-.2.19-.14.04-.06.15-.16.08-.13.26-.28.02-.05.09-.08.02-.05.06-.08.07-.11Zm4.72,1.29l.04-.02-.04-.18-.12-.15-.09-.36h-.02s-.12-.16-.12-.16l-.14-.25-.47-.52-.13-.06-.04-.05-.29-.11-.04-.05h-.07s-.19-.18-.19-.18l-.14-.02-.08.08v.08h-.07l-.22-.16-.28-.04-.06.04h-.06s-.13-.05-.13-.05l-.05-.04-.23.04-.42.18-.11.06-.09.07-.04.04v.04s-.18.18-.18.18h-.04s-.14.21-.14.21l-.26.3-.22.13-.47.55-.08.11v.04l-.28.41-.04.08-.04.06-.04.04-.25.25-.15.41-.14.22-.13.16h-.04l-.05.22-.09.33v.07l-.05.18.07.11v.09s.14.05.14.05l.04.05.42.29.12.06h.09s.07-.05.07-.05l.2.08.25.63-.63.11-.16.12-.42.06-.18.07v.3s.05.09.05.09l.12.23.2.39.06.09.04.08.27.33.08.04.19.04.16.06.25.25h.4s.42.12.42.12l.55-.07.13-.02.21.05.28-.19.11-.02.13-.06.14-.07.11-.06.12-.07.25-.15.08-.07.11-.07h.06s.15-.2.15-.2l.06-.07.16-.15.15-.16.15-.15.06-.06.09-.15.08-.12.05-.06.34-.53.4-.88v-.05s.09-.29.09-.29l.13-.34.08-.5.04-.22.04-.11v-.2s-.07-.13-.07-.13l-.02-.08v-.29s-.05-.11-.05-.11l-.02-.14-.05-.05Z"/>
        <path class="cls-7" d="m231.57,109.99l-.13.04-.34-.22-.04-.05-.07-.04-.19-.21-.16-.11-.48-.32-.2-.2-.14-.08-.06-.06-.12-.07-.53-.19-.6-.34-.12-.13-.47-.2-.2-.02-.55-.26h-.14l-.36-.14-.82-.5-.4-.34-.06-.28-.18-.19-.07-.23.15-.39.11-.19.07-.12.23-.42.18-.13.36-.55.29-.25.12-.21.05-.07.02-.06.08-.07.13-.11.05-.06h.06s.01-.09.01-.09l.52-.64.52-.48.07-.11.04-.08.06-.11.15-.16.11-.14.16-.15v-.05s.05-.08.05-.08v-.14s.08-.08.08-.08l.07-.08.19-.21.25-.43h.05l-.06-.06h-.11s-.21.16-.21.16h-.02v.04l-.05.02v.02s-1.2.75-1.2.75l-.04.06-.13.08-.66.66-.02.05-.02.06-.13.07-.14.05-.94,1.14-.05.14-.04.05-.11.09h-.05l-.48.8-.54.76-.06.22-.06.06-.18.41-.18.63v.12s.01.18.01.18l-.04.08.06.35-.32.77-.25.19-.26-.07h-.23s-.15-.07-.15-.07l-.23-.18-.05-.02-.06-.08-.16-1.34.06-.33-.12-.14.12-.8-.06-.16.05-.12v-.53l-.06-.04.06-.05-.06-.21.04-.38-.08-.97.08-.12-.08-1.16v-.15s.06-.25.06-.25l-.02-.35.06-.48v-.15s0-.08,0-.08l-.05-.12.07-.28v-.05s.02-.22.02-.22l-.04-.23.04-.55v-.08s0-.12,0-.12l-.02-.04.11-1.31.07-.34-.07-.23-.05-.52.06-.23.02-.2-.02-.04-.05-.33v-.07s.04-.14.04-.14l.05-.11v-.2s-.05-1.39-.05-1.39l.05-.81-.02-.12.08-.27v-.19l.02-.59.12-.26h.33l.04-.06.08-.05.07-.11.07-.05.08-.02.08-.04.08-.08.13-.14h.04v-.08l.35-.02h.01s.02-.01.02-.01l.05.02.04.06-.04.21v1.17s-.01.16-.01.16l.04.14-.02.12-.07.3v.09s-.09.63-.09.63l-.02,2.91-.15,1.61.04.18-.13.64-.04,1.76-.12.54v.68l.02.27v.12s-.07,1.14-.07,1.14l.08.41-.02.08-.02.07-.04.06v.69s.21-.05.21-.05l.26-.28.04-.08.06-.05.05-.02.18-.3.08-.07.18-.09.07-.16.95-1.15.11-.08.08-.07.21-.18.16-.18.07-.09.71-.52.48-.41,1.5-.95.27-.14.19-.07.08-.06.45-.15.42-.22.74-.04.15.13.04.11v.06s-.12.39-.12.39l-.16.23-.07.15-.04.07h-.04s.01.09.01.09l-.22.4-.35.28-.12.18-.14.13-.09.09-.22.19-.13.13-.11.11-.04.07-.26.3-.27.14-.15.2-.09.07-.19.19-.05.05-.08.21-.05.02-.08.06-.64.7-.15.2-.08.13-.47.6-.11.26-.02.11-.06.41.21.53.55.5.63.42.82.47.4.29h.02l.07.06.05.04v.07l.14.16h.02s.02.05.02.05l.05.09.33.04.41.36.11.13v.05s.25.11.25.11l.29.41.19.41.21.15v.02s.13.13.13.13l.07.16Z"/>
        <path class="cls-7" d="m245.33,106.87l-.05.68-.09.68-.08.27.02.05.04.12-.07.9-.14.64v.14s-.04.14-.04.14l-.02.13v.62l-.18.88v.09l-.04.18-.05.2-.07.12-.12.25.11.29-.07.45v.18l-.04.07-.05.13-.05,1.11-.13.45-.04.04-.11.28-.16.3-.11.11-.06.09-.12.41-.38.62-.08.16-.08.04-.05.05-.11.13-.22.14-.33.32-.19.28-.38.21-.26.26-.07.02-.07-.02-.76.43-.82.25-.42.27-.05-.02v-.05h-.19s-.25.09-.25.09h-.05l-.06-.07h-.12l-.26.11-.25-.05-.64.05-1.3-.55-.21-.23-.11-.11-.02-.05-.05-.05-.09-.22v-.11s-.27-.48-.27-.48v-.08s-.01-.18-.01-.18v-.04s.01-.08.01-.08l.09-.13.15-.15.04-.12.06-.18v-.08s.01-.06.01-.06l.09-.14.13-.39.15-.05v-.11l.04-.14.22-.2.06-.04.09-.02.12.04v.09h.05l-.11.4v.59s.09.3.09.3l-.05.18.04.09.05.06.04.11v.14l.14.25.09.13.13.13-.02-.02.16.23.06.13.15.06.05.06.39.22.48.14.79-.02.3-.06.06-.02h.13s.63-.28.63-.28h.06s.07-.07.07-.07l.16-.07.12-.08.4-.27v.07l.06-.02.18-.23.29-.18.54-.55.43-.83.11-.28v-.06l.04-.07.06-.19.08-.15.19-.4v-.08l.04-.15.06-.32v-.28s.07-.32.07-.32v-.08l.04-.06v-.07s-.04-.07-.04-.07l.08-.32.02-.66.05-.04.04-.14.02-.07.07-.11-.04-.32.06-.61-.07-.39.09-.67.05-.93.04-.14-.02-.16-.04-.41.06-.3.07-.14.02-.14v-.05l-.14-.69.11-.69v-1.1s0-.19,0-.19l-.08.02.02-.28h-.05s-.04-.74-.04-.74v-.05s-.02-.12-.02-.12v-.09s.02-.26.02-.26l-.08-.81.06-.04.04-.09-.16-.09-.11-.42v-.29s-.04-.05-.04-.05h-.02l.02-.14-.12-.08-.22.25-.22.56-.12.21-.07.09-.07.38-.25.28-.42.8-.22.25h.07s-.08.16-.08.16l-.43.6-.25.43-.07.09-.12.06-.06.02-.02.05-.22.21-.02.07-.08.07h-.02s-.16.22-.16.22l-.8.47-.09.07h-.08s-.69.34-.69.34l-.23-1.01.06-.66v-.05s-.05-.09-.05-.09l-.05-.08-.09-.59v-.63s.01-.05.01-.05l-.04-.07v-.06s-.01-.33-.01-.33l-.06-.25v-.5s.06-.33.06-.33v-.29l-.08-.15v-.09s-.04-.13-.04-.13v-.11s0-.12,0-.12l.05-.06.06-1.63.09-.32.06-.26-.02-.2v-.12l.08-.39-.04-.07.02-.04v-.64s-.04-.09-.04-.09l.06-.07.07-.13.07-.23.29-.05.36-.21h.23v.8s-.04.06-.04.06l-.04.08v.08s.02.04.02.04l.07.08-.04.27-.06.07-.02.12-.04.11.02.48.13.39-.07,1.24.07.3v.11s0,.09,0,.09l-.04.14v.23s-.01.18-.01.18l.02.06-.02.41.07.07v.15l.06.13v.33l-.05.39.06.38v.59l-.02.08.05.07-.05.08.11.18.04.38h.05v.19s.04.07.04.07l.06.06.08.04h.05s.14-.11.14-.11l.14-.11.07-.2.21-.35.28-.25.09-.23.07-.05h.07l.08-.12-.08-.08.04-.34.04-.04.08-.2.73-1.43v-.04s.05-.07.05-.07l.04-.06-.02-.06.6-1.52.04-.38.12-.18.12-.41h.02s.05-.13.05-.13l.14-.22.57-.21.22-.26.33-.09.08-.04.09-.04.14-.05.15.04v.33s.04.06.04.06l.13.2-.04.14v.07s.02.21.02.21l.05.08.04.27.11.28v.34l.15.57.25,2.16-.05.2.05.12-.08.62.07.63v.62s-.06.3-.06.3l.02.07.05.25Z"/>
        <path class="cls-7" d="m255.84,102.2h-.01s-.16.47-.16.47v.15l-.07.14-.05.08h-.02l.09.28-.59,1.02-.04.05-.04.11-.11.18-.28.33-.32.46-.06.11-.25.27-.18.27-.21.16-.15.2h-.05s-.02.06-.02.06l-.23.22-.18.2-.05.07-.15.14-1.14.63-.38.08-.48.19h-1.01s-.48-.12-.48-.12l-.43-.18-.36-.34-.09-.13-.18-.18-.14-.14-.12-.32-.09-.13v-.05s-.01-.13-.01-.13l-.13-.36v-.4l-.04-.11.04-.43v-.2l.02-.14.11-.41.04-.25-.04-.16-.05-.07-.12-.09-.08-.3-.21-.32v-.53l.04-.21.02-.08.11-.29.28-.55.5-.69.61-.61.07-.15h.07v-.05s.22-.19.22-.19l.59-.45.15-.08.15-.11,1.39-.7.36-.07.11-.05.22-.08.21-.08.26.05.33-.12.28.02.41.15.14.33.25.18.12.12.13.08.06.11.11.08.04.11.16.16.07.07.07.12.23.26.11-.05-.04-.12.02-.06.05-.05.08-.02h.08s.11.08.11.08l.11.2.16.36.08.39v.23l.05.15.02.33-.04.05v.22s-.05.57-.05.57l-.04.05Zm-5.54-2.4l.02-.07-.14-.07-.84.66-.16.22-.04.08-.16.13-.2.26-.07.12-.04.05-.05.05-.3.4-.14.35.02.84.09.05.08-.07v-.02s.04-.01.04-.01l.25-.54.06-.11.13-.18v-.04s.08-.16.08-.16l.13-.34.09-.06.11-.2.06-.2.19-.14.04-.06.15-.16.08-.13.26-.28.02-.05.09-.08.02-.05.06-.08.07-.11Zm4.72,1.29l.04-.02-.04-.18-.12-.15-.09-.36h-.02s-.12-.16-.12-.16l-.14-.25-.47-.52-.13-.06-.04-.05-.29-.11-.04-.05h-.07s-.19-.18-.19-.18l-.14-.02-.08.08v.08h-.07l-.22-.16-.28-.04-.06.04h-.06s-.13-.05-.13-.05l-.05-.04-.23.04-.42.18-.11.06-.09.07-.04.04v.04s-.18.18-.18.18h-.04s-.14.21-.14.21l-.26.3-.22.13-.47.55-.08.11v.04l-.28.41-.04.08-.04.06-.04.04-.25.25-.15.41-.14.22-.13.16h-.04l-.05.22-.09.33v.07l-.05.18.07.11v.09s.14.05.14.05l.04.05.42.29.12.06h.09s.07-.05.07-.05l.2.08.25.63-.63.11-.16.12-.42.06-.18.07v.3s.05.09.05.09l.12.23.2.39.06.09.04.08.27.33.08.04.19.04.16.06.25.25h.4s.42.12.42.12l.55-.07.13-.02.21.05.28-.19.11-.02.13-.06.14-.07.11-.06.12-.07.25-.15.08-.07.11-.07h.06s.15-.2.15-.2l.06-.07.16-.15.15-.16.15-.15.06-.06.09-.15.08-.12.05-.06.34-.53.4-.88v-.05s.09-.29.09-.29l.13-.34.08-.5.04-.22.04-.11v-.2s-.07-.13-.07-.13l-.02-.08v-.29s-.05-.11-.05-.11l-.02-.14-.05-.05Z"/>
        <path class="cls-7" d="m265.63,98.32l.36-.11v.5s-.02.25-.02.25l.02.13.02.12-.05.5-.02.16h-.04s.06.05.06.05l-.05.61.13.52-.02.52-.04.12.04.04-.02.6.04.33v.43s-.06.35-.06.35l.09.04v.33s.12.45.12.45l-.09.04.07.06.12.46-.08.02.09.09.04.48.26.49v.08h.09l.16.41.22.5v.02l.28.47.27.15.34.14.55-.12.11.11-.22.27-.5.18-.2.08-.33.06-.25-.05-.15-.07-.32-.13-.15-.21-.25-.12-.43-.27-.14-.32-.16-.29-.39-.46-.09-.11-.04-.18-.12-.14v-.14s-.18-.56-.18-.56l-.13-.36v-.38l.08-.05-.13-.34v-.34l-.08-.38-.04-.36-.04-.36.07-.04-.07-.05-.02-.29-.19.53-.26.46-.23.49-.14.22h-.06l-.02.12-.05.12-.23.48h-.05v.08h.05l-.19.41-.26.48-.28.48-.16.33-.26.26-.41.61-.16.2-.16.11-.36.27-.35.16-.38.16-.22.06-.23-.08v.05s-.46-.04-.46-.04l-.29-.22-.2-.32-.12-.26-.05-.13v-.13s-.02-.26-.02-.26l-.04-.27-.02-.52.04-.45.13-.07-.07-.06v-.23s.02-.23.02-.23l.12-.05-.08-.02v-.22s.01-.22.01-.22v-.56s.14-.28.14-.28l.04-.27h.08v-.3l.02-.28.06-.28.07-.28v-.53s0-.54,0-.54l-.05-.02.08-.05-.15-.49.06-.49-.12-.4-.06-.13-.14-.14-.26-.19-.33.04-.46.27-.07-.05-.04.09-.32.23-.33.15-.06-.02-.22.2-.13-.05-.07-.07.21-.23.25-.19h.04l.47-.39.49-.38.49-.38.38-.25.41-.21.13-.05h.12s.33,0,.33,0l.15.02.16.02.11.25h.06l.13.25.05.39-.06.39h-.06v1.32l-.06.28-.07.28-.15.61-.11.09.08.06-.02.29-.06.28.08.09v.09s-.12.53-.12.53l-.2.62v.4s-.08.4-.08.4l-.02.02v.79s.05.36.05.36l.02.4.16.41.15.23.2.14.21.13h.25s.23-.08.23-.08l.08.07.29-.22.25-.22.2-.28.23-.29.12-.28.14-.27.15-.26.16-.23.11-.34.13-.33.13-.34.15-.33.16-.22.28-.56.09-.62h.05l.22-.52.25-.56.13-.61.09-.62v-.23l.12-.49.16-.49.14-.21.28-.11.29-.12.35-.11Z"/>
        <path class="cls-7" d="m276.6,99.35l.11.25v.14s-.22.16-.22.16l-.16.12-.16.04-.15.09h-.04l-.16-.04-.21-.45-.21-.28-.07-.07-.04-.02h-.05s-.05-.08-.05-.08h-.11s-.05-.04-.05-.04l-.18.04-.2.06-.09.09-.89.4-.19.07-.07.06-.22.15-.26.53-.16.7-.09.25-.07.15-.05.16v.29s-.2.6-.2.6l-.04.43-.09.41-.02.04-.04.06-.02.22-.08.14v.05l.02.08.02.19-.04.15-.04.07.04.15-.08.28-.08.98.06.15-.06.25.05,1.15.04.05v.2s-.18.15-.18.15l-.33.12-.41.04-.09.07-.07-.08-.02-.08v-.38s-.05-.34-.05-.34l.08-.76h-.06l.04-.11v-.06h-.01.02s.02-.11.02-.11v-.67l-.07-.26.05-.25v-.23s.04-.06.04-.06v-.05s-.04-.11-.04-.11l.05-.08-.02-.04h-.05l.09-.04-.07-.23v-.16s-.01-.41-.01-.41l-.02-.06.06-.08-.08-.27v-.08s-.01-.06-.01-.06v-.12s.04-.22.04-.22h-.05l-.13-.09h-.05s-.09.01-.09.01l-.05.04-.12.13-.19.12-.08.2-.07.02-.47.79-.19.46-.13.7.06.34-.04.05.02.04-.05.06-.15-.19-.07-.07-.06-.12v-.09s0-.05,0-.05v-.06s0-.09,0-.09l.08-.15-.02-.18.04-.05v-.07l.05-.15.12-.25.07-.33.04-.14.04-.02.5-.82.08-.28h.04s.06-.08.06-.08l.04-.04.02-.06.04-.02v-.11s.08-.12.08-.12l.08-.08.13-.16.12-.07.02-.02.11-.2-.02-.26-.02-.08-.04-.13v-.28s.39-.28.39-.28l.09-.06.08-.11h.09l.06.05.04.06.26.13h.13s.5-.47.5-.47l.09-.16.23-.14.07-.07.02-.05.04-.11.16-.21.02-.19.07-.06h.09s.33-.16.33-.16h.2s.22-.09.22-.09h.05s.05-.01.05-.01l.2-.02.77-.32h.18s.19-.07.19-.07l.84-.39.25-.04.18.14.02.08h0s-.02.38-.02.38l.05.53.04.12v.07Zm-4.28,2.19v-.2s-.07-.06-.07-.06v-.05l-.14-.07h-.3s-.04.12-.04.12l-.09.07.14.63h.12l.21-.23.07-.04.05-.04.05-.07v-.07Z"/>
        <path class="cls-7" d="m290.99,99.82l.05.26-.06.83-.11.3-.05.08-.02.08v.05l-.11.41-.39.9-.05.08-.05.08-.11.18h-.06l-.13.3-.12.22-.23.26-.14.28.06.02-.43.49-.25.45-.63.64-.39.52-.02.08-.2.16-.16.09-.43.49-.36.16-.08.28h-.07s.04.05.04.05l-.47.36v.02s-.15.09-.15.09l.04.06v.05s-.01.13-.01.13l.19,2.73-.14.02-.09-.18-.12-.36v-.12s.01-.08.01-.08l.02-.04-.09-.21-.05-.19v-.05s.11-.14.11-.14l-.08-.11-.12-.4v-.15s-.05-.06-.05-.06v-.26l-.05-.18-.08-.09-.11-.02h-.04l-.05.02-.06.04-.13.06-.07.08h-.14l-.08.02h-.06s-.06.01-.06.01l-.15-.08-.29-.07-.19.07-.09-.04-.08-.09-.02-.09v-.11s-.02-.23-.02-.23l-.28-.55-.05-.08-.02-.09-.26-.39-.05-.09-.02-.14-.02-.15-.02-.14.11-.21-.05-.16-.08-.13v-.14s.06-.02.06-.02v-.07s.07-.15.07-.15h.05s.22.38.22.38l.43,1.15v.04s.08.07.08.07l.05.05.23.28.56.22.4.06.05-.04.27-.06.05-.04v-.09l-.04-.02v-.04h-.05v-.19l-.05-.06-.07-.08.02-.28v-.07l-.04-.12-.08-.6-.32-.64-.25-.15-.5-.05-.22.32-.18.02-.2-.05-.14-.09-.19-.15-.12-.23-.06-.16-.07-.53.05-.71.07-.02v-.12l.49-1.02.52-.59.25-.22.08-.19.13-.16v-.18l-.08-.15v-.63s-.02-.15-.02-.15v-.07s-.06-.22-.06-.22l.07-.57-.02-.27.05-.08-.02-.14v-.07s-.02-.22-.02-.22l.06-.21v-.09l.02-.02-.09-.25.02-.08.02-.19.02-.3.04-.26.02-.08-.07-.18v-.08s0-.04,0-.04l.02-.06-.04-.23h.05v-.09l-.06-.15v-.8s.05-.39.05-.39l-.02-.07-.06-.09.02-.52-.02-.05.08-.12.02-.07-.08-.55v-.08s.08-.54.08-.54l-.08-.11-.08-.62-.19-.45.05-.32.25-.09.21-.13.11-.12.25-.21.07-.08.11-.13.04-.07.27-.02.21-.06h.04l.07.02.06.06v.06s.08.22.08.22l.11,1.56-.05.38v.43s-.09.25-.09.25l.08.27-.06,2.37v.02l-.04.21-.05.14.02.21v.25l.02.2-.08.28.05.18-.02.29-.02.09.02.13-.13,2.25,1.09-.69.11-.09.09-.07.02-.05.12-.06.11-.04.09-.09.15-.04.68-.4.13-.04.06-.04.19-.05.13-.06h.06s.26-.04.26-.04l.08-.09.33-.04.12-.05.08-.02h.08s.73.16.73.16l.28.35.2.57.08.09v.16Zm-1.44,1.62l-.05-.06.06-.34-.05-.43-.02-.02.06-.07-.05-.38-.18-.42-.22-.28h-.32s-.73.23-.73.23l-.83.61-.12.02-.52.39-.16.14h-.06s.02.06.02.06l-.26.09-.25.34-.19.38-.08.39-.02,1.35v.12s.02.04.02.04l.04.05-.05.05.02,1.18.08.7-.02.59.09,1.18.09.07.19-.15.08-.05.19-.15.21-.22.07-.12.15-.12.22-.19.15-.28.2-.18.11-.19.08-.07.09-.18.02-.04.08-.13.02-.06.06-.04.05-.05h.04l.05-.15.19-.19.12-.28.13-.07.04-.05v-.05l-.04-.08.15-.19.08-.13.06-.09.05-.12.04-.15.11-.14.02-.15.32-.57v-.13s.06-.16.06-.16l.25-.89v-.04l.05-.14Z"/>
        <path class="cls-7" d="m300.32,103.93h.18l-.11.23-.06.11-.08.2-.34.36v.05s-.21.21-.21.21l-1.23,1.07-.18.13-.08.09-.23.18-.06.07-.07.07-.05.02-.08.02-.38.33-1.15.67-.35.13-.18.04-.08.04-.38.12-.11.04-.3.11-.7.08h-.57s-.46-.15-.46-.15l-.25-.28-.16-.12-.38-.54-.16-.86.14-.59v-.25s.36-1.23.36-1.23l.84-1.63-.22-.4v-.46s.26-.43.26-.43l.33-.45.41-.46.77-.66.42-.28.11-.09.09-.05.61-.45.11-.09.15-.09.75-.39,1.02-.38.46-.06.36.07.12.06.33.22.06.59-.09.39-.48,1-.16.25-.11.09-.14.14-.79.82-.32.15-.68.5-1.37.61-.55.13-.08.02h-.06s-.12,0-.12,0l-.28-.02-.13-.04-.02-.19.35-.21.28-.28.27-.08.19-.15,1.05-.19.32-.11,1.03-.56.38-.43.25-.56.05-.3-.02-.54-.38-.28h-.49s-.21.06-.21.06l-.3.21-.11.07-.13.13-.11.05-.33.34-.33.35-.13.14-.18.2-.29.28-.36.49-.08.09-.07.05-.16.2-.27.35-.09.21-.29.29-.57,1.21-.28.97v.23l-.05.27-.05.9.16.38.21.29.25.23.26.19.07.04.13.06.27.06,1.01.02.9-.27.96-.52.38-.34.08-.06.08-.06,1.05-.79h.08v-.06s.05-.11.05-.11l.47-.41.82-.84Zm-4.96-3.52l.09-.28-.35.2-.59.53-.06.25.02.08.14.02.29-.33h.02s.12-.15.12-.15l.3-.32Z"/>
        <path class="cls-7" d="m308.85,98.77h.07s-.04.33-.04.33l-.07.22-.04.09-.05.04-.02-.04v.48l-.08.02-.06-.05-.08-.68-.2-.21-.09-.08-.06-.07-.75-.08-1.04.33-.8.46-.28.25-.22.18-.56.33-.02.05h-.08s-1,1.07-1,1.07l-.08.06-.08.2-.26.38-.25.54.07.28v.08s0,.06,0,.06l.04.06.11.2.18.2.28.14,1.07-.11,1.27-.46.33-.06.45-.18.77-.21.67-.07.05.02.11-.02.23.04.67.35.13.21v.34l-.06.07h.05l.06.35-.28.73-.27.36-.12.32-.86,1.16v.02l-.13.13-1.07.87-.61.41-.57.29-.34.06-.75.26-.81.06-.43-.04-.19-.09-.08-.06-.3-.06-.04-.08-.38-.04-.3-.12-.05-.08v-.12s.36-.16.36-.16h.18s.34-.21.34-.21l.35.09h.2s.25.08.25.08l.52.02.08.04v.02s.18-.01.18-.01h.13s.41-.02.41-.02l.3-.15.28-.05.47-.18.4-.09.34-.21.21-.23.29-.16.38-.61.32-.23.28-.46.08-.53-.02-.28-.02-.07-.04-.11-.21-.25h-.53l-.56.16-.36.21-.28.04-.35.2-.64.23-.43.09-.13.04h-.06s-.07-.04-.07-.04l-.21.04-.13.06-.5.07h-.83l-.5-.34-.11-.06-.07-.08-.02-.05-.11-.3-.04-.25v-.13s.01-.09.01-.09l.15-.64.52-.89.06-.08.02-.18.68-.95h.15l.18-.39.29-.23v-.07s.08-.05.08-.05l.14-.19,1.82-1.52.66-.42.9-.42.62-.05.2-.06h.09s.09.04.09.04l.05.07.23.08.16.21.07.35-.06.11-.08.06v.08s.11-.01.11-.01v.04Z"/>
        <path class="cls-7" d="m315.57,100.93l.27.21-.53.09-1.01.04-.38-.04-.07-.07-.19.02.07.06-.06.05-.06-.02-.08.63.04.16-.07,1.64.04.06h.04s-.04.94-.04.94l-.02.05-.04.07v.04s.05.09.05.09l.04.15-.06,1.09.06.08v.06s-.05.09-.05.09l-.12.47.09.2v.33l.05.05v.09s.02.05.02.05l.02.15v.07h-.05l.05.06v.08s-.46.05-.46.05l-.43.23-.13.07h-.11s-.09,0-.09,0l-.06-.11v-.35s.08-.13.08-.13v-.48s.02-.16.02-.16v-.26s.01-.08.01-.08v-.06s-.01-.09-.01-.09l-.07-.18v-.41s.06-.13.06-.13v-.16s-.05-.06-.05-.06l-.14-.55.04-.49-.05-.04.06-.05v-.3s.06-.68.06-.68l.14-.12-.07-.32-.04-.81.04-.81-.49-.04-.13-.08-.26.02-.53.06-.27-.07-.18-.27-.27-.07-.13-.11.14-.11.14.04.94-.02.3-.06h.38s.27-.07.27-.07l.02-.06.09-.02.11-.22-.09-.26-.04-.15.02-.07.02-.11-.04-.23h.05s-.01-.05-.01-.05l-.08-.15v-.12s-.09-1.49-.09-1.49v-.07l-.05-.18.16-.28-.05-.11-.07-.08-.05-.13v-.75s-.06-.04-.06-.04l-.04-.18-.07-.09.08-.29.33-.12.2-.19.05-.38-.07-.29.13-.61-.05-.06v-.23s.09-.89.09-.89l-.07-.29v-.11s-.05-.11-.05-.11l-.2-.05-.09-.05-.09-.04-.18.05-.13-.26v-.34s.09-.22.09-.22l-.06-.45.02-.08v-.05s.07-.06.07-.06l.02-.22-.07-.07v-.11s-.04-.02-.04-.02l.22-.35.32-.14.14-.15.18-.15.33-.48.16.02.06.19.02.38.05.13-.02.29.07.23v.14s0,.08,0,.08l-.02.06.05.14v.07s.01.05.01.05l-.07.13.07.23-.08.52.08.33.04.47v.11s.04.15.04.15l-.06,1.44.11.08-.08.25.04.02-.05.06h.06l-.11.79.06.59-.07.19.05.25-.04.36.04.34-.09.62.04.12.04.19h.02s.02.39.02.39l-.11.43v1.41s-.12.08-.12.08l-.04.11.12.09.06.11.33.04.18-.05.14.08.4-.09.6.04.35.2Z"/>
        <path class="cls-7" d="m326.48,100.93l.27.21-.53.09-1.01.04-.38-.04-.07-.07-.19.02.07.06-.06.05-.06-.02-.08.63.04.16-.07,1.64.04.06h.04s-.04.94-.04.94l-.02.05-.04.07v.04s.05.09.05.09l.04.15-.06,1.09.06.08v.06s-.05.09-.05.09l-.12.47.09.2v.33l.05.05v.09s.02.05.02.05l.02.15v.07h-.05l.05.06v.08s-.46.05-.46.05l-.43.23-.13.07h-.11s-.09,0-.09,0l-.06-.11v-.35s.08-.13.08-.13v-.48s.02-.16.02-.16v-.26s.01-.08.01-.08v-.06s-.01-.09-.01-.09l-.07-.18v-.41s.06-.13.06-.13v-.16s-.05-.06-.05-.06l-.14-.55.04-.49-.05-.04.06-.05v-.3s.06-.68.06-.68l.14-.12-.07-.32-.04-.81.04-.81-.49-.04-.13-.08-.26.02-.53.06-.27-.07-.18-.27-.27-.07-.13-.11.14-.11.14.04.94-.02.3-.06h.38s.27-.07.27-.07l.02-.06.09-.02.11-.22-.09-.26-.04-.15.02-.07.02-.11-.04-.23h.05s-.01-.05-.01-.05l-.08-.15v-.12s-.09-1.49-.09-1.49v-.07l-.05-.18.16-.28-.05-.11-.07-.08-.05-.13v-.75s-.06-.04-.06-.04l-.04-.18-.07-.09.08-.29.33-.12.2-.19.05-.38-.07-.29.13-.61-.05-.06v-.23s.09-.89.09-.89l-.07-.29v-.11s-.05-.11-.05-.11l-.2-.05-.09-.05-.09-.04-.18.05-.13-.26v-.34s.09-.22.09-.22l-.06-.45.02-.08v-.05s.07-.06.07-.06l.02-.22-.07-.07v-.11s-.04-.02-.04-.02l.22-.35.32-.14.14-.15.18-.15.33-.48.16.02.06.19.02.38.05.13-.02.29.07.23v.14s0,.08,0,.08l-.02.06.05.14v.07s.01.05.01.05l-.07.13.07.23-.08.52.08.33.04.47v.11s.04.15.04.15l-.06,1.44.11.08-.08.25.04.02-.05.06h.06l-.11.79.06.59-.07.19.05.25-.04.36.04.34-.09.62.04.12.04.19h.02s.02.39.02.39l-.11.43v1.41s-.12.08-.12.08l-.04.11.12.09.06.11.33.04.18-.05.14.08.4-.09.6.04.35.2Z"/>
        <path class="cls-7" d="m335.9,102.2h-.01s-.16.47-.16.47v.15l-.07.14-.05.08h-.02l.09.28-.59,1.02-.04.05-.04.11-.11.18-.28.33-.32.46-.06.11-.25.27-.18.27-.21.16-.15.2h-.05s-.02.06-.02.06l-.23.22-.18.2-.05.07-.15.14-1.14.63-.38.08-.48.19h-1.01s-.48-.12-.48-.12l-.43-.18-.36-.34-.09-.13-.18-.18-.14-.14-.12-.32-.09-.13v-.05s-.01-.13-.01-.13l-.13-.36v-.4l-.04-.11.04-.43v-.2l.02-.14.11-.41.04-.25-.04-.16-.05-.07-.12-.09-.08-.3-.21-.32v-.53l.04-.21.02-.08.11-.29.28-.55.5-.69.61-.61.07-.15h.07v-.05s.22-.19.22-.19l.59-.45.15-.08.15-.11,1.39-.7.36-.07.11-.05.22-.08.21-.08.26.05.33-.12.28.02.41.15.14.33.25.18.12.12.13.08.06.11.11.08.04.11.16.16.07.07.07.12.23.26.11-.05-.04-.12.02-.06.05-.05.08-.02h.08s.11.08.11.08l.11.2.16.36.08.39v.23l.05.15.02.33-.04.05v.22s-.05.57-.05.57l-.04.05Zm-5.54-2.4l.02-.07-.14-.07-.84.66-.16.22-.04.08-.16.13-.2.26-.07.12-.04.05-.05.05-.3.4-.14.35.02.84.09.05.08-.07v-.02s.04-.01.04-.01l.25-.54.06-.11.13-.18v-.04s.08-.16.08-.16l.13-.34.09-.06.11-.2.06-.2.19-.14.04-.06.15-.16.08-.13.26-.28.02-.05.09-.08.02-.05.06-.08.07-.11Zm4.72,1.29l.04-.02-.04-.18-.12-.15-.09-.36h-.02s-.12-.16-.12-.16l-.14-.25-.47-.52-.13-.06-.04-.05-.29-.11-.04-.05h-.07s-.19-.18-.19-.18l-.14-.02-.08.08v.08h-.07l-.22-.16-.28-.04-.06.04h-.06s-.13-.05-.13-.05l-.05-.04-.23.04-.42.18-.11.06-.09.07-.04.04v.04s-.18.18-.18.18h-.04s-.14.21-.14.21l-.26.3-.22.13-.47.55-.08.11v.04l-.28.41-.04.08-.04.06-.04.04-.25.25-.15.41-.14.22-.13.16h-.04l-.05.22-.09.33v.07l-.05.18.07.11v.09s.14.05.14.05l.04.05.42.29.12.06h.09s.07-.05.07-.05l.2.08.25.63-.63.11-.16.12-.42.06-.18.07v.3s.05.09.05.09l.12.23.2.39.06.09.04.08.27.33.08.04.19.04.16.06.25.25h.4s.42.12.42.12l.55-.07.13-.02.21.05.28-.19.11-.02.13-.06.14-.07.11-.06.12-.07.25-.15.08-.07.11-.07h.06s.15-.2.15-.2l.06-.07.16-.15.15-.16.15-.15.06-.06.09-.15.08-.12.05-.06.34-.53.4-.88v-.05s.09-.29.09-.29l.13-.34.08-.5.04-.22.04-.11v-.2s-.07-.13-.07-.13l-.02-.08v-.29s-.05-.11-.05-.11l-.02-.14-.05-.05Z"/>
        <path class="cls-7" d="m352.75,102.02l.04.13-.04.34-.16.2-.23.08h-.09l-.53-.16-.5-.39-1.78-.09-.14-.06h-.05s-.07.04-.07.04l-.35-.04-.23.08.13.27-.05.33.04.08v.11s-.05.05-.05.05h-.12l-.14-.48.11-.13-.18-.14-.2-.14h-.06s-.25,0-.25,0l-.13.02-.12.02-.11.05-.05.05-.02.07-.06.22.15,2.09v.77l.04.15h.05s.02.06.02.06l.08.04.06-.06.12-.04.2-.16.39-.18.06-.55.06-.06.14.02.06.04.04.15.05.3-.16.86.02.28-.08.18.02.11v.23l-.09.3-.08.82-.21,1.43-.09.19v.16l-.08.19.05.32-.26,2.02v1.03s.12.56.12.56l.02.36-.16.14-.13.06-.05.04-.2.04h-.53l-.05-.06-.2-.11-.06-.08-.02-.09.19-.21-.04-.48-.14-.52v-.77l-.13-.36.02-.29v-.09s.02-.2.02-.2v-.42s-.05-.25-.05-.25l.04-.28-.05-.29.04-.4-.06-.33-.02-.2v-.06l.09-.26-.12-.81.06-.63-.04-.13v-.05s0-.09,0-.09v-1.62s-.13-.42-.13-.42l.04-.05.02-.18-.12-2.18-.08-.2-.75.04v.04s-.18-.01-.18-.01l-.43-.04-.76.16-.95.02-.32.13-.46.02-.15-.21v-.07s0-.05,0-.05l.09-.15.16-.18.67-.27.32-.2.13-.08.08-.04.49-.34.08-.07h.06s.49-.35.49-.35l.98-.61.6-.45.05.02.07-.07.09-.06.42-.43.18-.08.07-.04.05-.06.02-.12.3-.26.06-.07.02-.04.06-.06.41-.43.07-.12.11-.13.09-.18v-.06h.07v-.05s.05-.06.05-.06v-.33s-.05-.02-.05-.02l-.02-.06v-.09s.05-.09.05-.09v-.23s.02-.11.02-.11v-.11s.04-.09.04-.09v-.19s.01-1.12.01-1.12h.04l.02-.02v-.06s-.07-.14-.07-.14l.02-.4.02-.16v-.94s-.13-.26-.13-.26v-.49s-.01-.18-.01-.18v-.07l-.12-.83-.16-.74v-.21s.2-.09.2-.09l.11-.09.02-.06.05-.23.21-.04.07-.09.59-.05.04.25-.04.16.22.76v.21s.21.89.21.89l.12,1.09.06,1.24.09.26-.02.34.05.13v.2s-.04,1.58-.04,1.58l-.32.76-.93,1.12-.11.53-.02,1.02-.07.3v.28s-.07.27-.07.27l.02.27-.05.11.02.08.06.05h.22l.12.02h.16s.98.02.98.02l.4.11,1.34.04.73.08.06.08.06.04Zm-7.28-.97l-.69.34v.08l-.02.04h.05s.04.06.04.06l.06.04h.14s.11-.01.11-.01l.68.02.07-.15v-.06s-.09-.16-.09-.16l-.07-.12-.11-.07h-.09s-.06,0-.06,0Zm1.73-1.12l-.3.15.22.96.02.22.02.05.07.26.19.08.93-.02v-.76s.06-.29.06-.29l-.06-.09.07-.33-.05-.08-.02-.06-.09-.25h.04s-.02-.12-.02-.12l.09-.07h.07s-.01-.04-.01-.04l-.04-.02-.09-.02-.26.05-.15.04-.4.12-.2.16-.08.07Z"/>
        <path class="cls-7" d="m361.58,103.93h.18l-.11.23-.06.11-.08.2-.34.36v.05s-.21.21-.21.21l-1.23,1.07-.18.13-.08.09-.23.18-.06.07-.07.07-.05.02-.08.02-.38.33-1.15.67-.35.13-.18.04-.08.04-.38.12-.11.04-.3.11-.7.08h-.57s-.46-.15-.46-.15l-.25-.28-.16-.12-.38-.54-.16-.86.14-.59v-.25s.36-1.23.36-1.23l.84-1.63-.22-.4v-.46s.26-.43.26-.43l.33-.45.41-.46.77-.66.42-.28.11-.09.09-.05.61-.45.11-.09.15-.09.75-.39,1.02-.38.46-.06.36.07.12.06.33.22.06.59-.09.39-.48,1-.16.25-.11.09-.14.14-.79.82-.32.15-.68.5-1.37.61-.55.13-.08.02h-.06s-.12,0-.12,0l-.28-.02-.13-.04-.02-.19.35-.21.28-.28.27-.08.19-.15,1.05-.19.32-.11,1.03-.56.38-.43.25-.56.05-.3-.02-.54-.38-.28h-.49s-.21.06-.21.06l-.3.21-.11.07-.13.13-.11.05-.33.34-.33.35-.13.14-.18.2-.29.28-.36.49-.08.09-.07.05-.16.2-.27.35-.09.21-.29.29-.57,1.21-.28.97v.23l-.05.27-.05.9.16.38.21.29.25.23.26.19.07.04.13.06.27.06,1.01.02.9-.27.96-.52.38-.34.08-.06.08-.06,1.05-.79h.08v-.06s.05-.11.05-.11l.47-.41.82-.84Zm-4.96-3.52l.09-.28-.35.2-.59.53-.06.25.02.08.14.02.29-.33h.02s.12-.15.12-.15l.3-.32Z"/>
        <path class="cls-7" d="m371.36,103.93h.18l-.11.23-.06.11-.08.2-.34.36v.05s-.21.21-.21.21l-1.23,1.07-.18.13-.08.09-.23.18-.06.07-.07.07-.05.02-.08.02-.38.33-1.15.67-.35.13-.18.04-.08.04-.38.12-.11.04-.3.11-.7.08h-.57s-.46-.15-.46-.15l-.25-.28-.16-.12-.38-.54-.16-.86.14-.59v-.25s.36-1.23.36-1.23l.84-1.63-.22-.4v-.46s.26-.43.26-.43l.33-.45.41-.46.77-.66.42-.28.11-.09.09-.05.61-.45.11-.09.15-.09.75-.39,1.02-.38.46-.06.36.07.12.06.33.22.06.59-.09.39-.48,1-.16.25-.11.09-.14.14-.79.82-.32.15-.68.5-1.37.61-.55.13-.08.02h-.06s-.12,0-.12,0l-.28-.02-.13-.04-.02-.19.35-.21.28-.28.27-.08.19-.15,1.05-.19.32-.11,1.03-.56.38-.43.25-.56.05-.3-.02-.54-.38-.28h-.49s-.21.06-.21.06l-.3.21-.11.07-.13.13-.11.05-.33.34-.33.35-.13.14-.18.2-.29.28-.36.49-.08.09-.07.05-.16.2-.27.35-.09.21-.29.29-.57,1.21-.28.97v.23l-.05.27-.05.9.16.38.21.29.25.23.26.19.07.04.13.06.27.06,1.01.02.9-.27.96-.52.38-.34.08-.06.08-.06,1.05-.79h.08v-.06s.05-.11.05-.11l.47-.41.82-.84Zm-4.96-3.52l.09-.28-.35.2-.59.53-.06.25.02.08.14.02.29-.33h.02s.12-.15.12-.15l.3-.32Z"/>
        <path class="cls-7" d="m376.33,109.45l.23.23v.13l-.82-.26-.14-.11-.25-.05-.11-.11-.04-.04-.14-.22-.08-.06-.06-.06-.08-.15-.22-.21v-.09s-.69-.42-.69-.42l-.12-.15-.15-.46.08-.34-.06-.04.04-.14-.02-.02-.06-.87.09-.38.02-.63v-.07s.05-.08.05-.08l.08-.61v-.94h-.05l-.04-.6.09-.75-.07-.16-.02-2.2-.06-.26.08-.54.06-1.37v-.06s.04-.22.04-.22v-1.73l.06-.28-.08-.45v-.96s-.05-.08-.05-.08l-.05-.11-.04-.09h-.05l.02-.82v-.12l.07-.26-.16-.35v-.32l-.02-.04-.02-.2v-.36s-.04-.2-.04-.2v-.06s.08-.11.08-.11l.05-.06.32-.33.23-.04.15-.05v-.04h.06s.09-.02.09-.02l.08.11v.04s.07.27.07.27l.05.45.15.42v.56l.05.5.25.3.27.08.07.15v.48s-.12.12-.12.12l.05.18v.06s0,.06,0,.06v.05s-.06.06-.06.06l-.15,1.35v.5l-.12.28v.86s-.04.18-.04.18v.41l.04.07-.02.05v.95s-.04.05-.04.05l-.02.19h.07s-.01.38-.01.38l-.06.18-.06,1.25.05.88-.06.32.05.57-.04.18.06.23-.05.13.07,1.89.16,1.09-.07.62.08.25-.06.26.15.27v.19s.02.07.02.07l.06.29.27.62.21.16.2.41.09.19.12.18Z"/>
        <path class="cls-7" d="m390.95,106.87l-.05.68-.09.68-.08.27.02.05.04.12-.07.9-.14.64v.14s-.04.14-.04.14l-.02.13v.62l-.18.88v.09l-.04.18-.05.2-.07.12-.12.25.11.29-.07.45v.18l-.04.07-.05.13-.05,1.11-.13.45-.04.04-.11.28-.16.3-.11.11-.06.09-.12.41-.38.62-.08.16-.08.04-.05.05-.11.13-.22.14-.33.32-.19.28-.38.21-.26.26-.07.02-.07-.02-.76.43-.82.25-.42.27-.05-.02v-.05h-.19s-.25.09-.25.09h-.05l-.06-.07h-.12l-.26.11-.25-.05-.64.05-1.3-.55-.21-.23-.11-.11-.02-.05-.05-.05-.09-.22v-.11s-.27-.48-.27-.48v-.08s-.01-.18-.01-.18v-.04s.01-.08.01-.08l.09-.13.15-.15.04-.12.06-.18v-.08s.01-.06.01-.06l.09-.14.13-.39.15-.05v-.11l.04-.14.22-.2.06-.04.09-.02.12.04v.09h.05l-.11.4v.59s.09.3.09.3l-.05.18.04.09.05.06.04.11v.14l.14.25.09.13.13.13-.02-.02.16.23.06.13.15.06.05.06.39.22.48.14.79-.02.3-.06.06-.02h.13s.63-.28.63-.28h.06s.07-.07.07-.07l.16-.07.12-.08.4-.27v.07l.06-.02.18-.23.29-.18.54-.55.43-.83.11-.28v-.06l.04-.07.06-.19.08-.15.19-.4v-.08l.04-.15.06-.32v-.28s.07-.32.07-.32v-.08l.04-.06v-.07s-.04-.07-.04-.07l.08-.32.02-.66.05-.04.04-.14.02-.07.07-.11-.04-.32.06-.61-.07-.39.09-.67.05-.93.04-.14-.02-.16-.04-.41.06-.3.07-.14.02-.14v-.05l-.14-.69.11-.69v-1.1s0-.19,0-.19l-.08.02.02-.28h-.05s-.04-.74-.04-.74v-.05s-.02-.12-.02-.12v-.09s.02-.26.02-.26l-.08-.81.06-.04.04-.09-.16-.09-.11-.42v-.29s-.04-.05-.04-.05h-.02l.02-.14-.12-.08-.22.25-.22.56-.12.21-.07.09-.07.38-.25.28-.42.8-.22.25h.07s-.08.16-.08.16l-.43.6-.25.43-.07.09-.12.06-.06.02-.02.05-.22.21-.02.07-.08.07h-.02s-.16.22-.16.22l-.8.47-.09.07h-.08s-.69.34-.69.34l-.23-1.01.06-.66v-.05s-.05-.09-.05-.09l-.05-.08-.09-.59v-.63s.01-.05.01-.05l-.04-.07v-.06s-.01-.33-.01-.33l-.06-.25v-.5s.06-.33.06-.33v-.29l-.08-.15v-.09s-.04-.13-.04-.13v-.11s0-.12,0-.12l.05-.06.06-1.63.09-.32.06-.26-.02-.2v-.12l.08-.39-.04-.07.02-.04v-.64s-.04-.09-.04-.09l.06-.07.07-.13.07-.23.29-.05.36-.21h.23v.8s-.04.06-.04.06l-.04.08v.08s.02.04.02.04l.07.08-.04.27-.06.07-.02.12-.04.11.02.48.13.39-.07,1.24.07.3v.11s0,.09,0,.09l-.04.14v.23s-.01.18-.01.18l.02.06-.02.41.07.07v.15l.06.13v.33l-.05.39.06.38v.59l-.02.08.05.07-.05.08.11.18.04.38h.05v.19s.04.07.04.07l.06.06.08.04h.05s.14-.11.14-.11l.14-.11.07-.2.21-.35.28-.25.09-.23.07-.05h.07l.08-.12-.08-.08.04-.34.04-.04.08-.2.73-1.43v-.04s.05-.07.05-.07l.04-.06-.02-.06.6-1.52.04-.38.12-.18.12-.41h.02s.05-.13.05-.13l.14-.22.57-.21.22-.26.33-.09.08-.04.09-.04.14-.05.15.04v.33s.04.06.04.06l.13.2-.04.14v.07s.02.21.02.21l.05.08.04.27.11.28v.34l.15.57.25,2.16-.05.2.05.12-.08.62.07.63v.62s-.06.3-.06.3l.02.07.05.25Z"/>
        <path class="cls-7" d="m401.46,102.2h-.01s-.16.47-.16.47v.15l-.07.14-.05.08h-.02l.09.28-.59,1.02-.04.05-.04.11-.11.18-.28.33-.32.46-.06.11-.25.27-.18.27-.21.16-.15.2h-.05s-.02.06-.02.06l-.23.22-.18.2-.05.07-.15.14-1.14.63-.38.08-.48.19h-1.01s-.48-.12-.48-.12l-.43-.18-.36-.34-.09-.13-.18-.18-.14-.14-.12-.32-.09-.13v-.05s-.01-.13-.01-.13l-.13-.36v-.4l-.04-.11.04-.43v-.2l.02-.14.11-.41.04-.25-.04-.16-.05-.07-.12-.09-.08-.3-.21-.32v-.53l.04-.21.02-.08.11-.29.28-.55.5-.69.61-.61.07-.15h.07v-.05s.22-.19.22-.19l.59-.45.15-.08.15-.11,1.39-.7.36-.07.11-.05.22-.08.21-.08.26.05.33-.12.28.02.41.15.14.33.25.18.12.12.13.08.06.11.11.08.04.11.16.16.07.07.07.12.23.26.11-.05-.04-.12.02-.06.05-.05.08-.02h.08s.11.08.11.08l.11.2.16.36.08.39v.23l.05.15.02.33-.04.05v.22s-.05.57-.05.57l-.04.05Zm-5.54-2.4l.02-.07-.14-.07-.84.66-.16.22-.04.08-.16.13-.2.26-.07.12-.04.05-.05.05-.3.4-.14.35.02.84.09.05.08-.07v-.02s.04-.01.04-.01l.25-.54.06-.11.13-.18v-.04s.08-.16.08-.16l.13-.34.09-.06.11-.2.06-.2.19-.14.04-.06.15-.16.08-.13.26-.28.02-.05.09-.08.02-.05.06-.08.07-.11Zm4.72,1.29l.04-.02-.04-.18-.12-.15-.09-.36h-.02s-.12-.16-.12-.16l-.14-.25-.47-.52-.13-.06-.04-.05-.29-.11-.04-.05h-.07s-.19-.18-.19-.18l-.14-.02-.08.08v.08h-.07l-.22-.16-.28-.04-.06.04h-.06s-.13-.05-.13-.05l-.05-.04-.23.04-.42.18-.11.06-.09.07-.04.04v.04s-.18.18-.18.18h-.04s-.14.21-.14.21l-.26.3-.22.13-.47.55-.08.11v.04l-.28.41-.04.08-.04.06-.04.04-.25.25-.15.41-.14.22-.13.16h-.04l-.05.22-.09.33v.07l-.05.18.07.11v.09s.14.05.14.05l.04.05.42.29.12.06h.09s.07-.05.07-.05l.2.08.25.63-.63.11-.16.12-.42.06-.18.07v.3s.05.09.05.09l.12.23.2.39.06.09.04.08.27.33.08.04.19.04.16.06.25.25h.4s.42.12.42.12l.55-.07.13-.02.21.05.28-.19.11-.02.13-.06.14-.07.11-.06.12-.07.25-.15.08-.07.11-.07h.06s.15-.2.15-.2l.06-.07.16-.15.15-.16.15-.15.06-.06.09-.15.08-.12.05-.06.34-.53.4-.88v-.05s.09-.29.09-.29l.13-.34.08-.5.04-.22.04-.11v-.2s-.07-.13-.07-.13l-.02-.08v-.29s-.05-.11-.05-.11l-.02-.14-.05-.05Z"/>
        <path class="cls-7" d="m411.25,98.32l.36-.11v.5s-.02.25-.02.25l.02.13.02.12-.05.5-.02.16h-.04s.06.05.06.05l-.05.61.13.52-.02.52-.04.12.04.04-.02.6.04.33v.43s-.06.35-.06.35l.09.04v.33s.12.45.12.45l-.09.04.07.06.12.46-.08.02.09.09.04.48.26.49v.08h.09l.16.41.22.5v.02l.28.47.27.15.34.14.55-.12.11.11-.22.27-.5.18-.2.08-.33.06-.25-.05-.15-.07-.32-.13-.15-.21-.25-.12-.43-.27-.14-.32-.16-.29-.39-.46-.09-.11-.04-.18-.12-.14v-.14s-.18-.56-.18-.56l-.13-.36v-.38l.08-.05-.13-.34v-.34l-.08-.38-.04-.36-.04-.36.07-.04-.07-.05-.02-.29-.19.53-.26.46-.23.49-.14.22h-.06l-.02.12-.05.12-.23.48h-.05v.08h.05l-.19.41-.26.48-.28.48-.16.33-.26.26-.41.61-.16.2-.16.11-.36.27-.35.16-.38.16-.22.06-.23-.08v.05s-.46-.04-.46-.04l-.29-.22-.2-.32-.12-.26-.05-.13v-.13s-.02-.26-.02-.26l-.04-.27-.02-.52.04-.45.13-.07-.07-.06v-.23s.02-.23.02-.23l.12-.05-.08-.02v-.22s.01-.22.01-.22v-.56s.14-.28.14-.28l.04-.27h.08v-.3l.02-.28.06-.28.07-.28v-.53s0-.54,0-.54l-.05-.02.08-.05-.15-.49.06-.49-.12-.4-.06-.13-.14-.14-.26-.19-.33.04-.46.27-.07-.05-.04.09-.32.23-.33.15-.06-.02-.22.2-.13-.05-.07-.07.21-.23.25-.19h.04l.47-.39.49-.38.49-.38.38-.25.41-.21.13-.05h.12s.33,0,.33,0l.15.02.16.02.11.25h.06l.13.25.05.39-.06.39h-.06v1.32l-.06.28-.07.28-.15.61-.11.09.08.06-.02.29-.06.28.08.09v.09s-.12.53-.12.53l-.2.62v.4s-.08.4-.08.4l-.02.02v.79s.05.36.05.36l.02.4.16.41.15.23.2.14.21.13h.25s.23-.08.23-.08l.08.07.29-.22.25-.22.2-.28.23-.29.12-.28.14-.27.15-.26.16-.23.11-.34.13-.33.13-.34.15-.33.16-.22.28-.56.09-.62h.05l.22-.52.25-.56.13-.61.09-.62v-.23l.12-.49.16-.49.14-.21.28-.11.29-.12.35-.11Z"/>
        <path class="cls-7" d="m422.22,99.35l.11.25v.14s-.22.16-.22.16l-.16.12-.16.04-.15.09h-.04l-.16-.04-.21-.45-.21-.28-.07-.07-.04-.02h-.05s-.05-.08-.05-.08h-.11s-.05-.04-.05-.04l-.18.04-.2.06-.09.09-.89.4-.19.07-.07.06-.22.15-.26.53-.16.7-.09.25-.07.15-.05.16v.29s-.2.6-.2.6l-.04.43-.09.41-.02.04-.04.06-.02.22-.08.14v.05l.02.08.02.19-.04.15-.04.07.04.15-.08.28-.08.98.06.15-.06.25.05,1.15.04.05v.2s-.18.15-.18.15l-.33.12-.41.04-.09.07-.07-.08-.02-.08v-.38s-.05-.34-.05-.34l.08-.76h-.06l.04-.11v-.06h-.01.02s.02-.11.02-.11v-.67l-.07-.26.05-.25v-.23s.04-.06.04-.06v-.05s-.04-.11-.04-.11l.05-.08-.02-.04h-.05l.09-.04-.07-.23v-.16s-.01-.41-.01-.41l-.02-.06.06-.08-.08-.27v-.08s-.01-.06-.01-.06v-.12s.04-.22.04-.22h-.05l-.13-.09h-.05s-.09.01-.09.01l-.05.04-.12.13-.19.12-.08.2-.07.02-.47.79-.19.46-.13.7.06.34-.04.05.02.04-.05.06-.15-.19-.07-.07-.06-.12v-.09s0-.05,0-.05v-.06s0-.09,0-.09l.08-.15-.02-.18.04-.05v-.07l.05-.15.12-.25.07-.33.04-.14.04-.02.5-.82.08-.28h.04s.06-.08.06-.08l.04-.04.02-.06.04-.02v-.11s.08-.12.08-.12l.08-.08.13-.16.12-.07.02-.02.11-.2-.02-.26-.02-.08-.04-.13v-.28s.39-.28.39-.28l.09-.06.08-.11h.09l.06.05.04.06.26.13h.13s.5-.47.5-.47l.09-.16.23-.14.07-.07.02-.05.04-.11.16-.21.02-.19.07-.06h.09s.33-.16.33-.16h.2s.22-.09.22-.09h.05s.05-.01.05-.01l.2-.02.77-.32h.18s.19-.07.19-.07l.84-.39.25-.04.18.14.02.08h0s-.02.38-.02.38l.05.53.04.12v.07Zm-4.28,2.19v-.2s-.07-.06-.07-.06v-.05l-.14-.07h-.3s-.04.12-.04.12l-.09.07.14.63h.12l.21-.23.07-.04.05-.04.05-.07v-.07Z"/>
        <path class="cls-7" d="m436.62,99.82l.05.26-.06.83-.11.3-.05.08-.02.08v.05l-.11.41-.39.9-.05.08-.05.08-.11.18h-.06l-.13.3-.12.22-.23.26-.14.28.06.02-.43.49-.25.45-.63.64-.39.52-.02.08-.2.16-.16.09-.43.49-.36.16-.08.28h-.07s.04.05.04.05l-.47.36v.02s-.15.09-.15.09l.04.06v.05s-.01.13-.01.13l.19,2.73-.14.02-.09-.18-.12-.36v-.12s.01-.08.01-.08l.02-.04-.09-.21-.05-.19v-.05s.11-.14.11-.14l-.08-.11-.12-.4v-.15s-.05-.06-.05-.06v-.26l-.05-.18-.08-.09-.11-.02h-.04l-.05.02-.06.04-.13.06-.07.08h-.14l-.08.02h-.06s-.06.01-.06.01l-.15-.08-.29-.07-.19.07-.09-.04-.08-.09-.02-.09v-.11s-.02-.23-.02-.23l-.28-.55-.05-.08-.02-.09-.26-.39-.05-.09-.02-.14-.02-.15-.02-.14.11-.21-.05-.16-.08-.13v-.14s.06-.02.06-.02v-.07s.07-.15.07-.15h.05s.22.38.22.38l.43,1.15v.04s.08.07.08.07l.05.05.23.28.56.22.4.06.05-.04.27-.06.05-.04v-.09l-.04-.02v-.04h-.05v-.19l-.05-.06-.07-.08.02-.28v-.07l-.04-.12-.08-.6-.32-.64-.25-.15-.5-.05-.22.32-.18.02-.2-.05-.14-.09-.19-.15-.12-.23-.06-.16-.07-.53.05-.71.07-.02v-.12l.49-1.02.52-.59.25-.22.08-.19.13-.16v-.18l-.08-.15v-.63s-.02-.15-.02-.15v-.07s-.06-.22-.06-.22l.07-.57-.02-.27.05-.08-.02-.14v-.07s-.02-.22-.02-.22l.06-.21v-.09l.02-.02-.09-.25.02-.08.02-.19.02-.3.04-.26.02-.08-.07-.18v-.08s0-.04,0-.04l.02-.06-.04-.23h.05v-.09l-.06-.15v-.8s.05-.39.05-.39l-.02-.07-.06-.09.02-.52-.02-.05.08-.12.02-.07-.08-.55v-.08s.08-.54.08-.54l-.08-.11-.08-.62-.19-.45.05-.32.25-.09.21-.13.11-.12.25-.21.07-.08.11-.13.04-.07.27-.02.21-.06h.04l.07.02.06.06v.06s.08.22.08.22l.11,1.56-.05.38v.43s-.09.25-.09.25l.08.27-.06,2.37v.02l-.04.21-.05.14.02.21v.25l.02.2-.08.28.05.18-.02.29-.02.09.02.13-.13,2.25,1.09-.69.11-.09.09-.07.02-.05.12-.06.11-.04.09-.09.15-.04.68-.4.13-.04.06-.04.19-.05.13-.06h.06s.26-.04.26-.04l.08-.09.33-.04.12-.05.08-.02h.08s.73.16.73.16l.28.35.2.57.08.09v.16Zm-1.44,1.62l-.05-.06.06-.34-.05-.43-.02-.02.06-.07-.05-.38-.18-.42-.22-.28h-.32s-.73.23-.73.23l-.83.61-.12.02-.52.39-.16.14h-.06s.02.06.02.06l-.26.09-.25.34-.19.38-.08.39-.02,1.35v.12s.02.04.02.04l.04.05-.05.05.02,1.18.08.7-.02.59.09,1.18.09.07.19-.15.08-.05.19-.15.21-.22.07-.12.15-.12.22-.19.15-.28.2-.18.11-.19.08-.07.09-.18.02-.04.08-.13.02-.06.06-.04.05-.05h.04l.05-.15.19-.19.12-.28.13-.07.04-.05v-.05l-.04-.08.15-.19.08-.13.06-.09.05-.12.04-.15.11-.14.02-.15.32-.57v-.13s.06-.16.06-.16l.25-.89v-.04l.05-.14Z"/>
        <path class="cls-7" d="m445.95,103.93h.18l-.11.23-.06.11-.08.2-.34.36v.05s-.21.21-.21.21l-1.23,1.07-.18.13-.08.09-.23.18-.06.07-.07.07-.05.02-.08.02-.38.33-1.15.67-.35.13-.18.04-.08.04-.38.12-.11.04-.3.11-.7.08h-.57s-.46-.15-.46-.15l-.25-.28-.16-.12-.38-.54-.16-.86.14-.59v-.25s.36-1.23.36-1.23l.84-1.63-.22-.4v-.46s.26-.43.26-.43l.33-.45.41-.46.77-.66.42-.28.11-.09.09-.05.61-.45.11-.09.15-.09.75-.39,1.02-.38.46-.06.36.07.12.06.33.22.06.59-.09.39-.48,1-.16.25-.11.09-.14.14-.79.82-.32.15-.68.5-1.37.61-.55.13-.08.02h-.06s-.12,0-.12,0l-.28-.02-.13-.04-.02-.19.35-.21.28-.28.27-.08.19-.15,1.05-.19.32-.11,1.03-.56.38-.43.25-.56.05-.3-.02-.54-.38-.28h-.49s-.21.06-.21.06l-.3.21-.11.07-.13.13-.11.05-.33.34-.33.35-.13.14-.18.2-.29.28-.36.49-.08.09-.07.05-.16.2-.27.35-.09.21-.29.29-.57,1.21-.28.97v.23l-.05.27-.05.9.16.38.21.29.25.23.26.19.07.04.13.06.27.06,1.01.02.9-.27.96-.52.38-.34.08-.06.08-.06,1.05-.79h.08v-.06s.05-.11.05-.11l.47-.41.82-.84Zm-4.96-3.52l.09-.28-.35.2-.59.53-.06.25.02.08.14.02.29-.33h.02s.12-.15.12-.15l.3-.32Z"/>
        <path class="cls-7" d="m454.47,98.77h.07s-.04.33-.04.33l-.07.22-.04.09-.05.04-.02-.04v.48l-.08.02-.06-.05-.08-.68-.2-.21-.09-.08-.06-.07-.75-.08-1.04.33-.8.46-.28.25-.22.18-.56.33-.02.05h-.08s-1,1.07-1,1.07l-.08.06-.08.2-.26.38-.25.54.07.28v.08s0,.06,0,.06l.04.06.11.2.18.2.28.14,1.07-.11,1.27-.46.33-.06.45-.18.77-.21.67-.07.05.02.11-.02.23.04.67.35.13.21v.34l-.06.07h.05l.06.35-.28.73-.27.36-.12.32-.86,1.16v.02l-.13.13-1.07.87-.61.41-.57.29-.34.06-.75.26-.81.06-.43-.04-.19-.09-.08-.06-.3-.06-.04-.08-.38-.04-.3-.12-.05-.08v-.12s.36-.16.36-.16h.18s.34-.21.34-.21l.35.09h.2s.25.08.25.08l.52.02.08.04v.02s.18-.01.18-.01h.13s.41-.02.41-.02l.3-.15.28-.05.47-.18.4-.09.34-.21.21-.23.29-.16.38-.61.32-.23.28-.46.08-.53-.02-.28-.02-.07-.04-.11-.21-.25h-.53l-.56.16-.36.21-.28.04-.35.2-.64.23-.43.09-.13.04h-.06s-.07-.04-.07-.04l-.21.04-.13.06-.5.07h-.83l-.5-.34-.11-.06-.07-.08-.02-.05-.11-.3-.04-.25v-.13s.01-.09.01-.09l.15-.64.52-.89.06-.08.02-.18.68-.95h.15l.18-.39.29-.23v-.07s.08-.05.08-.05l.14-.19,1.82-1.52.66-.42.9-.42.62-.05.2-.06h.09s.09.04.09.04l.05.07.23.08.16.21.07.35-.06.11-.08.06v.08s.11-.01.11-.01v.04Z"/>
        <path class="cls-7" d="m461.2,100.93l.27.21-.53.09-1.01.04-.38-.04-.07-.07-.19.02.07.06-.06.05-.06-.02-.08.63.04.16-.07,1.64.04.06h.04s-.04.94-.04.94l-.02.05-.04.07v.04s.05.09.05.09l.04.15-.06,1.09.06.08v.06s-.05.09-.05.09l-.12.47.09.2v.33l.05.05v.09s.02.05.02.05l.02.15v.07h-.05l.05.06v.08s-.46.05-.46.05l-.43.23-.13.07h-.11s-.09,0-.09,0l-.06-.11v-.35s.08-.13.08-.13v-.48s.02-.16.02-.16v-.26s.01-.08.01-.08v-.06s-.01-.09-.01-.09l-.07-.18v-.41s.06-.13.06-.13v-.16s-.05-.06-.05-.06l-.14-.55.04-.49-.05-.04.06-.05v-.3s.06-.68.06-.68l.14-.12-.07-.32-.04-.81.04-.81-.49-.04-.13-.08-.26.02-.53.06-.27-.07-.18-.27-.27-.07-.13-.11.14-.11.14.04.94-.02.3-.06h.38s.27-.07.27-.07l.02-.06.09-.02.11-.22-.09-.26-.04-.15.02-.07.02-.11-.04-.23h.05s-.01-.05-.01-.05l-.08-.15v-.12s-.09-1.49-.09-1.49v-.07l-.05-.18.16-.28-.05-.11-.07-.08-.05-.13v-.75s-.06-.04-.06-.04l-.04-.18-.07-.09.08-.29.33-.12.2-.19.05-.38-.07-.29.13-.61-.05-.06v-.23s.09-.89.09-.89l-.07-.29v-.11s-.05-.11-.05-.11l-.2-.05-.09-.05-.09-.04-.18.05-.13-.26v-.34s.09-.22.09-.22l-.06-.45.02-.08v-.05s.07-.06.07-.06l.02-.22-.07-.07v-.11s-.04-.02-.04-.02l.22-.35.32-.14.14-.15.18-.15.33-.48.16.02.06.19.02.38.05.13-.02.29.07.23v.14s0,.08,0,.08l-.02.06.05.14v.07s.01.05.01.05l-.07.13.07.23-.08.52.08.33.04.47v.11s.04.15.04.15l-.06,1.44.11.08-.08.25.04.02-.05.06h.06l-.11.79.06.59-.07.19.05.25-.04.36.04.34-.09.62.04.12.04.19h.02s.02.39.02.39l-.11.43v1.41s-.12.08-.12.08l-.04.11.12.09.06.11.33.04.18-.05.14.08.4-.09.6.04.35.2Z"/>
        <path class="cls-7" d="m469.61,92.23l.16-.49.23.05.27.15.15.19.22.08.05.06.08.06.61.5.11.21v.21s.08.01.08.01l-.25.88v.41l-.13.73v.08l-.06.16.08.3-.18.76v.28s-.05.26-.05.26l.06.33-.09,1-.12.22.02.18.05.19v.64s-.06.09-.06.09v.09l.04.05-.06.84.08.4-.02.75-.06.28v.14s0,.06,0,.06l.07.14v.34s-.01.06-.01.06l.04.15v.53s.01.14.01.14l-.04.11.11.36-.02.38-.41-.06-.39-.18-.3-.06-.11-.12v-.28s.05-.21.05-.21l.02-.07-.06-.15v-.55s.11-.67.11-.67l.05-1.38.06-.26-.06-1.05.04-.2v-.11s-.06-.8-.06-.8l.04-.11v-.41s-.05-.04-.05-.04l.02-.07v-.07s0-.06,0-.06l-.04-.07v-.28l-.04-.19v-.04l.02-.13-.09-.27v-.64s-.08-.02-.08-.02v-.41s-.06-.74-.06-.74l-.08-.23-.05-.5-.14-.41-.02-.12-.04-.06v-.07s.04-.26.04-.26l.14-.42.11-.61Zm.3,13.92h.46s.43.06.43.06l.25.25v.22s.12.26.12.26l.08.39.06.11-.06.2-.12.23-.33.2h-.06s-.13.04-.13.04h-.07s-.11-.07-.11-.07l-.47-.14-.08-.06-.13-.02-.02-.06-.05-.04-.14-.23-.06-.26v-.42s.06-.33.06-.33l.06-.16.08-.06.08-.05.14-.05Z"/>
      </g>
    </g>
  </g>
</svg>